<svg id="Layer_1" data-name="Layer 1" xmlns="http://www.w3.org/2000/svg" viewBox="0 0 100 100"><defs><style>.cls-1{fill:#1c1e53;}</style></defs><path class="cls-1" d="M35.69,30.92a4.77,4.77,0,1,0,4.77-4.76,4.77,4.77,0,0,0-4.77,4.76h0"/><path class="cls-1" d="M54.77,30.92a4.77,4.77,0,1,0,4.77-4.76,4.76,4.76,0,0,0-4.77,4.76h0"/><path class="cls-1" d="M64.31,30.92a4.77,4.77,0,1,0,4.77-4.76,4.76,4.76,0,0,0-4.77,4.76h0"/><path class="cls-1" d="M73.84,30.92a4.77,4.77,0,1,0,4.77-4.76,4.77,4.77,0,0,0-4.77,4.76h0"/><path class="cls-1" d="M16.62,40.46a4.77,4.77,0,1,0,4.77-4.77,4.76,4.76,0,0,0-4.77,4.77"/><path class="cls-1" d="M26.16,40.46a4.77,4.77,0,1,0,4.76-4.77,4.76,4.76,0,0,0-4.76,4.77"/><path class="cls-1" d="M54.77,40.46a4.77,4.77,0,1,0,4.77-4.77,4.76,4.76,0,0,0-4.77,4.77"/><path class="cls-1" d="M64.31,40.46a4.77,4.77,0,1,0,4.77-4.77,4.76,4.76,0,0,0-4.77,4.77"/><path class="cls-1" d="M26.16,50a4.77,4.77,0,1,0,4.76-4.77A4.77,4.77,0,0,0,26.16,50"/><path class="cls-1" d="M35.69,49.88A4.77,4.77,0,1,0,40.46,45a4.83,4.83,0,0,0-4.77,4.89"/><path class="cls-1" d="M45.23,50A4.77,4.77,0,1,0,50,45.23,4.78,4.78,0,0,0,45.23,50"/><path class="cls-1" d="M54.77,50a4.77,4.77,0,1,0,4.77-4.77A4.77,4.77,0,0,0,54.77,50"/><path class="cls-1" d="M73.84,50a4.77,4.77,0,1,0,4.77-4.77A4.78,4.78,0,0,0,73.84,50"/><path class="cls-1" d="M16.62,59.54a4.77,4.77,0,1,0,4.77-4.77,4.77,4.77,0,0,0-4.77,4.77"/><path class="cls-1" d="M26.16,59.54a4.77,4.77,0,1,0,4.76-4.77,4.77,4.77,0,0,0-4.76,4.77"/><path class="cls-1" d="M54.77,59.54a4.77,4.77,0,1,0,4.77-4.77,4.77,4.77,0,0,0-4.77,4.77"/><path class="cls-1" d="M26.16,69.08a4.77,4.77,0,1,0,4.76-4.77,4.76,4.76,0,0,0-4.76,4.77"/><path class="cls-1" d="M35.69,69.08a4.77,4.77,0,1,0,4.77-4.77,4.77,4.77,0,0,0-4.77,4.77"/><path class="cls-1" d="M73.84,69.08a4.77,4.77,0,1,0,4.77-4.77,4.77,4.77,0,0,0-4.77,4.77"/></svg>