<svg width="500" height="500" viewBox="0 0 500 500" fill="none" xmlns="http://www.w3.org/2000/svg">
<rect width="500" height="500" fill="white"/>
<circle cx="188" cy="69" r="6" fill="#1C1E53"/>
<circle cx="200" cy="69" r="6" fill="#1C1E53"/>
<circle cx="212" cy="69" r="6" fill="#1C1E53"/>
<circle cx="224" cy="69" r="6" fill="#1C1E53"/>
<circle cx="72" cy="75" r="6" fill="#1C1E53"/>
<circle cx="84" cy="75" r="6" fill="#1C1E53"/>
<circle cx="96" cy="75" r="6" fill="#1C1E53"/>
<circle cx="108" cy="75" r="6" fill="#1C1E53"/>
<circle cx="176" cy="94" r="6" fill="#1C1E53"/>
<circle cx="176" cy="108" r="6" fill="#1C1E53"/>
<circle cx="143" cy="81" r="6" fill="#1C1E53"/>
<circle cx="188" cy="108" r="6" fill="#1C1E53"/>
<circle cx="108" cy="108" r="6" fill="#1C1E53"/>
<circle cx="200" cy="134" r="6" fill="#1C1E53"/>
<circle cx="200" cy="146" r="6" fill="#1C1E53"/>
<circle cx="200" cy="158" r="6" fill="#1C1E53"/>
<circle cx="188" cy="158" r="6" fill="#1C1E53"/>
<circle cx="176" cy="146" r="6" fill="#1C1E53"/>
<circle cx="164" cy="172" r="6" fill="#1C1E53"/>
<circle cx="175" cy="184" r="6" fill="#1C1E53"/>
<circle cx="175" cy="196" r="6" fill="#1C1E53"/>
<circle cx="149" cy="196" r="6" fill="#1C1E53"/>
<circle cx="137" cy="211" r="6" fill="#1C1E53"/>
<circle cx="149" cy="223" r="6" fill="#1C1E53"/>
<circle cx="84" cy="235" r="6" fill="#1C1E53"/>
<circle cx="123" cy="235" r="6" fill="#1C1E53"/>
<circle cx="137" cy="235" r="6" fill="#1C1E53"/>
<circle cx="137" cy="251" r="6" fill="#1C1E53"/>
<circle cx="149" cy="251" r="6" fill="#1C1E53"/>
<circle cx="111" cy="249" r="6" fill="#1C1E53"/>
<circle cx="123" cy="263" r="6" fill="#1C1E53"/>
<circle cx="72" cy="263" r="6" fill="#1C1E53"/>
<circle cx="84" cy="263" r="6" fill="#1C1E53"/>
<circle cx="96" cy="263" r="6" fill="#1C1E53"/>
<circle cx="72" cy="249" r="6" fill="#1C1E53"/>
<circle cx="137" cy="263" r="6" fill="#1C1E53"/>
<circle cx="137" cy="275" r="6" fill="#1C1E53"/>
<circle cx="96" cy="287" r="6" fill="#1C1E53"/>
<circle cx="108" cy="287" r="6" fill="#1C1E53"/>
<circle cx="120" cy="287" r="6" fill="#1C1E53"/>
<circle cx="96" cy="301" r="6" fill="#1C1E53"/>
<circle cx="108" cy="301" r="6" fill="#1C1E53"/>
<circle cx="108" cy="315" r="6" fill="#1C1E53"/>
<circle cx="120" cy="315" r="6" fill="#1C1E53"/>
<circle cx="149" cy="303" r="6" fill="#1C1E53"/>
<circle cx="149" cy="275" r="6" fill="#1C1E53"/>
<circle cx="163" cy="261" r="6" fill="#1C1E53"/>
<circle cx="175" cy="223" r="6" fill="#1C1E53"/>
<circle cx="175" cy="235" r="6" fill="#1C1E53"/>
<circle cx="175" cy="247" r="6" fill="#1C1E53"/>
<circle cx="188" cy="211" r="6" fill="#1C1E53"/>
<circle cx="200" cy="225" r="6" fill="#1C1E53"/>
<circle cx="200" cy="237" r="6" fill="#1C1E53"/>
<circle cx="200" cy="249" r="6" fill="#1C1E53"/>
<circle cx="200" cy="261" r="6" fill="#1C1E53"/>
<circle cx="200" cy="273" r="6" fill="#1C1E53"/>
<circle cx="200" cy="285" r="6" fill="#1C1E53"/>
<circle cx="188" cy="302" r="6" fill="#1C1E53"/>
<circle cx="176" cy="315" r="6" fill="#1C1E53"/>
<circle cx="188" cy="315" r="6" fill="#1C1E53"/>
<circle cx="201" cy="315" r="6" fill="#1C1E53"/>
<circle cx="201" cy="326" r="6" fill="#1C1E53"/>
<circle cx="213" cy="326" r="6" fill="#1C1E53"/>
<circle cx="188" cy="261" r="6" fill="#1C1E53"/>
<circle cx="188" cy="273" r="6" fill="#1C1E53"/>
<circle cx="161" cy="287" r="6" fill="#1C1E53"/>
<circle cx="147" cy="327" r="6" fill="#1C1E53"/>
<circle cx="173" cy="341" r="6" fill="#1C1E53"/>
<circle cx="200" cy="352" r="6" fill="#1C1E53"/>
<circle cx="227" cy="353" r="6" fill="#1C1E53"/>
<circle cx="215" cy="377" r="6" fill="#1C1E53"/>
<circle cx="201" cy="391" r="6" fill="#1C1E53"/>
<circle cx="187" cy="404" r="6" fill="#1C1E53"/>
<circle cx="199" cy="416" r="6" fill="#1C1E53"/>
<circle cx="213" cy="415" r="6" fill="#1C1E53"/>
<circle cx="227" cy="431" r="6" fill="#1C1E53"/>
<circle cx="239" cy="431" r="6" fill="#1C1E53"/>
<circle cx="239" cy="419" r="6" fill="#1C1E53"/>
<circle cx="239" cy="404" r="6" fill="#1C1E53"/>
<circle cx="251" cy="404" r="6" fill="#1C1E53"/>
<circle cx="251" cy="391" r="6" fill="#1C1E53"/>
<circle cx="251" cy="379" r="6" fill="#1C1E53"/>
<circle cx="265" cy="379" r="6" fill="#1C1E53"/>
<circle cx="278" cy="379" r="6" fill="#1C1E53"/>
<circle cx="278" cy="353" r="6" fill="#1C1E53"/>
<circle cx="266" cy="353" r="6" fill="#1C1E53"/>
<circle cx="251" cy="367" r="6" fill="#1C1E53"/>
<circle cx="266" cy="404" r="6" fill="#1C1E53"/>
<circle cx="266" cy="392" r="6" fill="#1C1E53"/>
<circle cx="278" cy="404" r="6" fill="#1C1E53"/>
<circle cx="290" cy="404" r="6" fill="#1C1E53"/>
<circle cx="290" cy="419" r="6" fill="#1C1E53"/>
<circle cx="279" cy="419" r="6" fill="#1C1E53"/>
<circle cx="290" cy="430" r="6" fill="#1C1E53"/>
<circle cx="304" cy="430" r="6" fill="#1C1E53"/>
<circle cx="290" cy="392" r="6" fill="#1C1E53"/>
<circle cx="304" cy="404" r="6" fill="#1C1E53"/>
<circle cx="225" cy="404" r="6" fill="#1C1E53"/>
<circle cx="241" cy="392" r="6" fill="#1C1E53"/>
<circle cx="188" cy="431" r="6" fill="#1C1E53"/>
<circle cx="227" cy="302" r="6" fill="#1C1E53"/>
<circle cx="241" cy="314" r="6" fill="#1C1E53"/>
<circle cx="241" cy="326" r="6" fill="#1C1E53"/>
<circle cx="241" cy="341" r="6" fill="#1C1E53"/>
<circle cx="253" cy="341" r="6" fill="#1C1E53"/>
<circle cx="265" cy="341" r="6" fill="#1C1E53"/>
<circle cx="277" cy="341" r="6" fill="#1C1E53"/>
<circle cx="290" cy="341" r="6" fill="#1C1E53"/>
<circle cx="290" cy="341" r="6" fill="#1C1E53"/>
<circle cx="278" cy="367" r="6" fill="#1C1E53"/>
<circle cx="290" cy="367" r="6" fill="#1C1E53"/>
<circle cx="302" cy="367" r="6" fill="#1C1E53"/>
<circle cx="314" cy="367" r="6" fill="#1C1E53"/>
<circle cx="326" cy="367" r="6" fill="#1C1E53"/>
<circle cx="289" cy="266" r="6" fill="#1C1E53"/>
<circle cx="329" cy="404" r="6" fill="#1C1E53"/>
<circle cx="329" cy="416" r="6" fill="#1C1E53"/>
<circle cx="329" cy="428" r="6" fill="#1C1E53"/>
<circle cx="343" cy="404" r="6" fill="#1C1E53"/>
<circle cx="343" cy="416" r="6" fill="#1C1E53"/>
<circle cx="329" cy="354" r="6" fill="#1C1E53"/>
<circle cx="329" cy="341" r="6" fill="#1C1E53"/>
<circle cx="317" cy="353" r="6" fill="#1C1E53"/>
<circle cx="86" cy="404" r="6" fill="#1C1E53"/>
<circle cx="329" cy="329" r="6" fill="#1C1E53"/>
<circle cx="96" cy="377" r="6" fill="#1C1E53"/>
<circle cx="96" cy="389" r="6" fill="#1C1E53"/>
<circle cx="96" cy="401" r="6" fill="#1C1E53"/>
<circle cx="72" cy="413" r="6" fill="#1C1E53"/>
<circle cx="84" cy="413" r="6" fill="#1C1E53"/>
<circle cx="96" cy="413" r="6" fill="#1C1E53"/>
<circle cx="343" cy="329" r="6" fill="#1C1E53"/>
<circle cx="112" cy="377" r="6" fill="#1C1E53"/>
<circle cx="343" cy="315" r="6" fill="#1C1E53"/>
<circle cx="112" cy="363" r="6" fill="#1C1E53"/>
<circle cx="356" cy="329" r="6" fill="#1C1E53"/>
<circle cx="125" cy="377" r="6" fill="#1C1E53"/>
<circle cx="356" cy="313" r="6" fill="#1C1E53"/>
<circle cx="125" cy="361" r="6" fill="#1C1E53"/>
<circle cx="356" cy="352" r="6" fill="#1C1E53"/>
<circle cx="125" cy="400" r="6" fill="#1C1E53"/>
<circle cx="368" cy="329" r="6" fill="#1C1E53"/>
<circle cx="137" cy="377" r="6" fill="#1C1E53"/>
<circle cx="368" cy="315" r="6" fill="#1C1E53"/>
<circle cx="137" cy="363" r="6" fill="#1C1E53"/>
<circle cx="368" cy="301" r="6" fill="#1C1E53"/>
<circle cx="382" cy="329" r="6" fill="#1C1E53"/>
<circle cx="151" cy="377" r="6" fill="#1C1E53"/>
<circle cx="382" cy="341" r="6" fill="#1C1E53"/>
<circle cx="151" cy="389" r="6" fill="#1C1E53"/>
<circle cx="382" cy="354" r="6" fill="#1C1E53"/>
<circle cx="151" cy="402" r="6" fill="#1C1E53"/>
<circle cx="382" cy="365" r="6" fill="#1C1E53"/>
<circle cx="151" cy="413" r="6" fill="#1C1E53"/>
<circle cx="368" cy="393" r="6" fill="#1C1E53"/>
<circle cx="368" cy="404" r="6" fill="#1C1E53"/>
<circle cx="382" cy="404" r="6" fill="#1C1E53"/>
<circle cx="382" cy="416" r="6" fill="#1C1E53"/>
<circle cx="382" cy="431" r="6" fill="#1C1E53"/>
<circle cx="370" cy="431" r="6" fill="#1C1E53"/>
<circle cx="394" cy="404" r="6" fill="#1C1E53"/>
<circle cx="317" cy="378" r="6" fill="#1C1E53"/>
<circle cx="329" cy="378" r="6" fill="#1C1E53"/>
<circle cx="341" cy="378" r="6" fill="#1C1E53"/>
<circle cx="353" cy="378" r="6" fill="#1C1E53"/>
<circle cx="365" cy="378" r="6" fill="#1C1E53"/>
<circle cx="377" cy="378" r="6" fill="#1C1E53"/>
<circle cx="278" cy="329" r="6" fill="#1C1E53"/>
<circle cx="278" cy="315" r="6" fill="#1C1E53"/>
<circle cx="278" cy="301" r="6" fill="#1C1E53"/>
<circle cx="253" cy="251" r="6" fill="#1C1E53"/>
<circle cx="266" cy="313" r="6" fill="#1C1E53"/>
<circle cx="241" cy="250" r="6" fill="#1C1E53"/>
<circle cx="290" cy="329" r="6" fill="#1C1E53"/>
<circle cx="213" cy="302" r="6" fill="#1C1E53"/>
<circle cx="173" cy="353" r="6" fill="#1C1E53"/>
<circle cx="173" cy="377" r="6" fill="#1C1E53"/>
<circle cx="173" cy="389" r="6" fill="#1C1E53"/>
<circle cx="99" cy="326" r="6" fill="#1C1E53"/>
<circle cx="111" cy="326" r="6" fill="#1C1E53"/>
<circle cx="123" cy="326" r="6" fill="#1C1E53"/>
<circle cx="84" cy="301" r="6" fill="#1C1E53"/>
<circle cx="84" cy="313" r="6" fill="#1C1E53"/>
<circle cx="84" cy="325" r="6" fill="#1C1E53"/>
<circle cx="69" cy="287" r="6" fill="#1C1E53"/>
<circle cx="69" cy="299" r="6" fill="#1C1E53"/>
<circle cx="69" cy="311" r="6" fill="#1C1E53"/>
<circle cx="69" cy="323" r="6" fill="#1C1E53"/>
<circle cx="96" cy="211" r="6" fill="#1C1E53"/>
<circle cx="72" cy="211" r="6" fill="#1C1E53"/>
<circle cx="161" cy="211" r="6" fill="#1C1E53"/>
<circle cx="149" cy="172" r="6" fill="#1C1E53"/>
<circle cx="111" cy="172" r="6" fill="#1C1E53"/>
<circle cx="123" cy="172" r="6" fill="#1C1E53"/>
<circle cx="111" cy="184" r="6" fill="#1C1E53"/>
<circle cx="123" cy="184" r="6" fill="#1C1E53"/>
<circle cx="111" cy="196" r="6" fill="#1C1E53"/>
<circle cx="123" cy="196" r="6" fill="#1C1E53"/>
<circle cx="224" cy="81" r="6" fill="#1C1E53"/>
<circle cx="224" cy="93" r="6" fill="#1C1E53"/>
<circle cx="224" cy="105" r="6" fill="#1C1E53"/>
<circle cx="224" cy="117" r="6" fill="#1C1E53"/>
<circle cx="72" cy="98" r="6" fill="#1C1E53"/>
<circle cx="72" cy="110" r="6" fill="#1C1E53"/>
<circle cx="72" cy="122" r="6" fill="#1C1E53"/>
<circle cx="72" cy="134" r="6" fill="#1C1E53"/>
<circle cx="239" cy="134" r="6" fill="#1C1E53"/>
<circle cx="227" cy="146" r="6" fill="#1C1E53"/>
<circle cx="251" cy="134" r="6" fill="#1C1E53"/>
<circle cx="251" cy="146" r="6" fill="#1C1E53"/>
<circle cx="213" cy="170" r="6" fill="#1C1E53"/>
<circle cx="225" cy="170" r="6" fill="#1C1E53"/>
<circle cx="237" cy="170" r="6" fill="#1C1E53"/>
<circle cx="249" cy="170" r="6" fill="#1C1E53"/>
<circle cx="213" cy="182" r="6" fill="#1C1E53"/>
<circle cx="225" cy="182" r="6" fill="#1C1E53"/>
<circle cx="237" cy="182" r="6" fill="#1C1E53"/>
<circle cx="249" cy="182" r="6" fill="#1C1E53"/>
<circle cx="213" cy="194" r="6" fill="#1C1E53"/>
<circle cx="225" cy="194" r="6" fill="#1C1E53"/>
<circle cx="263" cy="134" r="6" fill="#1C1E53"/>
<circle cx="278" cy="134" r="6" fill="#1C1E53"/>
<circle cx="278" cy="146" r="6" fill="#1C1E53"/>
<circle cx="278" cy="160" r="6" fill="#1C1E53"/>
<circle cx="278" cy="172" r="6" fill="#1C1E53"/>
<circle cx="290" cy="134" r="6" fill="#1C1E53"/>
<circle cx="305" cy="134" r="6" fill="#1C1E53"/>
<circle cx="305" cy="146" r="6" fill="#1C1E53"/>
<circle cx="332" cy="146" r="6" fill="#1C1E53"/>
<circle cx="332" cy="172" r="6" fill="#1C1E53"/>
<circle cx="305" cy="172" r="6" fill="#1C1E53"/>
<circle cx="305" cy="196" r="6" fill="#1C1E53"/>
<circle cx="293" cy="196" r="6" fill="#1C1E53"/>
<circle cx="293" cy="184" r="6" fill="#1C1E53"/>
<circle cx="278" cy="196" r="6" fill="#1C1E53"/>
<circle cx="249" cy="228" r="6" fill="#1C1E53"/>
<circle cx="332" cy="184" r="6" fill="#1C1E53"/>
<circle cx="343" cy="199" r="6" fill="#1C1E53"/>
<circle cx="355" cy="199" r="6" fill="#1C1E53"/>
<circle cx="355" cy="237" r="6" fill="#1C1E53"/>
<circle cx="303" cy="223" r="6" fill="#1C1E53"/>
<circle cx="315" cy="223" r="6" fill="#1C1E53"/>
<circle cx="327" cy="223" r="6" fill="#1C1E53"/>
<circle cx="339" cy="223" r="6" fill="#1C1E53"/>
<circle cx="351" cy="223" r="6" fill="#1C1E53"/>
<circle cx="303" cy="235" r="6" fill="#1C1E53"/>
<circle cx="225" cy="273" r="6" fill="#1C1E53"/>
<circle cx="237" cy="273" r="6" fill="#1C1E53"/>
<circle cx="249" cy="273" r="6" fill="#1C1E53"/>
<circle cx="261" cy="273" r="6" fill="#1C1E53"/>
<circle cx="273" cy="273" r="6" fill="#1C1E53"/>
<circle cx="285" cy="273" r="6" fill="#1C1E53"/>
<circle cx="303" cy="246" r="6" fill="#1C1E53"/>
<circle cx="317" cy="249" r="6" fill="#1C1E53"/>
<circle cx="331" cy="249" r="6" fill="#1C1E53"/>
<circle cx="331" cy="263" r="6" fill="#1C1E53"/>
<circle cx="331" cy="275" r="6" fill="#1C1E53"/>
<circle cx="345" cy="261" r="6" fill="#1C1E53"/>
<circle cx="317" cy="275" r="6" fill="#1C1E53"/>
<circle cx="303" cy="257" r="6" fill="#1C1E53"/>
<circle cx="331" cy="291" r="6" fill="#1C1E53"/>
<circle cx="331" cy="301" r="6" fill="#1C1E53"/>
<circle cx="367" cy="184" r="6" fill="#1C1E53"/>
<circle cx="382" cy="185" r="6" fill="#1C1E53"/>
<circle cx="397" cy="185" r="6" fill="#1C1E53"/>
<circle cx="397" cy="197" r="6" fill="#1C1E53"/>
<circle cx="397" cy="211" r="6" fill="#1C1E53"/>
<circle cx="382" cy="211" r="6" fill="#1C1E53"/>
<circle cx="370" cy="211" r="6" fill="#1C1E53"/>
<circle cx="397" cy="222" r="6" fill="#1C1E53"/>
<circle cx="382" cy="237" r="6" fill="#1C1E53"/>
<circle cx="382" cy="251" r="6" fill="#1C1E53"/>
<circle cx="367" cy="249" r="6" fill="#1C1E53"/>
<circle cx="397" cy="172" r="6" fill="#1C1E53"/>
<circle cx="409" cy="172" r="6" fill="#1C1E53"/>
<circle cx="421" cy="184" r="6" fill="#1C1E53"/>
<circle cx="433" cy="211" r="6" fill="#1C1E53"/>
<circle cx="421" cy="223" r="6" fill="#1C1E53"/>
<circle cx="409" cy="237" r="6" fill="#1C1E53"/>
<circle cx="395" cy="249" r="6" fill="#1C1E53"/>
<circle cx="395" cy="263" r="6" fill="#1C1E53"/>
<circle cx="383" cy="263" r="6" fill="#1C1E53"/>
<circle cx="370" cy="275" r="6" fill="#1C1E53"/>
<circle cx="383" cy="287" r="6" fill="#1C1E53"/>
<circle cx="407" cy="263" r="6" fill="#1C1E53"/>
<circle cx="419" cy="263" r="6" fill="#1C1E53"/>
<circle cx="419" cy="277" r="6" fill="#1C1E53"/>
<circle cx="434" cy="301" r="6" fill="#1C1E53"/>
<circle cx="407" cy="314" r="6" fill="#1C1E53"/>
<circle cx="407" cy="326" r="6" fill="#1C1E53"/>
<circle cx="407" cy="340" r="6" fill="#1C1E53"/>
<circle cx="397" cy="340" r="6" fill="#1C1E53"/>
<circle cx="420" cy="340" r="6" fill="#1C1E53"/>
<circle cx="434" cy="326" r="6" fill="#1C1E53"/>
<circle cx="421" cy="367" r="6" fill="#1C1E53"/>
<circle cx="395" cy="366" r="6" fill="#1C1E53"/>
<circle cx="164" cy="414" r="6" fill="#1C1E53"/>
<circle cx="407" cy="392" r="6" fill="#1C1E53"/>
<circle cx="420" cy="392" r="6" fill="#1C1E53"/>
<circle cx="420" cy="404" r="6" fill="#1C1E53"/>
<circle cx="433" cy="404" r="6" fill="#1C1E53"/>
<circle cx="433" cy="416" r="6" fill="#1C1E53"/>
<circle cx="408" cy="418" r="6" fill="#1C1E53"/>
<circle cx="407" cy="354" r="6" fill="#1C1E53"/>
<circle cx="395" cy="273" r="6" fill="#1C1E53"/>
<circle cx="395" cy="287" r="6" fill="#1C1E53"/>
<circle cx="395" cy="301" r="6" fill="#1C1E53"/>
<circle cx="434" cy="237" r="6" fill="#1C1E53"/>
<circle cx="434" cy="251" r="6" fill="#1C1E53"/>
<circle cx="239" cy="117" r="6" fill="#1C1E53"/>
<circle cx="251" cy="117" r="6" fill="#1C1E53"/>
<circle cx="263" cy="117" r="6" fill="#1C1E53"/>
<circle cx="275" cy="117" r="6" fill="#1C1E53"/>
<circle cx="287" cy="117" r="6" fill="#1C1E53"/>
<circle cx="299" cy="117" r="6" fill="#1C1E53"/>
<circle cx="311" cy="117" r="6" fill="#1C1E53"/>
<circle cx="323" cy="117" r="6" fill="#1C1E53"/>
<circle cx="74" cy="155" r="6" fill="#1C1E53"/>
<circle cx="86" cy="155" r="6" fill="#1C1E53"/>
<circle cx="98" cy="155" r="6" fill="#1C1E53"/>
<circle cx="110" cy="155" r="6" fill="#1C1E53"/>
<circle cx="122" cy="155" r="6" fill="#1C1E53"/>
<circle cx="134" cy="155" r="6" fill="#1C1E53"/>
<circle cx="146" cy="155" r="6" fill="#1C1E53"/>
<circle cx="158" cy="155" r="6" fill="#1C1E53"/>
<circle cx="322" cy="106" r="6" fill="#1C1E53"/>
<circle cx="332" cy="81" r="6" fill="#1C1E53"/>
<circle cx="332" cy="93" r="6" fill="#1C1E53"/>
<circle cx="287" cy="106" r="6" fill="#1C1E53"/>
<circle cx="251" cy="93" r="6" fill="#1C1E53"/>
<circle cx="275" cy="81" r="6" fill="#1C1E53"/>
<circle cx="275" cy="93" r="6" fill="#1C1E53"/>
<circle cx="305" cy="93" r="6" fill="#1C1E53"/>
<circle cx="251" cy="69" r="6" fill="#1C1E53"/>
<circle cx="263" cy="69" r="6" fill="#1C1E53"/>
<circle cx="275" cy="69" r="6" fill="#1C1E53"/>
<circle cx="287" cy="69" r="6" fill="#1C1E53"/>
<circle cx="299" cy="69" r="6" fill="#1C1E53"/>
<circle cx="311" cy="69" r="6" fill="#1C1E53"/>
</svg>
