<svg width="500" height="500" viewBox="0 0 500 500" fill="none" xmlns="http://www.w3.org/2000/svg">
<rect width="500" height="500" fill="white"/>
<path d="M198 63L199.347 67.1459H203.706L200.18 69.7082L201.527 73.8541L198 71.2918L194.473 73.8541L195.82 69.7082L192.294 67.1459H196.653L198 63Z" fill="#1C1E53"/>
<path d="M186 87L187.347 91.1459H191.706L188.18 93.7082L189.527 97.8541L186 95.2918L182.473 97.8541L183.82 93.7082L180.294 91.1459H184.653L186 87Z" fill="#1C1E53"/>
<path d="M186 101L187.347 105.146H191.706L188.18 107.708L189.527 111.854L186 109.292L182.473 111.854L183.82 107.708L180.294 105.146H184.653L186 101Z" fill="#1C1E53"/>
<path d="M198 101L199.347 105.146H203.706L200.18 107.708L201.527 111.854L198 109.292L194.473 111.854L195.82 107.708L192.294 105.146H196.653L198 101Z" fill="#1C1E53"/>
<path d="M210 123L211.347 127.146H215.706L212.18 129.708L213.527 133.854L210 131.292L206.473 133.854L207.82 129.708L204.294 127.146H208.653L210 123Z" fill="#1C1E53"/>
<path d="M210 135L211.347 139.146H215.706L212.18 141.708L213.527 145.854L210 143.292L206.473 145.854L207.82 141.708L204.294 139.146H208.653L210 135Z" fill="#1C1E53"/>
<path d="M210 147L211.347 151.146H215.706L212.18 153.708L213.527 157.854L210 155.292L206.473 157.854L207.82 153.708L204.294 151.146H208.653L210 147Z" fill="#1C1E53"/>
<path d="M222 157L223.347 161.146H227.706L224.18 163.708L225.527 167.854L222 165.292L218.473 167.854L219.82 163.708L216.294 161.146H220.653L222 157Z" fill="#1C1E53"/>
<path d="M222 181L223.347 185.146H227.706L224.18 187.708L225.527 191.854L222 189.292L218.473 191.854L219.82 187.708L216.294 185.146H220.653L222 181Z" fill="#1C1E53"/>
<path d="M210 204L211.347 208.146H215.706L212.18 210.708L213.527 214.854L210 212.292L206.473 214.854L207.82 210.708L204.294 208.146H208.653L210 204Z" fill="#1C1E53"/>
<path d="M210 216L211.347 220.146H215.706L212.18 222.708L213.527 226.854L210 224.292L206.473 226.854L207.82 222.708L204.294 220.146H208.653L210 216Z" fill="#1C1E53"/>
<path d="M210 228L211.347 232.146H215.706L212.18 234.708L213.527 238.854L210 236.292L206.473 238.854L207.82 234.708L204.294 232.146H208.653L210 228Z" fill="#1C1E53"/>
<path d="M210 240L211.347 244.146H215.706L212.18 246.708L213.527 250.854L210 248.292L206.473 250.854L207.82 246.708L204.294 244.146H208.653L210 240Z" fill="#1C1E53"/>
<path d="M199 240L200.347 244.146H204.706L201.18 246.708L202.527 250.854L199 248.292L195.473 250.854L196.82 246.708L193.294 244.146H197.653L199 240Z" fill="#1C1E53"/>
<path d="M210 252L211.347 256.146H215.706L212.18 258.708L213.527 262.854L210 260.292L206.473 262.854L207.82 258.708L204.294 256.146H208.653L210 252Z" fill="#1C1E53"/>
<path d="M198 252L199.347 256.146H203.706L200.18 258.708L201.527 262.854L198 260.292L194.473 262.854L195.82 258.708L192.294 256.146H196.653L198 252Z" fill="#1C1E53"/>
<path d="M210 264L211.347 268.146H215.706L212.18 270.708L213.527 274.854L210 272.292L206.473 274.854L207.82 270.708L204.294 268.146H208.653L210 264Z" fill="#1C1E53"/>
<path d="M199 275L200.347 279.146H204.706L201.18 281.708L202.527 285.854L199 283.292L195.473 285.854L196.82 281.708L193.294 279.146H197.653L199 275Z" fill="#1C1E53"/>
<path d="M187 287L188.347 291.146H192.706L189.18 293.708L190.527 297.854L187 295.292L183.473 297.854L184.82 293.708L181.294 291.146H185.653L187 287Z" fill="#1C1E53"/>
<path d="M187 310L188.347 314.146H192.706L189.18 316.708L190.527 320.854L187 318.292L183.473 320.854L184.82 316.708L181.294 314.146H185.653L187 310Z" fill="#1C1E53"/>
<path d="M187 323L188.347 327.146H192.706L189.18 329.708L190.527 333.854L187 331.292L183.473 333.854L184.82 329.708L181.294 327.146H185.653L187 323Z" fill="#1C1E53"/>
<path d="M187 345L188.347 349.146H192.706L189.18 351.708L190.527 355.854L187 353.292L183.473 355.854L184.82 351.708L181.294 349.146H185.653L187 345Z" fill="#1C1E53"/>
<path d="M187 357L188.347 361.146H192.706L189.18 363.708L190.527 367.854L187 365.292L183.473 367.854L184.82 363.708L181.294 361.146H185.653L187 357Z" fill="#1C1E53"/>
<path d="M199 392L200.347 396.146H204.706L201.18 398.708L202.527 402.854L199 400.292L195.473 402.854L196.82 398.708L193.294 396.146H197.653L199 392Z" fill="#1C1E53"/>
<path d="M199 369L200.347 373.146H204.706L201.18 375.708L202.527 379.854L199 377.292L195.473 379.854L196.82 375.708L193.294 373.146H197.653L199 369Z" fill="#1C1E53"/>
<path d="M210 380L211.347 384.146H215.706L212.18 386.708L213.527 390.854L210 388.292L206.473 390.854L207.82 386.708L204.294 384.146H208.653L210 380Z" fill="#1C1E53"/>
<path d="M222 380L223.347 384.146H227.706L224.18 386.708L225.527 390.854L222 388.292L218.473 390.854L219.82 386.708L216.294 384.146H220.653L222 380Z" fill="#1C1E53"/>
<path d="M234 392L235.347 396.146H239.706L236.18 398.708L237.527 402.854L234 400.292L230.473 402.854L231.82 398.708L228.294 396.146H232.653L234 392Z" fill="#1C1E53"/>
<path d="M246 392L247.347 396.146H251.706L248.18 398.708L249.527 402.854L246 400.292L242.473 402.854L243.82 398.708L240.294 396.146H244.653L246 392Z" fill="#1C1E53"/>
<path d="M246 380L247.347 384.146H251.706L248.18 386.708L249.527 390.854L246 388.292L242.473 390.854L243.82 386.708L240.294 384.146H244.653L246 380Z" fill="#1C1E53"/>
<path d="M234 368L235.347 372.146H239.706L236.18 374.708L237.527 378.854L234 376.292L230.473 378.854L231.82 374.708L228.294 372.146H232.653L234 368Z" fill="#1C1E53"/>
<path d="M246 369L247.347 373.146H251.706L248.18 375.708L249.527 379.854L246 377.292L242.473 379.854L243.82 375.708L240.294 373.146H244.653L246 369Z" fill="#1C1E53"/>
<path d="M246 357L247.347 361.146H251.706L248.18 363.708L249.527 367.854L246 365.292L242.473 367.854L243.82 363.708L240.294 361.146H244.653L246 357Z" fill="#1C1E53"/>
<path d="M257 357L258.347 361.146H262.706L259.18 363.708L260.527 367.854L257 365.292L253.473 367.854L254.82 363.708L251.294 361.146H255.653L257 357Z" fill="#1C1E53"/>
<path d="M257 357L258.347 361.146H262.706L259.18 363.708L260.527 367.854L257 365.292L253.473 367.854L254.82 363.708L251.294 361.146H255.653L257 357Z" fill="#1C1E53"/>
<path d="M257 345L258.347 349.146H262.706L259.18 351.708L260.527 355.854L257 353.292L253.473 355.854L254.82 351.708L251.294 349.146H255.653L257 345Z" fill="#1C1E53"/>
<path d="M257 333L258.347 337.146H262.706L259.18 339.708L260.527 343.854L257 341.292L253.473 343.854L254.82 339.708L251.294 337.146H255.653L257 333Z" fill="#1C1E53"/>
<path d="M269 345L270.347 349.146H274.706L271.18 351.708L272.527 355.854L269 353.292L265.473 355.854L266.82 351.708L263.294 349.146H267.653L269 345Z" fill="#1C1E53"/>
<path d="M281 345L282.347 349.146H286.706L283.18 351.708L284.527 355.854L281 353.292L277.473 355.854L278.82 351.708L275.294 349.146H279.653L281 345Z" fill="#1C1E53"/>
<path d="M268 357L269.347 361.146H273.706L270.18 363.708L271.527 367.854L268 365.292L264.473 367.854L265.82 363.708L262.294 361.146H266.653L268 357Z" fill="#1C1E53"/>
<path d="M293 357L294.347 361.146H298.706L295.18 363.708L296.527 367.854L293 365.292L289.473 367.854L290.82 363.708L287.294 361.146H291.653L293 357Z" fill="#1C1E53"/>
<path d="M257 369L258.347 373.146H262.706L259.18 375.708L260.527 379.854L257 377.292L253.473 379.854L254.82 375.708L251.294 373.146H255.653L257 369Z" fill="#1C1E53"/>
<path d="M268 369L269.347 373.146H273.706L270.18 375.708L271.527 379.854L268 377.292L264.473 379.854L265.82 375.708L262.294 373.146H266.653L268 369Z" fill="#1C1E53"/>
<path d="M279 369L280.347 373.146H284.706L281.18 375.708L282.527 379.854L279 377.292L275.473 379.854L276.82 375.708L273.294 373.146H277.653L279 369Z" fill="#1C1E53"/>
<path d="M279 381L280.347 385.146H284.706L281.18 387.708L282.527 391.854L279 389.292L275.473 391.854L276.82 387.708L273.294 385.146H277.653L279 381Z" fill="#1C1E53"/>
<path d="M292 381L293.347 385.146H297.706L294.18 387.708L295.527 391.854L292 389.292L288.473 391.854L289.82 387.708L286.294 385.146H290.653L292 381Z" fill="#1C1E53"/>
<path d="M292 394L293.347 398.146H297.706L294.18 400.708L295.527 404.854L292 402.292L288.473 404.854L289.82 400.708L286.294 398.146H290.653L292 394Z" fill="#1C1E53"/>
<path d="M303 394L304.347 398.146H308.706L305.18 400.708L306.527 404.854L303 402.292L299.473 404.854L300.82 400.708L297.294 398.146H301.653L303 394Z" fill="#1C1E53"/>
<path d="M328 394L329.347 398.146H333.706L330.18 400.708L331.527 404.854L328 402.292L324.473 404.854L325.82 400.708L322.294 398.146H326.653L328 394Z" fill="#1C1E53"/>
<path d="M363 394L364.347 398.146H368.706L365.18 400.708L366.527 404.854L363 402.292L359.473 404.854L360.82 400.708L357.294 398.146H361.653L363 394Z" fill="#1C1E53"/>
<path d="M377 394L378.347 398.146H382.706L379.18 400.708L380.527 404.854L377 402.292L373.473 404.854L374.82 400.708L371.294 398.146H375.653L377 394Z" fill="#1C1E53"/>
<path d="M377 382L378.347 386.146H382.706L379.18 388.708L380.527 392.854L377 390.292L373.473 392.854L374.82 388.708L371.294 386.146H375.653L377 382Z" fill="#1C1E53"/>
<path d="M377 369L378.347 373.146H382.706L379.18 375.708L380.527 379.854L377 377.292L373.473 379.854L374.82 375.708L371.294 373.146H375.653L377 369Z" fill="#1C1E53"/>
<path d="M389 369L390.347 373.146H394.706L391.18 375.708L392.527 379.854L389 377.292L385.473 379.854L386.82 375.708L383.294 373.146H387.653L389 369Z" fill="#1C1E53"/>
<path d="M411 369L412.347 373.146H416.706L413.18 375.708L414.527 379.854L411 377.292L407.473 379.854L408.82 375.708L405.294 373.146H409.653L411 369Z" fill="#1C1E53"/>
<path d="M425 369L426.347 373.146H430.706L427.18 375.708L428.527 379.854L425 377.292L421.473 379.854L422.82 375.708L419.294 373.146H423.653L425 369Z" fill="#1C1E53"/>
<path d="M425 382L426.347 386.146H430.706L427.18 388.708L428.527 392.854L425 390.292L421.473 392.854L422.82 388.708L419.294 386.146H423.653L425 382Z" fill="#1C1E53"/>
<path d="M399 382L400.347 386.146H404.706L401.18 388.708L402.527 392.854L399 390.292L395.473 392.854L396.82 388.708L393.294 386.146H397.653L399 382Z" fill="#1C1E53"/>
<path d="M399 356L400.347 360.146H404.706L401.18 362.708L402.527 366.854L399 364.292L395.473 366.854L396.82 362.708L393.294 360.146H397.653L399 356Z" fill="#1C1E53"/>
<path d="M363 356L364.347 360.146H368.706L365.18 362.708L366.527 366.854L363 364.292L359.473 366.854L360.82 362.708L357.294 360.146H361.653L363 356Z" fill="#1C1E53"/>
<path d="M411 356L412.347 360.146H416.706L413.18 362.708L414.527 366.854L411 364.292L407.473 366.854L408.82 362.708L405.294 360.146H409.653L411 356Z" fill="#1C1E53"/>
<path d="M362 369L363.347 373.146H367.706L364.18 375.708L365.527 379.854L362 377.292L358.473 379.854L359.82 375.708L356.294 373.146H360.653L362 369Z" fill="#1C1E53"/>
<path d="M328 382L329.347 386.146H333.706L330.18 388.708L331.527 392.854L328 390.292L324.473 392.854L325.82 388.708L322.294 386.146H326.653L328 382Z" fill="#1C1E53"/>
<path d="M342 382L343.347 386.146H347.706L344.18 388.708L345.527 392.854L342 390.292L338.473 392.854L339.82 388.708L336.294 386.146H340.653L342 382Z" fill="#1C1E53"/>
<path d="M342 370L343.347 374.146H347.706L344.18 376.708L345.527 380.854L342 378.292L338.473 380.854L339.82 376.708L336.294 374.146H340.653L342 370Z" fill="#1C1E53"/>
<path d="M329 370L330.347 374.146H334.706L331.18 376.708L332.527 380.854L329 378.292L325.473 380.854L326.82 376.708L323.294 374.146H327.653L329 370Z" fill="#1C1E53"/>
<path d="M290 369L291.347 373.146H295.706L292.18 375.708L293.527 379.854L290 377.292L286.473 379.854L287.82 375.708L284.294 373.146H288.653L290 369Z" fill="#1C1E53"/>
<path d="M301 369L302.347 373.146H306.706L303.18 375.708L304.527 379.854L301 377.292L297.473 379.854L298.82 375.708L295.294 373.146H299.653L301 369Z" fill="#1C1E53"/>
<path d="M211 357L212.347 361.146H216.706L213.18 363.708L214.527 367.854L211 365.292L207.473 367.854L208.82 363.708L205.294 361.146H209.653L211 357Z" fill="#1C1E53"/>
<path d="M222 345L223.347 349.146H227.706L224.18 351.708L225.527 355.854L222 353.292L218.473 355.854L219.82 351.708L216.294 349.146H220.653L222 345Z" fill="#1C1E53"/>
<path d="M210 322L211.347 326.146H215.706L212.18 328.708L213.527 332.854L210 330.292L206.473 332.854L207.82 328.708L204.294 326.146H208.653L210 322Z" fill="#1C1E53"/>
<path d="M234 322L235.347 326.146H239.706L236.18 328.708L237.527 332.854L234 330.292L230.473 332.854L231.82 328.708L228.294 326.146H232.653L234 322Z" fill="#1C1E53"/>
<path d="M199 287L200.347 291.146H204.706L201.18 293.708L202.527 297.854L199 295.292L195.473 297.854L196.82 293.708L193.294 291.146H197.653L199 287Z" fill="#1C1E53"/>
<path d="M212 287L213.347 291.146H217.706L214.18 293.708L215.527 297.854L212 295.292L208.473 297.854L209.82 293.708L206.294 291.146H210.653L212 287Z" fill="#1C1E53"/>
<path d="M210 299L211.347 303.146H215.706L212.18 305.708L213.527 309.854L210 307.292L206.473 309.854L207.82 305.708L204.294 303.146H208.653L210 299Z" fill="#1C1E53"/>
<path d="M222 299L223.347 303.146H227.706L224.18 305.708L225.527 309.854L222 307.292L218.473 309.854L219.82 305.708L216.294 303.146H220.653L222 299Z" fill="#1C1E53"/>
<path d="M222 275L223.347 279.146H227.706L224.18 281.708L225.527 285.854L222 283.292L218.473 285.854L219.82 281.708L216.294 279.146H220.653L222 275Z" fill="#1C1E53"/>
<path d="M235 275L236.347 279.146H240.706L237.18 281.708L238.527 285.854L235 283.292L231.473 285.854L232.82 281.708L229.294 279.146H233.653L235 275Z" fill="#1C1E53"/>
<path d="M246 287L247.347 291.146H251.706L248.18 293.708L249.527 297.854L246 295.292L242.473 297.854L243.82 293.708L240.294 291.146H244.653L246 287Z" fill="#1C1E53"/>
<path d="M246 298L247.347 302.146H251.706L248.18 304.708L249.527 308.854L246 306.292L242.473 308.854L243.82 304.708L240.294 302.146H244.653L246 298Z" fill="#1C1E53"/>
<path d="M246 312L247.347 316.146H251.706L248.18 318.708L249.527 322.854L246 320.292L242.473 322.854L243.82 318.708L240.294 316.146H244.653L246 312Z" fill="#1C1E53"/>
<path d="M258 312L259.347 316.146H263.706L260.18 318.708L261.527 322.854L258 320.292L254.473 322.854L255.82 318.708L252.294 316.146H256.653L258 312Z" fill="#1C1E53"/>
<path d="M270 312L271.347 316.146H275.706L272.18 318.708L273.527 322.854L270 320.292L266.473 322.854L267.82 318.708L264.294 316.146H268.653L270 312Z" fill="#1C1E53"/>
<path d="M270 324L271.347 328.146H275.706L272.18 330.708L273.527 334.854L270 332.292L266.473 334.854L267.82 330.708L264.294 328.146H268.653L270 324Z" fill="#1C1E53"/>
<path d="M282 312L283.347 316.146H287.706L284.18 318.708L285.527 322.854L282 320.292L278.473 322.854L279.82 318.708L276.294 316.146H280.653L282 312Z" fill="#1C1E53"/>
<path d="M282 324L283.347 328.146H287.706L284.18 330.708L285.527 334.854L282 332.292L278.473 334.854L279.82 330.708L276.294 328.146H280.653L282 324Z" fill="#1C1E53"/>
<path d="M282 335L283.347 339.146H287.706L284.18 341.708L285.527 345.854L282 343.292L278.473 345.854L279.82 341.708L276.294 339.146H280.653L282 335Z" fill="#1C1E53"/>
<path d="M294 335L295.347 339.146H299.706L296.18 341.708L297.527 345.854L294 343.292L290.473 345.854L291.82 341.708L288.294 339.146H292.653L294 335Z" fill="#1C1E53"/>
<path d="M306 335L307.347 339.146H311.706L308.18 341.708L309.527 345.854L306 343.292L302.473 345.854L303.82 341.708L300.294 339.146H304.653L306 335Z" fill="#1C1E53"/>
<path d="M318 335L319.347 339.146H323.706L320.18 341.708L321.527 345.854L318 343.292L314.473 345.854L315.82 341.708L312.294 339.146H316.653L318 335Z" fill="#1C1E53"/>
<path d="M318 323L319.347 327.146H323.706L320.18 329.708L321.527 333.854L318 331.292L314.473 333.854L315.82 329.708L312.294 327.146H316.653L318 323Z" fill="#1C1E53"/>
<path d="M330 335L331.347 339.146H335.706L332.18 341.708L333.527 345.854L330 343.292L326.473 345.854L327.82 341.708L324.294 339.146H328.653L330 335Z" fill="#1C1E53"/>
<path d="M330 323L331.347 327.146H335.706L332.18 329.708L333.527 333.854L330 331.292L326.473 333.854L327.82 329.708L324.294 327.146H328.653L330 323Z" fill="#1C1E53"/>
<path d="M328 310L329.347 314.146H333.706L330.18 316.708L331.527 320.854L328 318.292L324.473 320.854L325.82 316.708L322.294 314.146H326.653L328 310Z" fill="#1C1E53"/>
<path d="M327 299L328.347 303.146H332.706L329.18 305.708L330.527 309.854L327 307.292L323.473 309.854L324.82 305.708L321.294 303.146H325.653L327 299Z" fill="#1C1E53"/>
<path d="M339 299L340.347 303.146H344.706L341.18 305.708L342.527 309.854L339 307.292L335.473 309.854L336.82 305.708L333.294 303.146H337.653L339 299Z" fill="#1C1E53"/>
<path d="M352 299L353.347 303.146H357.706L354.18 305.708L355.527 309.854L352 307.292L348.473 309.854L349.82 305.708L346.294 303.146H350.653L352 299Z" fill="#1C1E53"/>
<path d="M363 299L364.347 303.146H368.706L365.18 305.708L366.527 309.854L363 307.292L359.473 309.854L360.82 305.708L357.294 303.146H361.653L363 299Z" fill="#1C1E53"/>
<path d="M375 299L376.347 303.146H380.706L377.18 305.708L378.527 309.854L375 307.292L371.473 309.854L372.82 305.708L369.294 303.146H373.653L375 299Z" fill="#1C1E53"/>
<path d="M375 310L376.347 314.146H380.706L377.18 316.708L378.527 320.854L375 318.292L371.473 320.854L372.82 316.708L369.294 314.146H373.653L375 310Z" fill="#1C1E53"/>
<path d="M375 334L376.347 338.146H380.706L377.18 340.708L378.527 344.854L375 342.292L371.473 344.854L372.82 340.708L369.294 338.146H373.653L375 334Z" fill="#1C1E53"/>
<path d="M387 334L388.347 338.146H392.706L389.18 340.708L390.527 344.854L387 342.292L383.473 344.854L384.82 340.708L381.294 338.146H385.653L387 334Z" fill="#1C1E53"/>
<path d="M411 334L412.347 338.146H416.706L413.18 340.708L414.527 344.854L411 342.292L407.473 344.854L408.82 340.708L405.294 338.146H409.653L411 334Z" fill="#1C1E53"/>
<path d="M398 322L399.347 326.146H403.706L400.18 328.708L401.527 332.854L398 330.292L394.473 332.854L395.82 328.708L392.294 326.146H396.653L398 322Z" fill="#1C1E53"/>
<path d="M386 310L387.347 314.146H391.706L388.18 316.708L389.527 320.854L386 318.292L382.473 320.854L383.82 316.708L380.294 314.146H384.653L386 310Z" fill="#1C1E53"/>
<path d="M399 310L400.347 314.146H404.706L401.18 316.708L402.527 320.854L399 318.292L395.473 320.854L396.82 316.708L393.294 314.146H397.653L399 310Z" fill="#1C1E53"/>
<path d="M411 310L412.347 314.146H416.706L413.18 316.708L414.527 320.854L411 318.292L407.473 320.854L408.82 316.708L405.294 314.146H409.653L411 310Z" fill="#1C1E53"/>
<path d="M398 298L399.347 302.146H403.706L400.18 304.708L401.527 308.854L398 306.292L394.473 308.854L395.82 304.708L392.294 302.146H396.653L398 298Z" fill="#1C1E53"/>
<path d="M422 299L423.347 303.146H427.706L424.18 305.708L425.527 309.854L422 307.292L418.473 309.854L419.82 305.708L416.294 303.146H420.653L422 299Z" fill="#1C1E53"/>
<path d="M422 275L423.347 279.146H427.706L424.18 281.708L425.527 285.854L422 283.292L418.473 285.854L419.82 281.708L416.294 279.146H420.653L422 275Z" fill="#1C1E53"/>
<path d="M398 287L399.347 291.146H403.706L400.18 293.708L401.527 297.854L398 295.292L394.473 297.854L395.82 293.708L392.294 291.146H396.653L398 287Z" fill="#1C1E53"/>
<path d="M363 287L364.347 291.146H368.706L365.18 293.708L366.527 297.854L363 295.292L359.473 297.854L360.82 293.708L357.294 291.146H361.653L363 287Z" fill="#1C1E53"/>
<path d="M352 287L353.347 291.146H357.706L354.18 293.708L355.527 297.854L352 295.292L348.473 297.854L349.82 293.708L346.294 291.146H350.653L352 287Z" fill="#1C1E53"/>
<path d="M339 287L340.347 291.146H344.706L341.18 293.708L342.527 297.854L339 295.292L335.473 297.854L336.82 293.708L333.294 291.146H337.653L339 287Z" fill="#1C1E53"/>
<path d="M328 275L329.347 279.146H333.706L330.18 281.708L331.527 285.854L328 283.292L324.473 285.854L325.82 281.708L322.294 279.146H326.653L328 275Z" fill="#1C1E53"/>
<path d="M328 264L329.347 268.146H333.706L330.18 270.708L331.527 274.854L328 272.292L324.473 274.854L325.82 270.708L322.294 268.146H326.653L328 264Z" fill="#1C1E53"/>
<path d="M328 251L329.347 255.146H333.706L330.18 257.708L331.527 261.854L328 259.292L324.473 261.854L325.82 257.708L322.294 255.146H326.653L328 251Z" fill="#1C1E53"/>
<path d="M328 238L329.347 242.146H333.706L330.18 244.708L331.527 248.854L328 246.292L324.473 248.854L325.82 244.708L322.294 242.146H326.653L328 238Z" fill="#1C1E53"/>
<path d="M400 127L401.347 131.146H405.706L402.18 133.708L403.527 137.854L400 135.292L396.473 137.854L397.82 133.708L394.294 131.146H398.653L400 127Z" fill="#1C1E53"/>
<path d="M125 405L126.347 409.146H130.706L127.18 411.708L128.527 415.854L125 413.292L121.473 415.854L122.82 411.708L119.294 409.146H123.653L125 405Z" fill="#1C1E53"/>
<path d="M94 356L95.3471 360.146H99.7063L96.1796 362.708L97.5267 366.854L94 364.292L90.4733 366.854L91.8204 362.708L88.2937 360.146H92.6529L94 356Z" fill="#1C1E53"/>
<path d="M110 129L111.347 133.146H115.706L112.18 135.708L113.527 139.854L110 137.292L106.473 139.854L107.82 135.708L104.294 133.146H108.653L110 129Z" fill="#1C1E53"/>
<path d="M316 252L317.347 256.146H321.706L318.18 258.708L319.527 262.854L316 260.292L312.473 262.854L313.82 258.708L310.294 256.146H314.653L316 252Z" fill="#1C1E53"/>
<path d="M303 239L304.347 243.146H308.706L305.18 245.708L306.527 249.854L303 247.292L299.473 249.854L300.82 245.708L297.294 243.146H301.653L303 239Z" fill="#1C1E53"/>
<path d="M375 128L376.347 132.146H380.706L377.18 134.708L378.527 138.854L375 136.292L371.473 138.854L372.82 134.708L369.294 132.146H373.653L375 128Z" fill="#1C1E53"/>
<path d="M100 406L101.347 410.146H105.706L102.18 412.708L103.527 416.854L100 414.292L96.4733 416.854L97.8204 412.708L94.2937 410.146H98.6529L100 406Z" fill="#1C1E53"/>
<path d="M69 357L70.3471 361.146H74.7063L71.1796 363.708L72.5267 367.854L69 365.292L65.4733 367.854L66.8204 363.708L63.2937 361.146H67.6529L69 357Z" fill="#1C1E53"/>
<path d="M85 130L86.3471 134.146H90.7063L87.1796 136.708L88.5267 140.854L85 138.292L81.4733 140.854L82.8204 136.708L79.2937 134.146H83.6529L85 130Z" fill="#1C1E53"/>
<path d="M341 238L342.347 242.146H346.706L343.18 244.708L344.527 248.854L341 246.292L337.473 248.854L338.82 244.708L335.294 242.146H339.653L341 238Z" fill="#1C1E53"/>
<path d="M413 127L414.347 131.146H418.706L415.18 133.708L416.527 137.854L413 135.292L409.473 137.854L410.82 133.708L407.294 131.146H411.653L413 127Z" fill="#1C1E53"/>
<path d="M138 405L139.347 409.146H143.706L140.18 411.708L141.527 415.854L138 413.292L134.473 415.854L135.82 411.708L132.294 409.146H136.653L138 405Z" fill="#1C1E53"/>
<path d="M107 356L108.347 360.146H112.706L109.18 362.708L110.527 366.854L107 364.292L103.473 366.854L104.82 362.708L101.294 360.146H105.653L107 356Z" fill="#1C1E53"/>
<path d="M123 129L124.347 133.146H128.706L125.18 135.708L126.527 139.854L123 137.292L119.473 139.854L120.82 135.708L117.294 133.146H121.653L123 129Z" fill="#1C1E53"/>
<path d="M328 225L329.347 229.146H333.706L330.18 231.708L331.527 235.854L328 233.292L324.473 235.854L325.82 231.708L322.294 229.146H326.653L328 225Z" fill="#1C1E53"/>
<path d="M400 114L401.347 118.146H405.706L402.18 120.708L403.527 124.854L400 122.292L396.473 124.854L397.82 120.708L394.294 118.146H398.653L400 114Z" fill="#1C1E53"/>
<path d="M125 392L126.347 396.146H130.706L127.18 398.708L128.527 402.854L125 400.292L121.473 402.854L122.82 398.708L119.294 396.146H123.653L125 392Z" fill="#1C1E53"/>
<path d="M94 343L95.3471 347.146H99.7063L96.1796 349.708L97.5267 353.854L94 351.292L90.4733 353.854L91.8204 349.708L88.2937 347.146H92.6529L94 343Z" fill="#1C1E53"/>
<path d="M110 116L111.347 120.146H115.706L112.18 122.708L113.527 126.854L110 124.292L106.473 126.854L107.82 122.708L104.294 120.146H108.653L110 116Z" fill="#1C1E53"/>
<path d="M316 225L317.347 229.146H321.706L318.18 231.708L319.527 235.854L316 233.292L312.473 235.854L313.82 231.708L310.294 229.146H314.653L316 225Z" fill="#1C1E53"/>
<path d="M388 114L389.347 118.146H393.706L390.18 120.708L391.527 124.854L388 122.292L384.473 124.854L385.82 120.708L382.294 118.146H386.653L388 114Z" fill="#1C1E53"/>
<path d="M113 392L114.347 396.146H118.706L115.18 398.708L116.527 402.854L113 400.292L109.473 402.854L110.82 398.708L107.294 396.146H111.653L113 392Z" fill="#1C1E53"/>
<path d="M82 343L83.3471 347.146H87.7063L84.1796 349.708L85.5267 353.854L82 351.292L78.4733 353.854L79.8204 349.708L76.2937 347.146H80.6529L82 343Z" fill="#1C1E53"/>
<path d="M98 116L99.3471 120.146H103.706L100.18 122.708L101.527 126.854L98 124.292L94.4733 126.854L95.8204 122.708L92.2937 120.146H96.6529L98 116Z" fill="#1C1E53"/>
<path d="M304 217L305.347 221.146H309.706L306.18 223.708L307.527 227.854L304 225.292L300.473 227.854L301.82 223.708L298.294 221.146H302.653L304 217Z" fill="#1C1E53"/>
<path d="M376 106L377.347 110.146H381.706L378.18 112.708L379.527 116.854L376 114.292L372.473 116.854L373.82 112.708L370.294 110.146H374.653L376 106Z" fill="#1C1E53"/>
<path d="M101 384L102.347 388.146H106.706L103.18 390.708L104.527 394.854L101 392.292L97.4733 394.854L98.8204 390.708L95.2937 388.146H99.6529L101 384Z" fill="#1C1E53"/>
<path d="M70 335L71.3471 339.146H75.7063L72.1796 341.708L73.5267 345.854L70 343.292L66.4733 345.854L67.8204 341.708L64.2937 339.146H68.6529L70 335Z" fill="#1C1E53"/>
<path d="M86 108L87.3471 112.146H91.7063L88.1796 114.708L89.5267 118.854L86 116.292L82.4733 118.854L83.8204 114.708L80.2937 112.146H84.6529L86 108Z" fill="#1C1E53"/>
<path d="M304 204L305.347 208.146H309.706L306.18 210.708L307.527 214.854L304 212.292L300.473 214.854L301.82 210.708L298.294 208.146H302.653L304 204Z" fill="#1C1E53"/>
<path d="M315 204L316.347 208.146H320.706L317.18 210.708L318.527 214.854L315 212.292L311.473 214.854L312.82 210.708L309.294 208.146H313.653L315 204Z" fill="#1C1E53"/>
<path d="M326 204L327.347 208.146H331.706L328.18 210.708L329.527 214.854L326 212.292L322.473 214.854L323.82 210.708L320.294 208.146H324.653L326 204Z" fill="#1C1E53"/>
<path d="M337 204L338.347 208.146H342.706L339.18 210.708L340.527 214.854L337 212.292L333.473 214.854L334.82 210.708L331.294 208.146H335.653L337 204Z" fill="#1C1E53"/>
<path d="M348 204L349.347 208.146H353.706L350.18 210.708L351.527 214.854L348 212.292L344.473 214.854L345.82 210.708L342.294 208.146H346.653L348 204Z" fill="#1C1E53"/>
<path d="M348 216L349.347 220.146H353.706L350.18 222.708L351.527 226.854L348 224.292L344.473 226.854L345.82 222.708L342.294 220.146H346.653L348 216Z" fill="#1C1E53"/>
<path d="M420 105L421.347 109.146H425.706L422.18 111.708L423.527 115.854L420 113.292L416.473 115.854L417.82 111.708L414.294 109.146H418.653L420 105Z" fill="#1C1E53"/>
<path d="M145 383L146.347 387.146H150.706L147.18 389.708L148.527 393.854L145 391.292L141.473 393.854L142.82 389.708L139.294 387.146H143.653L145 383Z" fill="#1C1E53"/>
<path d="M114 334L115.347 338.146H119.706L116.18 340.708L117.527 344.854L114 342.292L110.473 344.854L111.82 340.708L108.294 338.146H112.653L114 334Z" fill="#1C1E53"/>
<path d="M130 107L131.347 111.146H135.706L132.18 113.708L133.527 117.854L130 115.292L126.473 117.854L127.82 113.708L124.294 111.146H128.653L130 107Z" fill="#1C1E53"/>
<path d="M363 228L364.347 232.146H368.706L365.18 234.708L366.527 238.854L363 236.292L359.473 238.854L360.82 234.708L357.294 232.146H361.653L363 228Z" fill="#1C1E53"/>
<path d="M435 117L436.347 121.146H440.706L437.18 123.708L438.527 127.854L435 125.292L431.473 127.854L432.82 123.708L429.294 121.146H433.653L435 117Z" fill="#1C1E53"/>
<path d="M160 395L161.347 399.146H165.706L162.18 401.708L163.527 405.854L160 403.292L156.473 405.854L157.82 401.708L154.294 399.146H158.653L160 395Z" fill="#1C1E53"/>
<path d="M129 346L130.347 350.146H134.706L131.18 352.708L132.527 356.854L129 354.292L125.473 356.854L126.82 352.708L123.294 350.146H127.653L129 346Z" fill="#1C1E53"/>
<path d="M145 119L146.347 123.146H150.706L147.18 125.708L148.527 129.854L145 127.292L141.473 129.854L142.82 125.708L139.294 123.146H143.653L145 119Z" fill="#1C1E53"/>
<path d="M387 228L388.347 232.146H392.706L389.18 234.708L390.527 238.854L387 236.292L383.473 238.854L384.82 234.708L381.294 232.146H385.653L387 228Z" fill="#1C1E53"/>
<path d="M398 216L399.347 220.146H403.706L400.18 222.708L401.527 226.854L398 224.292L394.473 226.854L395.82 222.708L392.294 220.146H396.653L398 216Z" fill="#1C1E53"/>
<path d="M375 217L376.347 221.146H380.706L377.18 223.708L378.527 227.854L375 225.292L371.473 227.854L372.82 223.708L369.294 221.146H373.653L375 217Z" fill="#1C1E53"/>
<path d="M387 204L388.347 208.146H392.706L389.18 210.708L390.527 214.854L387 212.292L383.473 214.854L384.82 210.708L381.294 208.146H385.653L387 204Z" fill="#1C1E53"/>
<path d="M387 192L388.347 196.146H392.706L389.18 198.708L390.527 202.854L387 200.292L383.473 202.854L384.82 198.708L381.294 196.146H385.653L387 192Z" fill="#1C1E53"/>
<path d="M387 180L388.347 184.146H392.706L389.18 186.708L390.527 190.854L387 188.292L383.473 190.854L384.82 186.708L381.294 184.146H385.653L387 180Z" fill="#1C1E53"/>
<path d="M387 168L388.347 172.146H392.706L389.18 174.708L390.527 178.854L387 176.292L383.473 178.854L384.82 174.708L381.294 172.146H385.653L387 168Z" fill="#1C1E53"/>
<path d="M387 156L388.347 160.146H392.706L389.18 162.708L390.527 166.854L387 164.292L383.473 166.854L384.82 162.708L381.294 160.146H385.653L387 156Z" fill="#1C1E53"/>
<path d="M422 228L423.347 232.146H427.706L424.18 234.708L425.527 238.854L422 236.292L418.473 238.854L419.82 234.708L416.294 232.146H420.653L422 228Z" fill="#1C1E53"/>
<path d="M422 216L423.347 220.146H427.706L424.18 222.708L425.527 226.854L422 224.292L418.473 226.854L419.82 222.708L416.294 220.146H420.653L422 216Z" fill="#1C1E53"/>
<path d="M410 205L411.347 209.146H415.706L412.18 211.708L413.527 215.854L410 213.292L406.473 215.854L407.82 211.708L404.294 209.146H408.653L410 205Z" fill="#1C1E53"/>
<path d="M422 193L423.347 197.146H427.706L424.18 199.708L425.527 203.854L422 201.292L418.473 203.854L419.82 199.708L416.294 197.146H420.653L422 193Z" fill="#1C1E53"/>
<path d="M363 275L364.347 279.146H368.706L365.18 281.708L366.527 285.854L363 283.292L359.473 285.854L360.82 281.708L357.294 279.146H361.653L363 275Z" fill="#1C1E53"/>
<path d="M387 275L388.347 279.146H392.706L389.18 281.708L390.527 285.854L387 283.292L383.473 285.854L384.82 281.708L381.294 279.146H385.653L387 275Z" fill="#1C1E53"/>
<path d="M387 263L388.347 267.146H392.706L389.18 269.708L390.527 273.854L387 271.292L383.473 273.854L384.82 269.708L381.294 267.146H385.653L387 263Z" fill="#1C1E53"/>
<path d="M375 263L376.347 267.146H380.706L377.18 269.708L378.527 273.854L375 271.292L371.473 273.854L372.82 269.708L369.294 267.146H373.653L375 263Z" fill="#1C1E53"/>
<path d="M387 252L388.347 256.146H392.706L389.18 258.708L390.527 262.854L387 260.292L383.473 262.854L384.82 258.708L381.294 256.146H385.653L387 252Z" fill="#1C1E53"/>
<path d="M410 252L411.347 256.146H415.706L412.18 258.708L413.527 262.854L410 260.292L406.473 262.854L407.82 258.708L404.294 256.146H408.653L410 252Z" fill="#1C1E53"/>
<path d="M363 252L364.347 256.146H368.706L365.18 258.708L366.527 262.854L363 260.292L359.473 262.854L360.82 258.708L357.294 256.146H361.653L363 252Z" fill="#1C1E53"/>
<path d="M375 239L376.347 243.146H380.706L377.18 245.708L378.527 249.854L375 247.292L371.473 249.854L372.82 245.708L369.294 243.146H373.653L375 239Z" fill="#1C1E53"/>
<path d="M386 239L387.347 243.146H391.706L388.18 245.708L389.527 249.854L386 247.292L382.473 249.854L383.82 245.708L380.294 243.146H384.653L386 239Z" fill="#1C1E53"/>
<path d="M398 239L399.347 243.146H403.706L400.18 245.708L401.527 249.854L398 247.292L394.473 249.854L395.82 245.708L392.294 243.146H396.653L398 239Z" fill="#1C1E53"/>
<path d="M410 239L411.347 243.146H415.706L412.18 245.708L413.527 249.854L410 247.292L406.473 249.854L407.82 245.708L404.294 243.146H408.653L410 239Z" fill="#1C1E53"/>
<path d="M375 346L376.347 350.146H380.706L377.18 352.708L378.527 356.854L375 354.292L371.473 356.854L372.82 352.708L369.294 350.146H373.653L375 346Z" fill="#1C1E53"/>
<path d="M363 346L364.347 350.146H368.706L365.18 352.708L366.527 356.854L363 354.292L359.473 356.854L360.82 352.708L357.294 350.146H361.653L363 346Z" fill="#1C1E53"/>
<path d="M351 346L352.347 350.146H356.706L353.18 352.708L354.527 356.854L351 354.292L347.473 356.854L348.82 352.708L345.294 350.146H349.653L351 346Z" fill="#1C1E53"/>
<path d="M339 346L340.347 350.146H344.706L341.18 352.708L342.527 356.854L339 354.292L335.473 356.854L336.82 352.708L333.294 350.146H337.653L339 346Z" fill="#1C1E53"/>
<path d="M327 346L328.347 350.146H332.706L329.18 352.708L330.527 356.854L327 354.292L323.473 356.854L324.82 352.708L321.294 350.146H325.653L327 346Z" fill="#1C1E53"/>
<path d="M315 346L316.347 350.146H320.706L317.18 352.708L318.527 356.854L315 354.292L311.473 356.854L312.82 352.708L309.294 350.146H313.653L315 346Z" fill="#1C1E53"/>
<path d="M352 323L353.347 327.146H357.706L354.18 329.708L355.527 333.854L352 331.292L348.473 333.854L349.82 329.708L346.294 327.146H350.653L352 323Z" fill="#1C1E53"/>
<path d="M375 323L376.347 327.146H380.706L377.18 329.708L378.527 333.854L375 331.292L371.473 333.854L372.82 329.708L369.294 327.146H373.653L375 323Z" fill="#1C1E53"/>
<path d="M282 300L283.347 304.146H287.706L284.18 306.708L285.527 310.854L282 308.292L278.473 310.854L279.82 306.708L276.294 304.146H280.653L282 300Z" fill="#1C1E53"/>
<path d="M294 312L295.347 316.146H299.706L296.18 318.708L297.527 322.854L294 320.292L290.473 322.854L291.82 318.708L288.294 316.146H292.653L294 312Z" fill="#1C1E53"/>
<path d="M294 300L295.347 304.146H299.706L296.18 306.708L297.527 310.854L294 308.292L290.473 310.854L291.82 306.708L288.294 304.146H292.653L294 300Z" fill="#1C1E53"/>
<path d="M281 275L282.347 279.146H286.706L283.18 281.708L284.527 285.854L281 283.292L277.473 285.854L278.82 281.708L275.294 279.146H279.653L281 275Z" fill="#1C1E53"/>
<path d="M269 287L270.347 291.146H274.706L271.18 293.708L272.527 297.854L269 295.292L265.473 297.854L266.82 293.708L263.294 291.146H267.653L269 287Z" fill="#1C1E53"/>
<path d="M281 287L282.347 291.146H286.706L283.18 293.708L284.527 297.854L281 295.292L277.473 297.854L278.82 293.708L275.294 291.146H279.653L281 287Z" fill="#1C1E53"/>
<path d="M234 181L235.347 185.146H239.706L236.18 187.708L237.527 191.854L234 189.292L230.473 191.854L231.82 187.708L228.294 185.146H232.653L234 181Z" fill="#1C1E53"/>
<path d="M246 181L247.347 185.146H251.706L248.18 187.708L249.527 191.854L246 189.292L242.473 191.854L243.82 187.708L240.294 185.146H244.653L246 181Z" fill="#1C1E53"/>
<path d="M258 181L259.347 185.146H263.706L260.18 187.708L261.527 191.854L258 189.292L254.473 191.854L255.82 187.708L252.294 185.146H256.653L258 181Z" fill="#1C1E53"/>
<path d="M280 181L281.347 185.146H285.706L282.18 187.708L283.527 191.854L280 189.292L276.473 191.854L277.82 187.708L274.294 185.146H278.653L280 181Z" fill="#1C1E53"/>
<path d="M292 181L293.347 185.146H297.706L294.18 187.708L295.527 191.854L292 189.292L288.473 191.854L289.82 187.708L286.294 185.146H290.653L292 181Z" fill="#1C1E53"/>
<path d="M304 181L305.347 185.146H309.706L306.18 187.708L307.527 191.854L304 189.292L300.473 191.854L301.82 187.708L298.294 185.146H302.653L304 181Z" fill="#1C1E53"/>
<path d="M234 169L235.347 173.146H239.706L236.18 175.708L237.527 179.854L234 177.292L230.473 179.854L231.82 175.708L228.294 173.146H232.653L234 169Z" fill="#1C1E53"/>
<path d="M234 157L235.347 161.146H239.706L236.18 163.708L237.527 167.854L234 165.292L230.473 167.854L231.82 163.708L228.294 161.146H232.653L234 157Z" fill="#1C1E53"/>
<path d="M246 169L247.347 173.146H251.706L248.18 175.708L249.527 179.854L246 177.292L242.473 179.854L243.82 175.708L240.294 173.146H244.653L246 169Z" fill="#1C1E53"/>
<path d="M246 157L247.347 161.146H251.706L248.18 163.708L249.527 167.854L246 165.292L242.473 167.854L243.82 163.708L240.294 161.146H244.653L246 157Z" fill="#1C1E53"/>
<path d="M198 147L199.347 151.146H203.706L200.18 153.708L201.527 157.854L198 155.292L194.473 157.854L195.82 153.708L192.294 151.146H196.653L198 147Z" fill="#1C1E53"/>
<path d="M186 135L187.347 139.146H191.706L188.18 141.708L189.527 145.854L186 143.292L182.473 145.854L183.82 141.708L180.294 139.146H184.653L186 135Z" fill="#1C1E53"/>
<path d="M163 158L164.347 162.146H168.706L165.18 164.708L166.527 168.854L163 166.292L159.473 168.854L160.82 164.708L157.294 162.146H161.653L163 158Z" fill="#1C1E53"/>
<path d="M175 158L176.347 162.146H180.706L177.18 164.708L178.527 168.854L175 166.292L171.473 168.854L172.82 164.708L169.294 162.146H173.653L175 158Z" fill="#1C1E53"/>
<path d="M187 169L188.347 173.146H192.706L189.18 175.708L190.527 179.854L187 177.292L183.473 179.854L184.82 175.708L181.294 173.146H185.653L187 169Z" fill="#1C1E53"/>
<path d="M187 182L188.347 186.146H192.706L189.18 188.708L190.527 192.854L187 190.292L183.473 192.854L184.82 188.708L181.294 186.146H185.653L187 182Z" fill="#1C1E53"/>
<path d="M175 192L176.347 196.146H180.706L177.18 198.708L178.527 202.854L175 200.292L171.473 202.854L172.82 198.708L169.294 196.146H173.653L175 192Z" fill="#1C1E53"/>
<path d="M199 192L200.347 196.146H204.706L201.18 198.708L202.527 202.854L199 200.292L195.473 202.854L196.82 198.708L193.294 196.146H197.653L199 192Z" fill="#1C1E53"/>
<path d="M163 182L164.347 186.146H168.706L165.18 188.708L166.527 192.854L163 190.292L159.473 192.854L160.82 188.708L157.294 186.146H161.653L163 182Z" fill="#1C1E53"/>
<path d="M152 193L153.347 197.146H157.706L154.18 199.708L155.527 203.854L152 201.292L148.473 203.854L149.82 199.708L146.294 197.146H150.653L152 193Z" fill="#1C1E53"/>
<path d="M117 193L118.347 197.146H122.706L119.18 199.708L120.527 203.854L117 201.292L113.473 203.854L114.82 199.708L111.294 197.146H115.653L117 193Z" fill="#1C1E53"/>
<path d="M92 193L93.3471 197.146H97.7063L94.1796 199.708L95.5267 203.854L92 201.292L88.4733 203.854L89.8204 199.708L86.2937 197.146H90.6529L92 193Z" fill="#1C1E53"/>
<path d="M105 216L106.347 220.146H110.706L107.18 222.708L108.527 226.854L105 224.292L101.473 226.854L102.82 222.708L99.2937 220.146H103.653L105 216Z" fill="#1C1E53"/>
<path d="M93 227L94.3471 231.146H98.7063L95.1796 233.708L96.5267 237.854L93 235.292L89.4733 237.854L90.8204 233.708L87.2937 231.146H91.6529L93 227Z" fill="#1C1E53"/>
<path d="M92 240L93.3471 244.146H97.7063L94.1796 246.708L95.5267 250.854L92 248.292L88.4733 250.854L89.8204 246.708L86.2937 244.146H90.6529L92 240Z" fill="#1C1E53"/>
<path d="M103 240L104.347 244.146H108.706L105.18 246.708L106.527 250.854L103 248.292L99.4733 250.854L100.82 246.708L97.2937 244.146H101.653L103 240Z" fill="#1C1E53"/>
<path d="M114 240L115.347 244.146H119.706L116.18 246.708L117.527 250.854L114 248.292L110.473 250.854L111.82 246.708L108.294 244.146H112.653L114 240Z" fill="#1C1E53"/>
<path d="M127 228L128.347 232.146H132.706L129.18 234.708L130.527 238.854L127 236.292L123.473 238.854L124.82 234.708L121.294 232.146H125.653L127 228Z" fill="#1C1E53"/>
<path d="M140 217L141.347 221.146H145.706L142.18 223.708L143.527 227.854L140 225.292L136.473 227.854L137.82 223.708L134.294 221.146H138.653L140 217Z" fill="#1C1E53"/>
<path d="M152 217L153.347 221.146H157.706L154.18 223.708L155.527 227.854L152 225.292L148.473 227.854L149.82 223.708L146.294 221.146H150.653L152 217Z" fill="#1C1E53"/>
<path d="M152 229L153.347 233.146H157.706L154.18 235.708L155.527 239.854L152 237.292L148.473 239.854L149.82 235.708L146.294 233.146H150.653L152 229Z" fill="#1C1E53"/>
<path d="M152 241L153.347 245.146H157.706L154.18 247.708L155.527 251.854L152 249.292L148.473 251.854L149.82 247.708L146.294 245.146H150.653L152 241Z" fill="#1C1E53"/>
<path d="M152 252L153.347 256.146H157.706L154.18 258.708L155.527 262.854L152 260.292L148.473 262.854L149.82 258.708L146.294 256.146H150.653L152 252Z" fill="#1C1E53"/>
<path d="M140 263L141.347 267.146H145.706L142.18 269.708L143.527 273.854L140 271.292L136.473 273.854L137.82 269.708L134.294 267.146H138.653L140 263Z" fill="#1C1E53"/>
<path d="M129 263L130.347 267.146H134.706L131.18 269.708L132.527 273.854L129 271.292L125.473 273.854L126.82 269.708L123.294 267.146H127.653L129 263Z" fill="#1C1E53"/>
<path d="M117 263L118.347 267.146H122.706L119.18 269.708L120.527 273.854L117 271.292L113.473 273.854L114.82 269.708L111.294 267.146H115.653L117 263Z" fill="#1C1E53"/>
<path d="M93 262L94.3471 266.146H98.7063L95.1796 268.708L96.5267 272.854L93 270.292L89.4733 272.854L90.8204 268.708L87.2937 266.146H91.6529L93 262Z" fill="#1C1E53"/>
<path d="M93 276L94.3471 280.146H98.7063L95.1796 282.708L96.5267 286.854L93 284.292L89.4733 286.854L90.8204 282.708L87.2937 280.146H91.6529L93 276Z" fill="#1C1E53"/>
<path d="M93 288L94.3471 292.146H98.7063L95.1796 294.708L96.5267 298.854L93 296.292L89.4733 298.854L90.8204 294.708L87.2937 292.146H91.6529L93 288Z" fill="#1C1E53"/>
<path d="M105 288L106.347 292.146H110.706L107.18 294.708L108.527 298.854L105 296.292L101.473 298.854L102.82 294.708L99.2937 292.146H103.653L105 288Z" fill="#1C1E53"/>
<path d="M127 288L128.347 292.146H132.706L129.18 294.708L130.527 298.854L127 296.292L123.473 298.854L124.82 294.708L121.294 292.146H125.653L127 288Z" fill="#1C1E53"/>
<path d="M140 288L141.347 292.146H145.706L142.18 294.708L143.527 298.854L140 296.292L136.473 298.854L137.82 294.708L134.294 292.146H138.653L140 288Z" fill="#1C1E53"/>
<path d="M140 299L141.347 303.146H145.706L142.18 305.708L143.527 309.854L140 307.292L136.473 309.854L137.82 305.708L134.294 303.146H138.653L140 299Z" fill="#1C1E53"/>
<path d="M128 299L129.347 303.146H133.706L130.18 305.708L131.527 309.854L128 307.292L124.473 309.854L125.82 305.708L122.294 303.146H126.653L128 299Z" fill="#1C1E53"/>
<path d="M117 299L118.347 303.146H122.706L119.18 305.708L120.527 309.854L117 307.292L113.473 309.854L114.82 305.708L111.294 303.146H115.653L117 299Z" fill="#1C1E53"/>
<path d="M104 299L105.347 303.146H109.706L106.18 305.708L107.527 309.854L104 307.292L100.473 309.854L101.82 305.708L98.2937 303.146H102.653L104 299Z" fill="#1C1E53"/>
<path d="M93 299L94.3471 303.146H98.7063L95.1796 305.708L96.5267 309.854L93 307.292L89.4733 309.854L90.8204 305.708L87.2937 303.146H91.6529L93 299Z" fill="#1C1E53"/>
<path d="M105 276L106.347 280.146H110.706L107.18 282.708L108.527 286.854L105 284.292L101.473 286.854L102.82 282.708L99.2937 280.146H103.653L105 276Z" fill="#1C1E53"/>
<path d="M117 276L118.347 280.146H122.706L119.18 282.708L120.527 286.854L117 284.292L113.473 286.854L114.82 282.708L111.294 280.146H115.653L117 276Z" fill="#1C1E53"/>
<path d="M129 276L130.347 280.146H134.706L131.18 282.708L132.527 286.854L129 284.292L125.473 286.854L126.82 282.708L123.294 280.146H127.653L129 276Z" fill="#1C1E53"/>
<path d="M165 252L166.347 256.146H170.706L167.18 258.708L168.527 262.854L165 260.292L161.473 262.854L162.82 258.708L159.294 256.146H163.653L165 252Z" fill="#1C1E53"/>
<path d="M175 264L176.347 268.146H180.706L177.18 270.708L178.527 274.854L175 272.292L171.473 274.854L172.82 270.708L169.294 268.146H173.653L175 264Z" fill="#1C1E53"/>
<path d="M164 274L165.347 278.146H169.706L166.18 280.708L167.527 284.854L164 282.292L160.473 284.854L161.82 280.708L158.294 278.146H162.653L164 274Z" fill="#1C1E53"/>
<path d="M164 298L165.347 302.146H169.706L166.18 304.708L167.527 308.854L164 306.292L160.473 308.854L161.82 304.708L158.294 302.146H162.653L164 298Z" fill="#1C1E53"/>
<path d="M140 241L141.347 245.146H145.706L142.18 247.708L143.527 251.854L140 249.292L136.473 251.854L137.82 247.708L134.294 245.146H138.653L140 241Z" fill="#1C1E53"/>
<path d="M163 229L164.347 233.146H168.706L165.18 235.708L166.527 239.854L163 237.292L159.473 239.854L160.82 235.708L157.294 233.146H161.653L163 229Z" fill="#1C1E53"/>
<path d="M175 240L176.347 244.146H180.706L177.18 246.708L178.527 250.854L175 248.292L171.473 250.854L172.82 246.708L169.294 244.146H173.653L175 240Z" fill="#1C1E53"/>
<path d="M163 205L164.347 209.146H168.706L165.18 211.708L166.527 215.854L163 213.292L159.473 215.854L160.82 211.708L157.294 209.146H161.653L163 205Z" fill="#1C1E53"/>
<path d="M187 205L188.347 209.146H192.706L189.18 211.708L190.527 215.854L187 213.292L183.473 215.854L184.82 211.708L181.294 209.146H185.653L187 205Z" fill="#1C1E53"/>
<path d="M187 216L188.347 220.146H192.706L189.18 222.708L190.527 226.854L187 224.292L183.473 226.854L184.82 222.708L181.294 220.146H185.653L187 216Z" fill="#1C1E53"/>
<path d="M187 229L188.347 233.146H192.706L189.18 235.708L190.527 239.854L187 237.292L183.473 239.854L184.82 235.708L181.294 233.146H185.653L187 229Z" fill="#1C1E53"/>
<path d="M128 157L129.347 161.146H133.706L130.18 163.708L131.527 167.854L128 165.292L124.473 167.854L125.82 163.708L122.294 161.146H126.653L128 157Z" fill="#1C1E53"/>
<path d="M140 157L141.347 161.146H145.706L142.18 163.708L143.527 167.854L140 165.292L136.473 167.854L137.82 163.708L134.294 161.146H138.653L140 157Z" fill="#1C1E53"/>
<path d="M128 170L129.347 174.146H133.706L130.18 176.708L131.527 180.854L128 178.292L124.473 180.854L125.82 176.708L122.294 174.146H126.653L128 170Z" fill="#1C1E53"/>
<path d="M140 170L141.347 174.146H145.706L142.18 176.708L143.527 180.854L140 178.292L136.473 180.854L137.82 176.708L134.294 174.146H138.653L140 170Z" fill="#1C1E53"/>
<path d="M128 181L129.347 185.146H133.706L130.18 187.708L131.527 191.854L128 189.292L124.473 191.854L125.82 187.708L122.294 185.146H126.653L128 181Z" fill="#1C1E53"/>
<path d="M140 181L141.347 185.146H145.706L142.18 187.708L143.527 191.854L140 189.292L136.473 191.854L137.82 187.708L134.294 185.146H138.653L140 181Z" fill="#1C1E53"/>
<path d="M210 63L211.347 67.1459H215.706L212.18 69.7082L213.527 73.8541L210 71.2918L206.473 73.8541L207.82 69.7082L204.294 67.1459H208.653L210 63Z" fill="#1C1E53"/>
<path d="M222 63L223.347 67.1459H227.706L224.18 69.7082L225.527 73.8541L222 71.2918L218.473 73.8541L219.82 69.7082L216.294 67.1459H220.653L222 63Z" fill="#1C1E53"/>
<path d="M234 63L235.347 67.1459H239.706L236.18 69.7082L237.527 73.8541L234 71.2918L230.473 73.8541L231.82 69.7082L228.294 67.1459H232.653L234 63Z" fill="#1C1E53"/>
<path d="M258 63L259.347 67.1459H263.706L260.18 69.7082L261.527 73.8541L258 71.2918L254.473 73.8541L255.82 69.7082L252.294 67.1459H256.653L258 63Z" fill="#1C1E53"/>
<path d="M270 63L271.347 67.1459H275.706L272.18 69.7082L273.527 73.8541L270 71.2918L266.473 73.8541L267.82 69.7082L264.294 67.1459H268.653L270 63Z" fill="#1C1E53"/>
<path d="M282 63L283.347 67.1459H287.706L284.18 69.7082L285.527 73.8541L282 71.2918L278.473 73.8541L279.82 69.7082L276.294 67.1459H280.653L282 63Z" fill="#1C1E53"/>
<path d="M282 75L283.347 79.1459H287.706L284.18 81.7082L285.527 85.8541L282 83.2918L278.473 85.8541L279.82 81.7082L276.294 79.1459H280.653L282 75Z" fill="#1C1E53"/>
<path d="M282 87L283.347 91.1459H287.706L284.18 93.7082L285.527 97.8541L282 95.2918L278.473 97.8541L279.82 93.7082L276.294 91.1459H280.653L282 87Z" fill="#1C1E53"/>
<path d="M306 87L307.347 91.1459H311.706L308.18 93.7082L309.527 97.8541L306 95.2918L302.473 97.8541L303.82 93.7082L300.294 91.1459H304.653L306 87Z" fill="#1C1E53"/>
<path d="M292 99L293.347 103.146H297.706L294.18 105.708L295.527 109.854L292 107.292L288.473 109.854L289.82 105.708L286.294 103.146H290.653L292 99Z" fill="#1C1E53"/>
<path d="M318 99L319.347 103.146H323.706L320.18 105.708L321.527 109.854L318 107.292L314.473 109.854L315.82 105.708L312.294 103.146H316.653L318 99Z" fill="#1C1E53"/>
<path d="M258 87L259.347 91.1459H263.706L260.18 93.7082L261.527 97.8541L258 95.2918L254.473 97.8541L255.82 93.7082L252.294 91.1459H256.653L258 87Z" fill="#1C1E53"/>
<path d="M294 63L295.347 67.1459H299.706L296.18 69.7082L297.527 73.8541L294 71.2918L290.473 73.8541L291.82 69.7082L288.294 67.1459H292.653L294 63Z" fill="#1C1E53"/>
<path d="M306 63L307.347 67.1459H311.706L308.18 69.7082L309.527 73.8541L306 71.2918L302.473 73.8541L303.82 69.7082L300.294 67.1459H304.653L306 63Z" fill="#1C1E53"/>
<path d="M318 63L319.347 67.1459H323.706L320.18 69.7082L321.527 73.8541L318 71.2918L314.473 73.8541L315.82 69.7082L312.294 67.1459H316.653L318 63Z" fill="#1C1E53"/>
<path d="M327 75L328.347 79.1459H332.706L329.18 81.7082L330.527 85.8541L327 83.2918L323.473 85.8541L324.82 81.7082L321.294 79.1459H325.653L327 75Z" fill="#1C1E53"/>
<path d="M327 87L328.347 91.1459H332.706L329.18 93.7082L330.527 97.8541L327 95.2918L323.473 97.8541L324.82 93.7082L321.294 91.1459H325.653L327 87Z" fill="#1C1E53"/>
<path d="M234 75L235.347 79.1459H239.706L236.18 81.7082L237.527 85.8541L234 83.2918L230.473 85.8541L231.82 81.7082L228.294 79.1459H232.653L234 75Z" fill="#1C1E53"/>
<path d="M234 87L235.347 91.1459H239.706L236.18 93.7082L237.527 97.8541L234 95.2918L230.473 97.8541L231.82 93.7082L228.294 91.1459H232.653L234 87Z" fill="#1C1E53"/>
<path d="M234 99L235.347 103.146H239.706L236.18 105.708L237.527 109.854L234 107.292L230.473 109.854L231.82 105.708L228.294 103.146H232.653L234 99Z" fill="#1C1E53"/>
<path d="M234 111L235.347 115.146H239.706L236.18 117.708L237.527 121.854L234 119.292L230.473 121.854L231.82 117.708L228.294 115.146H232.653L234 111Z" fill="#1C1E53"/>
<path d="M246 111L247.347 115.146H251.706L248.18 117.708L249.527 121.854L246 119.292L242.473 121.854L243.82 117.708L240.294 115.146H244.653L246 111Z" fill="#1C1E53"/>
<path d="M246 123L247.347 127.146H251.706L248.18 129.708L249.527 133.854L246 131.292L242.473 133.854L243.82 129.708L240.294 127.146H244.653L246 123Z" fill="#1C1E53"/>
<path d="M234 135L235.347 139.146H239.706L236.18 141.708L237.527 145.854L234 143.292L230.473 145.854L231.82 141.708L228.294 139.146H232.653L234 135Z" fill="#1C1E53"/>
<path d="M258 135L259.347 139.146H263.706L260.18 141.708L261.527 145.854L258 143.292L254.473 145.854L255.82 141.708L252.294 139.146H256.653L258 135Z" fill="#1C1E53"/>
<path d="M258 147L259.347 151.146H263.706L260.18 153.708L261.527 157.854L258 155.292L254.473 157.854L255.82 153.708L252.294 151.146H256.653L258 147Z" fill="#1C1E53"/>
<path d="M282 135L283.347 139.146H287.706L284.18 141.708L285.527 145.854L282 143.292L278.473 145.854L279.82 141.708L276.294 139.146H280.653L282 135Z" fill="#1C1E53"/>
<path d="M282 147L283.347 151.146H287.706L284.18 153.708L285.527 157.854L282 155.292L278.473 157.854L279.82 153.708L276.294 151.146H280.653L282 147Z" fill="#1C1E53"/>
<path d="M281 158L282.347 162.146H286.706L283.18 164.708L284.527 168.854L281 166.292L277.473 168.854L278.82 164.708L275.294 162.146H279.653L281 158Z" fill="#1C1E53"/>
<path d="M304 158L305.347 162.146H309.706L306.18 164.708L307.527 168.854L304 166.292L300.473 168.854L301.82 164.708L298.294 162.146H302.653L304 158Z" fill="#1C1E53"/>
<path d="M293 170L294.347 174.146H298.706L295.18 176.708L296.527 180.854L293 178.292L289.473 180.854L290.82 176.708L287.294 174.146H291.653L293 170Z" fill="#1C1E53"/>
<path d="M328 158L329.347 162.146H333.706L330.18 164.708L331.527 168.854L328 166.292L324.473 168.854L325.82 164.708L322.294 162.146H326.653L328 158Z" fill="#1C1E53"/>
<path d="M328 170L329.347 174.146H333.706L330.18 176.708L331.527 180.854L328 178.292L324.473 180.854L325.82 176.708L322.294 174.146H326.653L328 170Z" fill="#1C1E53"/>
<path d="M340 182L341.347 186.146H345.706L342.18 188.708L343.527 192.854L340 190.292L336.473 192.854L337.82 188.708L334.294 186.146H338.653L340 182Z" fill="#1C1E53"/>
<path d="M352 182L353.347 186.146H357.706L354.18 188.708L355.527 192.854L352 190.292L348.473 192.854L349.82 188.708L346.294 186.146H350.653L352 182Z" fill="#1C1E53"/>
<path d="M363 193L364.347 197.146H368.706L365.18 199.708L366.527 203.854L363 201.292L359.473 203.854L360.82 199.708L357.294 197.146H361.653L363 193Z" fill="#1C1E53"/>
<path d="M375 193L376.347 197.146H380.706L377.18 199.708L378.527 203.854L375 201.292L371.473 203.854L372.82 199.708L369.294 197.146H373.653L375 193Z" fill="#1C1E53"/>
<path d="M362 168L363.347 172.146H367.706L364.18 174.708L365.527 178.854L362 176.292L358.473 178.854L359.82 174.708L356.294 172.146H360.653L362 168Z" fill="#1C1E53"/>
<path d="M375 168L376.347 172.146H380.706L377.18 174.708L378.527 178.854L375 176.292L371.473 178.854L372.82 174.708L369.294 172.146H373.653L375 168Z" fill="#1C1E53"/>
<path d="M410 168L411.347 172.146H415.706L412.18 174.708L413.527 178.854L410 176.292L406.473 178.854L407.82 174.708L404.294 172.146H408.653L410 168Z" fill="#1C1E53"/>
<path d="M399 156L400.347 160.146H404.706L401.18 162.708L402.527 166.854L399 164.292L395.473 166.854L396.82 162.708L393.294 160.146H397.653L399 156Z" fill="#1C1E53"/>
<path d="M306 135L307.347 139.146H311.706L308.18 141.708L309.527 145.854L306 143.292L302.473 145.854L303.82 141.708L300.294 139.146H304.653L306 135Z" fill="#1C1E53"/>
<path d="M330 135L331.347 139.146H335.706L332.18 141.708L333.527 145.854L330 143.292L326.473 145.854L327.82 141.708L324.294 139.146H328.653L330 135Z" fill="#1C1E53"/>
<path d="M258 123L259.347 127.146H263.706L260.18 129.708L261.527 133.854L258 131.292L254.473 133.854L255.82 129.708L252.294 127.146H256.653L258 123Z" fill="#1C1E53"/>
<path d="M270 123L271.347 127.146H275.706L272.18 129.708L273.527 133.854L270 131.292L266.473 133.854L267.82 129.708L264.294 127.146H268.653L270 123Z" fill="#1C1E53"/>
<path d="M282 123L283.347 127.146H287.706L284.18 129.708L285.527 133.854L282 131.292L278.473 133.854L279.82 129.708L276.294 127.146H280.653L282 123Z" fill="#1C1E53"/>
<path d="M294 123L295.347 127.146H299.706L296.18 129.708L297.527 133.854L294 131.292L290.473 133.854L291.82 129.708L288.294 127.146H292.653L294 123Z" fill="#1C1E53"/>
<path d="M306 123L307.347 127.146H311.706L308.18 129.708L309.527 133.854L306 131.292L302.473 133.854L303.82 129.708L300.294 127.146H304.653L306 123Z" fill="#1C1E53"/>
<path d="M258 111L259.347 115.146H263.706L260.18 117.708L261.527 121.854L258 119.292L254.473 121.854L255.82 117.708L252.294 115.146H256.653L258 111Z" fill="#1C1E53"/>
<path d="M270 111L271.347 115.146H275.706L272.18 117.708L273.527 121.854L270 119.292L266.473 121.854L267.82 117.708L264.294 115.146H268.653L270 111Z" fill="#1C1E53"/>
<path d="M282 111L283.347 115.146H287.706L284.18 117.708L285.527 121.854L282 119.292L278.473 121.854L279.82 117.708L276.294 115.146H280.653L282 111Z" fill="#1C1E53"/>
<path d="M294 111L295.347 115.146H299.706L296.18 117.708L297.527 121.854L294 119.292L290.473 121.854L291.82 117.708L288.294 115.146H292.653L294 111Z" fill="#1C1E53"/>
<path d="M306 111L307.347 115.146H311.706L308.18 117.708L309.527 121.854L306 119.292L302.473 121.854L303.82 117.708L300.294 115.146H304.653L306 111Z" fill="#1C1E53"/>
<path d="M318 111L319.347 115.146H323.706L320.18 117.708L321.527 121.854L318 119.292L314.473 121.854L315.82 117.708L312.294 115.146H316.653L318 111Z" fill="#1C1E53"/>
</svg>
