<svg width="500" height="500" viewBox="0 0 500 500" fill="none" xmlns="http://www.w3.org/2000/svg">
<rect width="500" height="500" fill="white"/>
<path d="M154 71.4853L159.657 68.6569L162.485 63L165.314 68.6569L170.971 71.4853L164.96 73.9602L162.485 79.9706L159.657 74.3137L154 71.4853Z" fill="#1C1E53"/>
<path d="M158 94.4853L163.657 91.6569L166.485 86L169.314 91.6569L174.971 94.4853L168.96 96.9602L166.485 102.971L163.657 97.3137L158 94.4853Z" fill="#1C1E53"/>
<path d="M158 111.485L163.657 108.657L166.485 103L169.314 108.657L174.971 111.485L168.96 113.96L166.485 119.971L163.657 114.314L158 111.485Z" fill="#1C1E53"/>
<path d="M175 111.485L180.657 108.657L183.485 103L186.314 108.657L191.971 111.485L185.96 113.96L183.485 119.971L180.657 114.314L175 111.485Z" fill="#1C1E53"/>
<path d="M182 129.485L187.657 126.657L190.485 121L193.314 126.657L198.971 129.485L192.96 131.96L190.485 137.971L187.657 132.314L182 129.485Z" fill="#1C1E53"/>
<path d="M182 146.485L187.657 143.657L190.485 138L193.314 143.657L198.971 146.485L192.96 148.96L190.485 154.971L187.657 149.314L182 146.485Z" fill="#1C1E53"/>
<path d="M182 163.485L187.657 160.657L190.485 155L193.314 160.657L198.971 163.485L192.96 165.96L190.485 171.971L187.657 166.314L182 163.485Z" fill="#1C1E53"/>
<path d="M193 170.485L198.657 167.657L201.485 162L204.314 167.657L209.971 170.485L203.96 172.96L201.485 178.971L198.657 173.314L193 170.485Z" fill="#1C1E53"/>
<path d="M210 170.485L215.657 167.657L218.485 162L221.314 167.657L226.971 170.485L220.96 172.96L218.485 178.971L215.657 173.314L210 170.485Z" fill="#1C1E53"/>
<path d="M210 170.485L215.657 167.657L218.485 162L221.314 167.657L226.971 170.485L220.96 172.96L218.485 178.971L215.657 173.314L210 170.485Z" fill="#1C1E53"/>
<path d="M210 187.485L215.657 184.657L218.485 179L221.314 184.657L226.971 187.485L220.96 189.96L218.485 195.971L215.657 190.314L210 187.485Z" fill="#1C1E53"/>
<path d="M210 204.485L215.657 201.657L218.485 196L221.314 201.657L226.971 204.485L220.96 206.96L218.485 212.971L215.657 207.314L210 204.485Z" fill="#1C1E53"/>
<path d="M227 204.485L232.657 201.657L235.485 196L238.314 201.657L243.971 204.485L237.96 206.96L235.485 212.971L232.657 207.314L227 204.485Z" fill="#1C1E53"/>
<path d="M244 204.485L249.657 201.657L252.485 196L255.314 201.657L260.971 204.485L254.96 206.96L252.485 212.971L249.657 207.314L244 204.485Z" fill="#1C1E53"/>
<path d="M249 191.485L254.657 188.657L257.485 183L260.314 188.657L265.971 191.485L259.96 193.96L257.485 199.971L254.657 194.314L249 191.485Z" fill="#1C1E53"/>
<path d="M328 89.4853L333.657 86.6569L336.485 81L339.314 86.6569L344.971 89.4853L338.96 91.9602L336.485 97.9706L333.657 92.3137L328 89.4853Z" fill="#1C1E53"/>
<path d="M96 342.485L101.657 339.657L104.485 334L107.314 339.657L112.971 342.485L106.96 344.96L104.485 350.971L101.657 345.314L96 342.485Z" fill="#1C1E53"/>
<path d="M94 99.4853L99.6569 96.6569L102.485 91L105.314 96.6569L110.971 99.4853L104.96 101.96L102.485 107.971L99.6569 102.314L94 99.4853Z" fill="#1C1E53"/>
<path d="M266 191.485L271.657 188.657L274.485 183L277.314 188.657L282.971 191.485L276.96 193.96L274.485 199.971L271.657 194.314L266 191.485Z" fill="#1C1E53"/>
<path d="M345 89.4853L350.657 86.6569L353.485 81L356.314 86.6569L361.971 89.4853L355.96 91.9602L353.485 97.9706L350.657 92.3137L345 89.4853Z" fill="#1C1E53"/>
<path d="M113 342.485L118.657 339.657L121.485 334L124.314 339.657L129.971 342.485L123.96 344.96L121.485 350.971L118.657 345.314L113 342.485Z" fill="#1C1E53"/>
<path d="M111 99.4853L116.657 96.6569L119.485 91L122.314 96.6569L127.971 99.4853L121.96 101.96L119.485 107.971L116.657 102.314L111 99.4853Z" fill="#1C1E53"/>
<path d="M283 191.485L288.657 188.657L291.485 183L294.314 188.657L299.971 191.485L293.96 193.96L291.485 199.971L288.657 194.314L283 191.485Z" fill="#1C1E53"/>
<path d="M362 89.4853L367.657 86.6569L370.485 81L373.314 86.6569L378.971 89.4853L372.96 91.9602L370.485 97.9706L367.657 92.3137L362 89.4853Z" fill="#1C1E53"/>
<path d="M130 342.485L135.657 339.657L138.485 334L141.314 339.657L146.971 342.485L140.96 344.96L138.485 350.971L135.657 345.314L130 342.485Z" fill="#1C1E53"/>
<path d="M128 99.4853L133.657 96.6569L136.485 91L139.314 96.6569L144.971 99.4853L138.96 101.96L136.485 107.971L133.657 102.314L128 99.4853Z" fill="#1C1E53"/>
<path d="M194 204.485L199.657 201.657L202.485 196L205.314 201.657L210.971 204.485L204.96 206.96L202.485 212.971L199.657 207.314L194 204.485Z" fill="#1C1E53"/>
<path d="M227 187.485L232.657 184.657L235.485 179L238.314 184.657L243.971 187.485L237.96 189.96L235.485 195.971L232.657 190.314L227 187.485Z" fill="#1C1E53"/>
<path d="M227 170.485L232.657 167.657L235.485 162L238.314 167.657L243.971 170.485L237.96 172.96L235.485 178.971L232.657 173.314L227 170.485Z" fill="#1C1E53"/>
<path d="M165 163.485L170.657 160.657L173.485 155L176.314 160.657L181.971 163.485L175.96 165.96L173.485 171.971L170.657 166.314L165 163.485Z" fill="#1C1E53"/>
<path d="M149 168.485L154.657 165.657L157.485 160L160.314 165.657L165.971 168.485L159.96 170.96L157.485 176.971L154.657 171.314L149 168.485Z" fill="#1C1E53"/>
<path d="M132 168.485L137.657 165.657L140.485 160L143.314 165.657L148.971 168.485L142.96 170.96L140.485 176.971L137.657 171.314L132 168.485Z" fill="#1C1E53"/>
<path d="M111 168.485L116.657 165.657L119.485 160L122.314 165.657L127.971 168.485L121.96 170.96L119.485 176.971L116.657 171.314L111 168.485Z" fill="#1C1E53"/>
<path d="M94 168.485L99.6569 165.657L102.485 160L105.314 165.657L110.971 168.485L104.96 170.96L102.485 176.971L99.6569 171.314L94 168.485Z" fill="#1C1E53"/>
<path d="M94 185.485L99.6569 182.657L102.485 177L105.314 182.657L110.971 185.485L104.96 187.96L102.485 193.971L99.6569 188.314L94 185.485Z" fill="#1C1E53"/>
<path d="M86 204.485L91.6569 201.657L94.4853 196L97.3137 201.657L102.971 204.485L96.9602 206.96L94.4853 212.971L91.6569 207.314L86 204.485Z" fill="#1C1E53"/>
<path d="M63 203.485L68.6569 200.657L71.4853 195L74.3137 200.657L79.9706 203.485L73.9602 205.96L71.4853 211.971L68.6569 206.314L63 203.485Z" fill="#1C1E53"/>
<path d="M75 227.485L80.6569 224.657L83.4853 219L86.3137 224.657L91.9706 227.485L85.9602 229.96L83.4853 235.971L80.6569 230.314L75 227.485Z" fill="#1C1E53"/>
<path d="M63 235.485L68.6569 232.657L71.4853 227L74.3137 232.657L79.9706 235.485L73.9602 237.96L71.4853 243.971L68.6569 238.314L63 235.485Z" fill="#1C1E53"/>
<path d="M63 252.485L68.6569 249.657L71.4853 244L74.3137 249.657L79.9706 252.485L73.9602 254.96L71.4853 260.971L68.6569 255.314L63 252.485Z" fill="#1C1E53"/>
<path d="M63 271.485L68.6569 268.657L71.4853 263L74.3137 268.657L79.9706 271.485L73.9602 273.96L71.4853 279.971L68.6569 274.314L63 271.485Z" fill="#1C1E53"/>
<path d="M80 288.485L85.6569 285.657L88.4853 280L91.3137 285.657L96.9706 288.485L90.9602 290.96L88.4853 296.971L85.6569 291.314L80 288.485Z" fill="#1C1E53"/>
<path d="M80 304.485L85.6569 301.657L88.4853 296L91.3137 301.657L96.9706 304.485L90.9602 306.96L88.4853 312.971L85.6569 307.314L80 304.485Z" fill="#1C1E53"/>
<path d="M97 288.485L102.657 285.657L105.485 280L108.314 285.657L113.971 288.485L107.96 290.96L105.485 296.971L102.657 291.314L97 288.485Z" fill="#1C1E53"/>
<path d="M63 288.485L68.6569 285.657L71.4853 280L74.3137 285.657L79.9706 288.485L73.9602 290.96L71.4853 296.971L68.6569 291.314L63 288.485Z" fill="#1C1E53"/>
<path d="M63 304.485L68.6569 301.657L71.4853 296L74.3137 301.657L79.9706 304.485L73.9602 306.96L71.4853 312.971L68.6569 307.314L63 304.485Z" fill="#1C1E53"/>
<path d="M63 320.485L68.6569 317.657L71.4853 312L74.3137 317.657L79.9706 320.485L73.9602 322.96L71.4853 328.971L68.6569 323.314L63 320.485Z" fill="#1C1E53"/>
<path d="M80 320.485L85.6569 317.657L88.4853 312L91.3137 317.657L96.9706 320.485L90.9602 322.96L88.4853 328.971L85.6569 323.314L80 320.485Z" fill="#1C1E53"/>
<path d="M97 320.485L102.657 317.657L105.485 312L108.314 317.657L113.971 320.485L107.96 322.96L105.485 328.971L102.657 323.314L97 320.485Z" fill="#1C1E53"/>
<path d="M97 304.485L102.657 301.657L105.485 296L108.314 301.657L113.971 304.485L107.96 306.96L105.485 312.971L102.657 307.314L97 304.485Z" fill="#1C1E53"/>
<path d="M114 320.485L119.657 317.657L122.485 312L125.314 317.657L130.971 320.485L124.96 322.96L122.485 328.971L119.657 323.314L114 320.485Z" fill="#1C1E53"/>
<path d="M134 309.485L139.657 306.657L142.485 301L145.314 306.657L150.971 309.485L144.96 311.96L142.485 317.971L139.657 312.314L134 309.485Z" fill="#1C1E53"/>
<path d="M135 287.485L140.657 284.657L143.485 279L146.314 284.657L151.971 287.485L145.96 289.96L143.485 295.971L140.657 290.314L135 287.485Z" fill="#1C1E53"/>
<path d="M147 275.485L152.657 272.657L155.485 267L158.314 272.657L163.971 275.485L157.96 277.96L155.485 283.971L152.657 278.314L147 275.485Z" fill="#1C1E53"/>
<path d="M153 300.485L158.657 297.657L161.485 292L164.314 297.657L169.971 300.485L163.96 302.96L161.485 308.971L158.657 303.314L153 300.485Z" fill="#1C1E53"/>
<path d="M158 322.485L163.657 319.657L166.485 314L169.314 319.657L174.971 322.485L168.96 324.96L166.485 330.971L163.657 325.314L158 322.485Z" fill="#1C1E53"/>
<path d="M158 340.485L163.657 337.657L166.485 332L169.314 337.657L174.971 340.485L168.96 342.96L166.485 348.971L163.657 343.314L158 340.485Z" fill="#1C1E53"/>
<path d="M158 362.485L163.657 359.657L166.485 354L169.314 359.657L174.971 362.485L168.96 364.96L166.485 370.971L163.657 365.314L158 362.485Z" fill="#1C1E53"/>
<path d="M158 378.485L163.657 375.657L166.485 370L169.314 375.657L174.971 378.485L168.96 380.96L166.485 386.971L163.657 381.314L158 378.485Z" fill="#1C1E53"/>
<path d="M170 300.485L175.657 297.657L178.485 292L181.314 297.657L186.971 300.485L180.96 302.96L178.485 308.971L175.657 303.314L170 300.485Z" fill="#1C1E53"/>
<path d="M170 283.485L175.657 280.657L178.485 275L181.314 280.657L186.971 283.485L180.96 285.96L178.485 291.971L175.657 286.314L170 283.485Z" fill="#1C1E53"/>
<path d="M187 300.485L192.657 297.657L195.485 292L198.314 297.657L203.971 300.485L197.96 302.96L195.485 308.971L192.657 303.314L187 300.485Z" fill="#1C1E53"/>
<path d="M187 317.485L192.657 314.657L195.485 309L198.314 314.657L203.971 317.485L197.96 319.96L195.485 325.971L192.657 320.314L187 317.485Z" fill="#1C1E53"/>
<path d="M204 317.485L209.657 314.657L212.485 309L215.314 314.657L220.971 317.485L214.96 319.96L212.485 325.971L209.657 320.314L204 317.485Z" fill="#1C1E53"/>
<path d="M114 303.485L119.657 300.657L122.485 295L125.314 300.657L130.971 303.485L124.96 305.96L122.485 311.971L119.657 306.314L114 303.485Z" fill="#1C1E53"/>
<path d="M63 337.485L68.6569 334.657L71.4853 329L74.3137 334.657L79.9706 337.485L73.9602 339.96L71.4853 345.971L68.6569 340.314L63 337.485Z" fill="#1C1E53"/>
<path d="M80 252.485L85.6569 249.657L88.4853 244L91.3137 249.657L96.9706 252.485L90.9602 254.96L88.4853 260.971L85.6569 255.314L80 252.485Z" fill="#1C1E53"/>
<path d="M97 252.485L102.657 249.657L105.485 244L108.314 249.657L113.971 252.485L107.96 254.96L105.485 260.971L102.657 255.314L97 252.485Z" fill="#1C1E53"/>
<path d="M97 235.485L102.657 232.657L105.485 227L108.314 232.657L113.971 235.485L107.96 237.96L105.485 243.971L102.657 238.314L97 235.485Z" fill="#1C1E53"/>
<path d="M107 227.485L112.657 224.657L115.485 219L118.314 224.657L123.971 227.485L117.96 229.96L115.485 235.971L112.657 230.314L107 227.485Z" fill="#1C1E53"/>
<path d="M124 227.485L129.657 224.657L132.485 219L135.314 224.657L140.971 227.485L134.96 229.96L132.485 235.971L129.657 230.314L124 227.485Z" fill="#1C1E53"/>
<path d="M124 244.485L129.657 241.657L132.485 236L135.314 241.657L140.971 244.485L134.96 246.96L132.485 252.971L129.657 247.314L124 244.485Z" fill="#1C1E53"/>
<path d="M141 244.485L146.657 241.657L149.485 236L152.314 241.657L157.971 244.485L151.96 246.96L149.485 252.971L146.657 247.314L141 244.485Z" fill="#1C1E53"/>
<path d="M124 261.485L129.657 258.657L132.485 253L135.314 258.657L140.971 261.485L134.96 263.96L132.485 269.971L129.657 264.314L124 261.485Z" fill="#1C1E53"/>
<path d="M140 261.485L145.657 258.657L148.485 253L151.314 258.657L156.971 261.485L150.96 263.96L148.485 269.971L145.657 264.314L140 261.485Z" fill="#1C1E53"/>
<path d="M111 186.485L116.657 183.657L119.485 178L122.314 183.657L127.971 186.485L121.96 188.96L119.485 194.971L116.657 189.314L111 186.485Z" fill="#1C1E53"/>
<path d="M134 191.485L139.657 188.657L142.485 183L145.314 188.657L150.971 191.485L144.96 193.96L142.485 199.971L139.657 194.314L134 191.485Z" fill="#1C1E53"/>
<path d="M123 205.485L128.657 202.657L131.485 197L134.314 202.657L139.971 205.485L133.96 207.96L131.485 213.971L128.657 208.314L123 205.485Z" fill="#1C1E53"/>
<path d="M158 179.485L163.657 176.657L166.485 171L169.314 176.657L174.971 179.485L168.96 181.96L166.485 187.971L163.657 182.314L158 179.485Z" fill="#1C1E53"/>
<path d="M170 203.485L175.657 200.657L178.485 195L181.314 200.657L186.971 203.485L180.96 205.96L178.485 211.971L175.657 206.314L170 203.485Z" fill="#1C1E53"/>
<path d="M182 211.485L187.657 208.657L190.485 203L193.314 208.657L198.971 211.485L192.96 213.96L190.485 219.971L187.657 214.314L182 211.485Z" fill="#1C1E53"/>
<path d="M182 228.485L187.657 225.657L190.485 220L193.314 225.657L198.971 228.485L192.96 230.96L190.485 236.971L187.657 231.314L182 228.485Z" fill="#1C1E53"/>
<path d="M182 245.485L187.657 242.657L190.485 237L193.314 242.657L198.971 245.485L192.96 247.96L190.485 253.971L187.657 248.314L182 245.485Z" fill="#1C1E53"/>
<path d="M182 262.485L187.657 259.657L190.485 254L193.314 259.657L198.971 262.485L192.96 264.96L190.485 270.971L187.657 265.314L182 262.485Z" fill="#1C1E53"/>
<path d="M165 262.485L170.657 259.657L173.485 254L176.314 259.657L181.971 262.485L175.96 264.96L173.485 270.971L170.657 265.314L165 262.485Z" fill="#1C1E53"/>
<path d="M182 279.485L187.657 276.657L190.485 271L193.314 276.657L198.971 279.485L192.96 281.96L190.485 287.971L187.657 282.314L182 279.485Z" fill="#1C1E53"/>
<path d="M195 287.485L200.657 284.657L203.485 279L206.314 284.657L211.971 287.485L205.96 289.96L203.485 295.971L200.657 290.314L195 287.485Z" fill="#1C1E53"/>
<path d="M212 287.485L217.657 284.657L220.485 279L223.314 284.657L228.971 287.485L222.96 289.96L220.485 295.971L217.657 290.314L212 287.485Z" fill="#1C1E53"/>
<path d="M254 287.485L259.657 284.657L262.485 279L265.314 284.657L270.971 287.485L264.96 289.96L262.485 295.971L259.657 290.314L254 287.485Z" fill="#1C1E53"/>
<path d="M98 361.485L103.657 358.657L106.485 353L109.314 358.657L114.971 361.485L108.96 363.96L106.485 369.971L103.657 364.314L98 361.485Z" fill="#1C1E53"/>
<path d="M254 305.485L259.657 302.657L262.485 297L265.314 302.657L270.971 305.485L264.96 307.96L262.485 313.971L259.657 308.314L254 305.485Z" fill="#1C1E53"/>
<path d="M98 379.485L103.657 376.657L106.485 371L109.314 376.657L114.971 379.485L108.96 381.96L106.485 387.971L103.657 382.314L98 379.485Z" fill="#1C1E53"/>
<path d="M237 323.485L242.657 320.657L245.485 315L248.314 320.657L253.971 323.485L247.96 325.96L245.485 331.971L242.657 326.314L237 323.485Z" fill="#1C1E53"/>
<path d="M81 397.485L86.6569 394.657L89.4853 389L92.3137 394.657L97.9706 397.485L91.9602 399.96L89.4853 405.971L86.6569 400.314L81 397.485Z" fill="#1C1E53"/>
<path d="M219 323.485L224.657 320.657L227.485 315L230.314 320.657L235.971 323.485L229.96 325.96L227.485 331.971L224.657 326.314L219 323.485Z" fill="#1C1E53"/>
<path d="M63 397.485L68.6569 394.657L71.4853 389L74.3137 394.657L79.9706 397.485L73.9602 399.96L71.4853 405.971L68.6569 400.314L63 397.485Z" fill="#1C1E53"/>
<path d="M267 311.485L272.657 308.657L275.485 303L278.314 308.657L283.971 311.485L277.96 313.96L275.485 319.971L272.657 314.314L267 311.485Z" fill="#1C1E53"/>
<path d="M254 323.485L259.657 320.657L262.485 315L265.314 320.657L270.971 323.485L264.96 325.96L262.485 331.971L259.657 326.314L254 323.485Z" fill="#1C1E53"/>
<path d="M98 397.485L103.657 394.657L106.485 389L109.314 394.657L114.971 397.485L108.96 399.96L106.485 405.971L103.657 400.314L98 397.485Z" fill="#1C1E53"/>
<path d="M254 341.485L259.657 338.657L262.485 333L265.314 338.657L270.971 341.485L264.96 343.96L262.485 349.971L259.657 344.314L254 341.485Z" fill="#1C1E53"/>
<path d="M98 415.485L103.657 412.657L106.485 407L109.314 412.657L114.971 415.485L108.96 417.96L106.485 423.971L103.657 418.314L98 415.485Z" fill="#1C1E53"/>
<path d="M254 359.485L259.657 356.657L262.485 351L265.314 356.657L270.971 359.485L264.96 361.96L262.485 367.971L259.657 362.314L254 359.485Z" fill="#1C1E53"/>
<path d="M265 367.485L270.657 364.657L273.485 359L276.314 364.657L281.971 367.485L275.96 369.96L273.485 375.971L270.657 370.314L265 367.485Z" fill="#1C1E53"/>
<path d="M265 384.485L270.657 381.657L273.485 376L276.314 381.657L281.971 384.485L275.96 386.96L273.485 392.971L270.657 387.314L265 384.485Z" fill="#1C1E53"/>
<path d="M246 384.485L251.657 381.657L254.485 376L257.314 381.657L262.971 384.485L256.96 386.96L254.485 392.971L251.657 387.314L246 384.485Z" fill="#1C1E53"/>
<path d="M265 401.485L270.657 398.657L273.485 393L276.314 398.657L281.971 401.485L275.96 403.96L273.485 409.971L270.657 404.314L265 401.485Z" fill="#1C1E53"/>
<path d="M237 359.485L242.657 356.657L245.485 351L248.314 356.657L253.971 359.485L247.96 361.96L245.485 367.971L242.657 362.314L237 359.485Z" fill="#1C1E53"/>
<path d="M220 359.485L225.657 356.657L228.485 351L231.314 356.657L236.971 359.485L230.96 361.96L228.485 367.971L225.657 362.314L220 359.485Z" fill="#1C1E53"/>
<path d="M237 376.485L242.657 373.657L245.485 368L248.314 373.657L253.971 376.485L247.96 378.96L245.485 384.971L242.657 379.314L237 376.485Z" fill="#1C1E53"/>
<path d="M220 376.485L225.657 373.657L228.485 368L231.314 373.657L236.971 376.485L230.96 378.96L228.485 384.971L225.657 379.314L220 376.485Z" fill="#1C1E53"/>
<path d="M220 393.485L225.657 390.657L228.485 385L231.314 390.657L236.971 393.485L230.96 395.96L228.485 401.971L225.657 396.314L220 393.485Z" fill="#1C1E53"/>
<path d="M220 409.485L225.657 406.657L228.485 401L231.314 406.657L236.971 409.485L230.96 411.96L228.485 417.971L225.657 412.314L220 409.485Z" fill="#1C1E53"/>
<path d="M202 409.485L207.657 406.657L210.485 401L213.314 406.657L218.971 409.485L212.96 411.96L210.485 417.971L207.657 412.314L202 409.485Z" fill="#1C1E53"/>
<path d="M170 406.485L175.657 403.657L178.485 398L181.314 403.657L186.971 406.485L180.96 408.96L178.485 414.971L175.657 409.314L170 406.485Z" fill="#1C1E53"/>
<path d="M177 392.485L182.657 389.657L185.485 384L188.314 389.657L193.971 392.485L187.96 394.96L185.485 400.971L182.657 395.314L177 392.485Z" fill="#1C1E53"/>
<path d="M194 392.485L199.657 389.657L202.485 384L205.314 389.657L210.971 392.485L204.96 394.96L202.485 400.971L199.657 395.314L194 392.485Z" fill="#1C1E53"/>
<path d="M203 376.485L208.657 373.657L211.485 368L214.314 373.657L219.971 376.485L213.96 378.96L211.485 384.971L208.657 379.314L203 376.485Z" fill="#1C1E53"/>
<path d="M158 214.485L163.657 211.657L166.485 206L169.314 211.657L174.971 214.485L168.96 216.96L166.485 222.971L163.657 217.314L158 214.485Z" fill="#1C1E53"/>
<path d="M158 231.485L163.657 228.657L166.485 223L169.314 228.657L174.971 231.485L168.96 233.96L166.485 239.971L163.657 234.314L158 231.485Z" fill="#1C1E53"/>
<path d="M158 248.485L163.657 245.657L166.485 240L169.314 245.657L174.971 248.485L168.96 250.96L166.485 256.971L163.657 251.314L158 248.485Z" fill="#1C1E53"/>
<path d="M146 204.485L151.657 201.657L154.485 196L157.314 201.657L162.971 204.485L156.96 206.96L154.485 212.971L151.657 207.314L146 204.485Z" fill="#1C1E53"/>
<path d="M158 145.485L163.657 142.657L166.485 137L169.314 142.657L174.971 145.485L168.96 147.96L166.485 153.971L163.657 148.314L158 145.485Z" fill="#1C1E53"/>
<path d="M171 71.4853L176.657 68.6569L179.485 63L182.314 68.6569L187.971 71.4853L181.96 73.9602L179.485 79.9706L176.657 74.3137L171 71.4853Z" fill="#1C1E53"/>
<path d="M188 71.4853L193.657 68.6569L196.485 63L199.314 68.6569L204.971 71.4853L198.96 73.9602L196.485 79.9706L193.657 74.3137L188 71.4853Z" fill="#1C1E53"/>
<path d="M205 71.4853L210.657 68.6569L213.485 63L216.314 68.6569L221.971 71.4853L215.96 73.9602L213.485 79.9706L210.657 74.3137L205 71.4853Z" fill="#1C1E53"/>
<path d="M229 71.4853L234.657 68.6569L237.485 63L240.314 68.6569L245.971 71.4853L239.96 73.9602L237.485 79.9706L234.657 74.3137L229 71.4853Z" fill="#1C1E53"/>
<path d="M246 71.4853L251.657 68.6569L254.485 63L257.314 68.6569L262.971 71.4853L256.96 73.9602L254.485 79.9706L251.657 74.3137L246 71.4853Z" fill="#1C1E53"/>
<path d="M263 71.4853L268.657 68.6569L271.485 63L274.314 68.6569L279.971 71.4853L273.96 73.9602L271.485 79.9706L268.657 74.3137L263 71.4853Z" fill="#1C1E53"/>
<path d="M263 88.4853L268.657 85.6569L271.485 80L274.314 85.6569L279.971 88.4853L273.96 90.9602L271.485 96.9706L268.657 91.3137L263 88.4853Z" fill="#1C1E53"/>
<path d="M280 71.4853L285.657 68.6569L288.485 63L291.314 68.6569L296.971 71.4853L290.96 73.9602L288.485 79.9706L285.657 74.3137L280 71.4853Z" fill="#1C1E53"/>
<path d="M297 71.4853L302.657 68.6569L305.485 63L308.314 68.6569L313.971 71.4853L307.96 73.9602L305.485 79.9706L302.657 74.3137L297 71.4853Z" fill="#1C1E53"/>
<path d="M205 88.4853L210.657 85.6569L213.485 80L216.314 85.6569L221.971 88.4853L215.96 90.9602L213.485 96.9706L210.657 91.3137L205 88.4853Z" fill="#1C1E53"/>
<path d="M205 105.485L210.657 102.657L213.485 97L216.314 102.657L221.971 105.485L215.96 107.96L213.485 113.971L210.657 108.314L205 105.485Z" fill="#1C1E53"/>
<path d="M229 97.4853L234.657 94.6569L237.485 89L240.314 94.6569L245.971 97.4853L239.96 99.9602L237.485 105.971L234.657 100.314L229 97.4853Z" fill="#1C1E53"/>
<path d="M205 122.485L210.657 119.657L213.485 114L216.314 119.657L221.971 122.485L215.96 124.96L213.485 130.971L210.657 125.314L205 122.485Z" fill="#1C1E53"/>
<path d="M205 144.485L210.657 141.657L213.485 136L216.314 141.657L221.971 144.485L215.96 146.96L213.485 152.971L210.657 147.314L205 144.485Z" fill="#1C1E53"/>
<path d="M222 122.485L227.657 119.657L230.485 114L233.314 119.657L238.971 122.485L232.96 124.96L230.485 130.971L227.657 125.314L222 122.485Z" fill="#1C1E53"/>
<path d="M230 134.485L235.657 131.657L238.485 126L241.314 131.657L246.971 134.485L240.96 136.96L238.485 142.971L235.657 137.314L230 134.485Z" fill="#1C1E53"/>
<path d="M230 151.485L235.657 148.657L238.485 143L241.314 148.657L246.971 151.485L240.96 153.96L238.485 159.971L235.657 154.314L230 151.485Z" fill="#1C1E53"/>
<path d="M239 122.485L244.657 119.657L247.485 114L250.314 119.657L255.971 122.485L249.96 124.96L247.485 130.971L244.657 125.314L239 122.485Z" fill="#1C1E53"/>
<path d="M256 122.485L261.657 119.657L264.485 114L267.314 119.657L272.971 122.485L266.96 124.96L264.485 130.971L261.657 125.314L256 122.485Z" fill="#1C1E53"/>
<path d="M256 139.485L261.657 136.657L264.485 131L267.314 136.657L272.971 139.485L266.96 141.96L264.485 147.971L261.657 142.314L256 139.485Z" fill="#1C1E53"/>
<path d="M256 155.485L261.657 152.657L264.485 147L267.314 152.657L272.971 155.485L266.96 157.96L264.485 163.971L261.657 158.314L256 155.485Z" fill="#1C1E53"/>
<path d="M256 171.485L261.657 168.657L264.485 163L267.314 168.657L272.971 171.485L266.96 173.96L264.485 179.971L261.657 174.314L256 171.485Z" fill="#1C1E53"/>
<path d="M273 122.485L278.657 119.657L281.485 114L284.314 119.657L289.971 122.485L283.96 124.96L281.485 130.971L278.657 125.314L273 122.485Z" fill="#1C1E53"/>
<path d="M273 139.485L278.657 136.657L281.485 131L284.314 136.657L289.971 139.485L283.96 141.96L281.485 147.971L278.657 142.314L273 139.485Z" fill="#1C1E53"/>
<path d="M273 156.485L278.657 153.657L281.485 148L284.314 153.657L289.971 156.485L283.96 158.96L281.485 164.971L278.657 159.314L273 156.485Z" fill="#1C1E53"/>
<path d="M300 145.485L305.657 142.657L308.485 137L311.314 142.657L316.971 145.485L310.96 147.96L308.485 153.971L305.657 148.314L300 145.485Z" fill="#1C1E53"/>
<path d="M300 166.485L305.657 163.657L308.485 158L311.314 163.657L316.971 166.485L310.96 168.96L308.485 174.971L305.657 169.314L300 166.485Z" fill="#1C1E53"/>
<path d="M355 167.485L360.657 164.657L363.485 159L366.314 164.657L371.971 167.485L365.96 169.96L363.485 175.971L360.657 170.314L355 167.485Z" fill="#1C1E53"/>
<path d="M387 95.4853L392.657 92.6569L395.485 87L398.314 92.6569L403.971 95.4853L397.96 97.9602L395.485 103.971L392.657 98.3137L387 95.4853Z" fill="#1C1E53"/>
<path d="M321 184.485L326.657 181.657L329.485 176L332.314 181.657L337.971 184.485L331.96 186.96L329.485 192.971L326.657 187.314L321 184.485Z" fill="#1C1E53"/>
<path d="M273 215.485L278.657 212.657L281.485 207L284.314 212.657L289.971 215.485L283.96 217.96L281.485 223.971L278.657 218.314L273 215.485Z" fill="#1C1E53"/>
<path d="M352 113.485L357.657 110.657L360.485 105L363.314 110.657L368.971 113.485L362.96 115.96L360.485 121.971L357.657 116.314L352 113.485Z" fill="#1C1E53"/>
<path d="M120 366.485L125.657 363.657L128.485 358L131.314 363.657L136.971 366.485L130.96 368.96L128.485 374.971L125.657 369.314L120 366.485Z" fill="#1C1E53"/>
<path d="M118 123.485L123.657 120.657L126.485 115L129.314 120.657L134.971 123.485L128.96 125.96L126.485 131.971L123.657 126.314L118 123.485Z" fill="#1C1E53"/>
<path d="M291 215.485L296.657 212.657L299.485 207L302.314 212.657L307.971 215.485L301.96 217.96L299.485 223.971L296.657 218.314L291 215.485Z" fill="#1C1E53"/>
<path d="M308 215.485L313.657 212.657L316.485 207L319.314 212.657L324.971 215.485L318.96 217.96L316.485 223.971L313.657 218.314L308 215.485Z" fill="#1C1E53"/>
<path d="M325 215.485L330.657 212.657L333.485 207L336.314 212.657L341.971 215.485L335.96 217.96L333.485 223.971L330.657 218.314L325 215.485Z" fill="#1C1E53"/>
<path d="M325 232.485L330.657 229.657L333.485 224L336.314 229.657L341.971 232.485L335.96 234.96L333.485 240.971L330.657 235.314L325 232.485Z" fill="#1C1E53"/>
<path d="M273 232.485L278.657 229.657L281.485 224L284.314 229.657L289.971 232.485L283.96 234.96L281.485 240.971L278.657 235.314L273 232.485Z" fill="#1C1E53"/>
<path d="M352 130.485L357.657 127.657L360.485 122L363.314 127.657L368.971 130.485L362.96 132.96L360.485 138.971L357.657 133.314L352 130.485Z" fill="#1C1E53"/>
<path d="M120 383.485L125.657 380.657L128.485 375L131.314 380.657L136.971 383.485L130.96 385.96L128.485 391.971L125.657 386.314L120 383.485Z" fill="#1C1E53"/>
<path d="M118 140.485L123.657 137.657L126.485 132L129.314 137.657L134.971 140.485L128.96 142.96L126.485 148.971L123.657 143.314L118 140.485Z" fill="#1C1E53"/>
<path d="M303 238.485L308.657 235.657L311.485 230L314.314 235.657L319.971 238.485L313.96 240.96L311.485 246.971L308.657 241.314L303 238.485Z" fill="#1C1E53"/>
<path d="M303 255.485L308.657 252.657L311.485 247L314.314 252.657L319.971 255.485L313.96 257.96L311.485 263.971L308.657 258.314L303 255.485Z" fill="#1C1E53"/>
<path d="M320 255.485L325.657 252.657L328.485 247L331.314 252.657L336.971 255.485L330.96 257.96L328.485 263.971L325.657 258.314L320 255.485Z" fill="#1C1E53"/>
<path d="M336 265.485L341.657 262.657L344.485 257L347.314 262.657L352.971 265.485L346.96 267.96L344.485 273.971L341.657 268.314L336 265.485Z" fill="#1C1E53"/>
<path d="M336 287.485L341.657 284.657L344.485 279L347.314 284.657L352.971 287.485L346.96 289.96L344.485 295.971L341.657 290.314L336 287.485Z" fill="#1C1E53"/>
<path d="M336 304.485L341.657 301.657L344.485 296L347.314 301.657L352.971 304.485L346.96 306.96L344.485 312.971L341.657 307.314L336 304.485Z" fill="#1C1E53"/>
<path d="M325 336.485L330.657 333.657L333.485 328L336.314 333.657L341.971 336.485L335.96 338.96L333.485 344.971L330.657 339.314L325 336.485Z" fill="#1C1E53"/>
<path d="M303 272.485L308.657 269.657L311.485 264L314.314 269.657L319.971 272.485L313.96 274.96L311.485 280.971L308.657 275.314L303 272.485Z" fill="#1C1E53"/>
<path d="M286 272.485L291.657 269.657L294.485 264L297.314 269.657L302.971 272.485L296.96 274.96L294.485 280.971L291.657 275.314L286 272.485Z" fill="#1C1E53"/>
<path d="M303 289.485L308.657 286.657L311.485 281L314.314 286.657L319.971 289.485L313.96 291.96L311.485 297.971L308.657 292.314L303 289.485Z" fill="#1C1E53"/>
<path d="M303 306.485L308.657 303.657L311.485 298L314.314 303.657L319.971 306.485L313.96 308.96L311.485 314.971L308.657 309.314L303 306.485Z" fill="#1C1E53"/>
<path d="M303 323.485L308.657 320.657L311.485 315L314.314 320.657L319.971 323.485L313.96 325.96L311.485 331.971L308.657 326.314L303 323.485Z" fill="#1C1E53"/>
<path d="M303 340.485L308.657 337.657L311.485 332L314.314 337.657L319.971 340.485L313.96 342.96L311.485 348.971L308.657 343.314L303 340.485Z" fill="#1C1E53"/>
<path d="M288 346.485L293.657 343.657L296.485 338L299.314 343.657L304.971 346.485L298.96 348.96L296.485 354.971L293.657 349.314L288 346.485Z" fill="#1C1E53"/>
<path d="M271 346.485L276.657 343.657L279.485 338L282.314 343.657L287.971 346.485L281.96 348.96L279.485 354.971L276.657 349.314L271 346.485Z" fill="#1C1E53"/>
<path d="M303 357.485L308.657 354.657L311.485 349L314.314 354.657L319.971 357.485L313.96 359.96L311.485 365.971L308.657 360.314L303 357.485Z" fill="#1C1E53"/>
<path d="M292 382.485L297.657 379.657L300.485 374L303.314 379.657L308.971 382.485L302.96 384.96L300.485 390.971L297.657 385.314L292 382.485Z" fill="#1C1E53"/>
<path d="M292 399.485L297.657 396.657L300.485 391L303.314 396.657L308.971 399.485L302.96 401.96L300.485 407.971L297.657 402.314L292 399.485Z" fill="#1C1E53"/>
<path d="M308 399.485L313.657 396.657L316.485 391L319.314 396.657L324.971 399.485L318.96 401.96L316.485 407.971L313.657 402.314L308 399.485Z" fill="#1C1E53"/>
<path d="M320 357.485L325.657 354.657L328.485 349L331.314 354.657L336.971 357.485L330.96 359.96L328.485 365.971L325.657 360.314L320 357.485Z" fill="#1C1E53"/>
<path d="M336 357.485L341.657 354.657L344.485 349L347.314 354.657L352.971 357.485L346.96 359.96L344.485 365.971L341.657 360.314L336 357.485Z" fill="#1C1E53"/>
<path d="M353 357.485L358.657 354.657L361.485 349L364.314 354.657L369.971 357.485L363.96 359.96L361.485 365.971L358.657 360.314L353 357.485Z" fill="#1C1E53"/>
<path d="M353 340.485L358.657 337.657L361.485 332L364.314 337.657L369.971 340.485L363.96 342.96L361.485 348.971L358.657 343.314L353 340.485Z" fill="#1C1E53"/>
<path d="M353 323.485L358.657 320.657L361.485 315L364.314 320.657L369.971 323.485L363.96 325.96L361.485 331.971L358.657 326.314L353 323.485Z" fill="#1C1E53"/>
<path d="M353 306.485L358.657 303.657L361.485 298L364.314 303.657L369.971 306.485L363.96 308.96L361.485 314.971L358.657 309.314L353 306.485Z" fill="#1C1E53"/>
<path d="M320 306.485L325.657 303.657L328.485 298L331.314 303.657L336.971 306.485L330.96 308.96L328.485 314.971L325.657 309.314L320 306.485Z" fill="#1C1E53"/>
<path d="M286 238.485L291.657 235.657L294.485 230L297.314 235.657L302.971 238.485L296.96 240.96L294.485 246.971L291.657 241.314L286 238.485Z" fill="#1C1E53"/>
<path d="M365 136.485L370.657 133.657L373.485 128L376.314 133.657L381.971 136.485L375.96 138.96L373.485 144.971L370.657 139.314L365 136.485Z" fill="#1C1E53"/>
<path d="M133 389.485L138.657 386.657L141.485 381L144.314 386.657L149.971 389.485L143.96 391.96L141.485 397.971L138.657 392.314L133 389.485Z" fill="#1C1E53"/>
<path d="M131 146.485L136.657 143.657L139.485 138L142.314 143.657L147.971 146.485L141.96 148.96L139.485 154.971L136.657 149.314L131 146.485Z" fill="#1C1E53"/>
<path d="M275 252.485L280.657 249.657L283.485 244L286.314 249.657L291.971 252.485L285.96 254.96L283.485 260.971L280.657 255.314L275 252.485Z" fill="#1C1E53"/>
<path d="M338 184.485L343.657 181.657L346.485 176L349.314 181.657L354.971 184.485L348.96 186.96L346.485 192.971L343.657 187.314L338 184.485Z" fill="#1C1E53"/>
<path d="M355 184.485L360.657 181.657L363.485 176L366.314 181.657L371.971 184.485L365.96 186.96L363.485 192.971L360.657 187.314L355 184.485Z" fill="#1C1E53"/>
<path d="M387 112.485L392.657 109.657L395.485 104L398.314 109.657L403.971 112.485L397.96 114.96L395.485 120.971L392.657 115.314L387 112.485Z" fill="#1C1E53"/>
<path d="M355 201.485L360.657 198.657L363.485 193L366.314 198.657L371.971 201.485L365.96 203.96L363.485 209.971L360.657 204.314L355 201.485Z" fill="#1C1E53"/>
<path d="M387 129.485L392.657 126.657L395.485 121L398.314 126.657L403.971 129.485L397.96 131.96L395.485 137.971L392.657 132.314L387 129.485Z" fill="#1C1E53"/>
<path d="M338 201.485L343.657 198.657L346.485 193L349.314 198.657L354.971 201.485L348.96 203.96L346.485 209.971L343.657 204.314L338 201.485Z" fill="#1C1E53"/>
<path d="M355 219.485L360.657 216.657L363.485 211L366.314 216.657L371.971 219.485L365.96 221.96L363.485 227.971L360.657 222.314L355 219.485Z" fill="#1C1E53"/>
<path d="M384 184.485L389.657 181.657L392.485 176L395.314 181.657L400.971 184.485L394.96 186.96L392.485 192.971L389.657 187.314L384 184.485Z" fill="#1C1E53"/>
<path d="M416 112.485L421.657 109.657L424.485 104L427.314 109.657L432.971 112.485L426.96 114.96L424.485 120.971L421.657 115.314L416 112.485Z" fill="#1C1E53"/>
<path d="M395 202.485L400.657 199.657L403.485 194L406.314 199.657L411.971 202.485L405.96 204.96L403.485 210.971L400.657 205.314L395 202.485Z" fill="#1C1E53"/>
<path d="M395 227.485L400.657 224.657L403.485 219L406.314 224.657L411.971 227.485L405.96 229.96L403.485 235.971L400.657 230.314L395 227.485Z" fill="#1C1E53"/>
<path d="M383 215.485L388.657 212.657L391.485 207L394.314 212.657L399.971 215.485L393.96 217.96L391.485 223.971L388.657 218.314L383 215.485Z" fill="#1C1E53"/>
<path d="M372 226.485L377.657 223.657L380.485 218L383.314 223.657L388.971 226.485L382.96 228.96L380.485 234.971L377.657 229.314L372 226.485Z" fill="#1C1E53"/>
<path d="M363 236.485L368.657 233.657L371.485 228L374.314 233.657L379.971 236.485L373.96 238.96L371.485 244.971L368.657 239.314L363 236.485Z" fill="#1C1E53"/>
<path d="M363 252.485L368.657 249.657L371.485 244L374.314 249.657L379.971 252.485L373.96 254.96L371.485 260.971L368.657 255.314L363 252.485Z" fill="#1C1E53"/>
<path d="M363 268.485L368.657 265.657L371.485 260L374.314 265.657L379.971 268.485L373.96 270.96L371.485 276.971L368.657 271.314L363 268.485Z" fill="#1C1E53"/>
<path d="M379 268.485L384.657 265.657L387.485 260L390.314 265.657L395.971 268.485L389.96 270.96L387.485 276.971L384.657 271.314L379 268.485Z" fill="#1C1E53"/>
<path d="M396 268.485L401.657 265.657L404.485 260L407.314 265.657L412.971 268.485L406.96 270.96L404.485 276.971L401.657 271.314L396 268.485Z" fill="#1C1E53"/>
<path d="M363 284.485L368.657 281.657L371.485 276L374.314 281.657L379.971 284.485L373.96 286.96L371.485 292.971L368.657 287.314L363 284.485Z" fill="#1C1E53"/>
<path d="M363 300.485L368.657 297.657L371.485 292L374.314 297.657L379.971 300.485L373.96 302.96L371.485 308.971L368.657 303.314L363 300.485Z" fill="#1C1E53"/>
<path d="M395 287.485L400.657 284.657L403.485 279L406.314 284.657L411.971 287.485L405.96 289.96L403.485 295.971L400.657 290.314L395 287.485Z" fill="#1C1E53"/>
<path d="M395 312.485L400.657 309.657L403.485 304L406.314 309.657L411.971 312.485L405.96 314.96L403.485 320.971L400.657 315.314L395 312.485Z" fill="#1C1E53"/>
<path d="M370 312.485L375.657 309.657L378.485 304L381.314 309.657L386.971 312.485L380.96 314.96L378.485 320.971L375.657 315.314L370 312.485Z" fill="#1C1E53"/>
<path d="M384 323.485L389.657 320.657L392.485 315L395.314 320.657L400.971 323.485L394.96 325.96L392.485 331.971L389.657 326.314L384 323.485Z" fill="#1C1E53"/>
<path d="M383 347.485L388.657 344.657L391.485 339L394.314 344.657L399.971 347.485L393.96 349.96L391.485 355.971L388.657 350.314L383 347.485Z" fill="#1C1E53"/>
<path d="M378 379.485L383.657 376.657L386.485 371L389.314 376.657L394.971 379.485L388.96 381.96L386.485 387.971L383.657 382.314L378 379.485Z" fill="#1C1E53"/>
<path d="M359 382.485L364.657 379.657L367.485 374L370.314 379.657L375.971 382.485L369.96 384.96L367.485 390.971L364.657 385.314L359 382.485Z" fill="#1C1E53"/>
<path d="M342 382.485L347.657 379.657L350.485 374L353.314 379.657L358.971 382.485L352.96 384.96L350.485 390.971L347.657 385.314L342 382.485Z" fill="#1C1E53"/>
<path d="M342 399.485L347.657 396.657L350.485 391L353.314 396.657L358.971 399.485L352.96 401.96L350.485 407.971L347.657 402.314L342 399.485Z" fill="#1C1E53"/>
<path d="M358 399.485L363.657 396.657L366.485 391L369.314 396.657L374.971 399.485L368.96 401.96L366.485 407.971L363.657 402.314L358 399.485Z" fill="#1C1E53"/>
<path d="M325 382.485L330.657 379.657L333.485 374L336.314 379.657L341.971 382.485L335.96 384.96L333.485 390.971L330.657 385.314L325 382.485Z" fill="#1C1E53"/>
<path d="M395 398.485L400.657 395.657L403.485 390L406.314 395.657L411.971 398.485L405.96 400.96L403.485 406.971L400.657 401.314L395 398.485Z" fill="#1C1E53"/>
<path d="M395 379.485L400.657 376.657L403.485 371L406.314 376.657L411.971 379.485L405.96 381.96L403.485 387.971L400.657 382.314L395 379.485Z" fill="#1C1E53"/>
<path d="M338 236.485L343.657 233.657L346.485 228L349.314 233.657L354.971 236.485L348.96 238.96L346.485 244.971L343.657 239.314L338 236.485Z" fill="#1C1E53"/>
<path d="M395 245.485L400.657 242.657L403.485 237L406.314 242.657L411.971 245.485L405.96 247.96L403.485 253.971L400.657 248.314L395 245.485Z" fill="#1C1E53"/>
<path d="M372 167.485L377.657 164.657L380.485 159L383.314 164.657L388.971 167.485L382.96 169.96L380.485 175.971L377.657 170.314L372 167.485Z" fill="#1C1E53"/>
<path d="M404 95.4853L409.657 92.6569L412.485 87L415.314 92.6569L420.971 95.4853L414.96 97.9602L412.485 103.971L409.657 98.3137L404 95.4853Z" fill="#1C1E53"/>
<path d="M300 182.485L305.657 179.657L308.485 174L311.314 179.657L316.971 182.485L310.96 184.96L308.485 190.971L305.657 185.314L300 182.485Z" fill="#1C1E53"/>
<path d="M290 122.485L295.657 119.657L298.485 114L301.314 119.657L306.971 122.485L300.96 124.96L298.485 130.971L295.657 125.314L290 122.485Z" fill="#1C1E53"/>
<path d="M290 105.485L295.657 102.657L298.485 97L301.314 102.657L306.971 105.485L300.96 107.96L298.485 113.971L295.657 108.314L290 105.485Z" fill="#1C1E53"/>
<path d="M306 83.4853L311.657 80.6569L314.485 75L317.314 80.6569L322.971 83.4853L316.96 85.9602L314.485 91.9706L311.657 86.3137L306 83.4853Z" fill="#1C1E53"/>
<path d="M306 100.485L311.657 97.6569L314.485 92L317.314 97.6569L322.971 100.485L316.96 102.96L314.485 108.971L311.657 103.314L306 100.485Z" fill="#1C1E53"/>
<path d="M256 105.485L261.657 102.657L264.485 97L267.314 102.657L272.971 105.485L266.96 107.96L264.485 113.971L261.657 108.314L256 105.485Z" fill="#1C1E53"/>
</svg>
