<svg width="500" height="500" viewBox="0 0 500 500" fill="none" xmlns="http://www.w3.org/2000/svg">
<rect width="500" height="500" fill="white"/>
<circle cx="241" cy="341" r="6" fill="#1C1E53"/>
<circle cx="255" cy="341" r="6" fill="#1C1E53"/>
<circle cx="269" cy="341" r="6" fill="#1C1E53"/>
<circle cx="283" cy="341" r="6" fill="#1C1E53"/>
<circle cx="297" cy="341" r="6" fill="#1C1E53"/>
<circle cx="102" cy="377" r="6" fill="#1C1E53"/>
<circle cx="102" cy="391" r="6" fill="#1C1E53"/>
<circle cx="102" cy="405" r="6" fill="#1C1E53"/>
<circle cx="74" cy="419" r="6" fill="#1C1E53"/>
<circle cx="88" cy="419" r="6" fill="#1C1E53"/>
<circle cx="102" cy="419" r="6" fill="#1C1E53"/>
<circle cx="188" cy="69" r="6" fill="#1C1E53"/>
<circle cx="202" cy="69" r="6" fill="#1C1E53"/>
<circle cx="216" cy="69" r="6" fill="#1C1E53"/>
<circle cx="230" cy="69" r="6" fill="#1C1E53"/>
<circle cx="72" cy="75" r="6" fill="#1C1E53"/>
<circle cx="86" cy="75" r="6" fill="#1C1E53"/>
<circle cx="100" cy="75" r="6" fill="#1C1E53"/>
<circle cx="114" cy="75" r="6" fill="#1C1E53"/>
<circle cx="176" cy="94" r="6" fill="#1C1E53"/>
<circle cx="176" cy="108" r="6" fill="#1C1E53"/>
<circle cx="143" cy="81" r="6" fill="#1C1E53"/>
<circle cx="190" cy="108" r="6" fill="#1C1E53"/>
<circle cx="108" cy="108" r="6" fill="#1C1E53"/>
<circle cx="200" cy="130" r="6" fill="#1C1E53"/>
<circle cx="200" cy="144" r="6" fill="#1C1E53"/>
<circle cx="200" cy="158" r="6" fill="#1C1E53"/>
<circle cx="187" cy="158" r="6" fill="#1C1E53"/>
<circle cx="172" cy="141" r="6" fill="#1C1E53"/>
<circle cx="164" cy="172" r="6" fill="#1C1E53"/>
<circle cx="175" cy="184" r="6" fill="#1C1E53"/>
<circle cx="175" cy="196" r="6" fill="#1C1E53"/>
<circle cx="149" cy="196" r="6" fill="#1C1E53"/>
<circle cx="141" cy="211" r="6" fill="#1C1E53"/>
<circle cx="149" cy="223" r="6" fill="#1C1E53"/>
<circle cx="84" cy="235" r="6" fill="#1C1E53"/>
<circle cx="111" cy="235" r="6" fill="#1C1E53"/>
<circle cx="137" cy="235" r="6" fill="#1C1E53"/>
<circle cx="135" cy="251" r="6" fill="#1C1E53"/>
<circle cx="149" cy="251" r="6" fill="#1C1E53"/>
<circle cx="111" cy="249" r="6" fill="#1C1E53"/>
<circle cx="120" cy="263" r="6" fill="#1C1E53"/>
<circle cx="72" cy="263" r="6" fill="#1C1E53"/>
<circle cx="86" cy="263" r="6" fill="#1C1E53"/>
<circle cx="100" cy="263" r="6" fill="#1C1E53"/>
<circle cx="72" cy="249" r="6" fill="#1C1E53"/>
<circle cx="135" cy="265" r="6" fill="#1C1E53"/>
<circle cx="135" cy="279" r="6" fill="#1C1E53"/>
<circle cx="96" cy="287" r="6" fill="#1C1E53"/>
<circle cx="110" cy="287" r="6" fill="#1C1E53"/>
<circle cx="124" cy="287" r="6" fill="#1C1E53"/>
<circle cx="98" cy="301" r="6" fill="#1C1E53"/>
<circle cx="112" cy="301" r="6" fill="#1C1E53"/>
<circle cx="110" cy="316" r="6" fill="#1C1E53"/>
<circle cx="124" cy="316" r="6" fill="#1C1E53"/>
<circle cx="149" cy="303" r="6" fill="#1C1E53"/>
<circle cx="149" cy="275" r="6" fill="#1C1E53"/>
<circle cx="163" cy="261" r="6" fill="#1C1E53"/>
<circle cx="175" cy="223" r="6" fill="#1C1E53"/>
<circle cx="175" cy="237" r="6" fill="#1C1E53"/>
<circle cx="175" cy="251" r="6" fill="#1C1E53"/>
<circle cx="188" cy="211" r="6" fill="#1C1E53"/>
<circle cx="200" cy="225" r="6" fill="#1C1E53"/>
<circle cx="200" cy="239" r="6" fill="#1C1E53"/>
<circle cx="200" cy="253" r="6" fill="#1C1E53"/>
<circle cx="200" cy="267" r="6" fill="#1C1E53"/>
<circle cx="200" cy="281" r="6" fill="#1C1E53"/>
<circle cx="200" cy="295" r="6" fill="#1C1E53"/>
<circle cx="188" cy="302" r="6" fill="#1C1E53"/>
<circle cx="174" cy="315" r="6" fill="#1C1E53"/>
<circle cx="188" cy="315" r="6" fill="#1C1E53"/>
<circle cx="202" cy="315" r="6" fill="#1C1E53"/>
<circle cx="201" cy="329" r="6" fill="#1C1E53"/>
<circle cx="215" cy="329" r="6" fill="#1C1E53"/>
<circle cx="188" cy="261" r="6" fill="#1C1E53"/>
<circle cx="188" cy="275" r="6" fill="#1C1E53"/>
<circle cx="161" cy="287" r="6" fill="#1C1E53"/>
<circle cx="147" cy="327" r="6" fill="#1C1E53"/>
<circle cx="173" cy="341" r="6" fill="#1C1E53"/>
<circle cx="200" cy="352" r="6" fill="#1C1E53"/>
<circle cx="227" cy="353" r="6" fill="#1C1E53"/>
<circle cx="215" cy="377" r="6" fill="#1C1E53"/>
<circle cx="201" cy="391" r="6" fill="#1C1E53"/>
<circle cx="187" cy="404" r="6" fill="#1C1E53"/>
<circle cx="199" cy="416" r="6" fill="#1C1E53"/>
<circle cx="213" cy="415" r="6" fill="#1C1E53"/>
<circle cx="225" cy="431" r="6" fill="#1C1E53"/>
<circle cx="239" cy="431" r="6" fill="#1C1E53"/>
<circle cx="239" cy="418" r="6" fill="#1C1E53"/>
<circle cx="239" cy="404" r="6" fill="#1C1E53"/>
<circle cx="265" cy="379" r="6" fill="#1C1E53"/>
<circle cx="278" cy="381" r="6" fill="#1C1E53"/>
<circle cx="280" cy="353" r="6" fill="#1C1E53"/>
<circle cx="265" cy="354" r="6" fill="#1C1E53"/>
<circle cx="251" cy="367" r="6" fill="#1C1E53"/>
<circle cx="251" cy="381" r="6" fill="#1C1E53"/>
<circle cx="251" cy="395" r="6" fill="#1C1E53"/>
<circle cx="251" cy="409" r="6" fill="#1C1E53"/>
<circle cx="266" cy="409" r="6" fill="#1C1E53"/>
<circle cx="265" cy="393" r="6" fill="#1C1E53"/>
<circle cx="279" cy="404" r="6" fill="#1C1E53"/>
<circle cx="292" cy="404" r="6" fill="#1C1E53"/>
<circle cx="290" cy="417" r="6" fill="#1C1E53"/>
<circle cx="277" cy="419" r="6" fill="#1C1E53"/>
<circle cx="290" cy="430" r="6" fill="#1C1E53"/>
<circle cx="304" cy="430" r="6" fill="#1C1E53"/>
<circle cx="290" cy="390" r="6" fill="#1C1E53"/>
<circle cx="306" cy="404" r="6" fill="#1C1E53"/>
<circle cx="225" cy="404" r="6" fill="#1C1E53"/>
<circle cx="238" cy="390" r="6" fill="#1C1E53"/>
<circle cx="188" cy="431" r="6" fill="#1C1E53"/>
<circle cx="227" cy="302" r="6" fill="#1C1E53"/>
<circle cx="241" cy="314" r="6" fill="#1C1E53"/>
<circle cx="241" cy="326" r="6" fill="#1C1E53"/>
<circle cx="278" cy="367" r="6" fill="#1C1E53"/>
<circle cx="292" cy="367" r="6" fill="#1C1E53"/>
<circle cx="306" cy="367" r="6" fill="#1C1E53"/>
<circle cx="320" cy="367" r="6" fill="#1C1E53"/>
<circle cx="334" cy="367" r="6" fill="#1C1E53"/>
<circle cx="281" cy="258" r="6" fill="#1C1E53"/>
<circle cx="329" cy="404" r="6" fill="#1C1E53"/>
<circle cx="329" cy="418" r="6" fill="#1C1E53"/>
<circle cx="329" cy="432" r="6" fill="#1C1E53"/>
<circle cx="343" cy="404" r="6" fill="#1C1E53"/>
<circle cx="343" cy="418" r="6" fill="#1C1E53"/>
<circle cx="340" cy="354" r="6" fill="#1C1E53"/>
<circle cx="329" cy="341" r="6" fill="#1C1E53"/>
<circle cx="317" cy="353" r="6" fill="#1C1E53"/>
<circle cx="329" cy="327" r="6" fill="#1C1E53"/>
<circle cx="343" cy="315" r="6" fill="#1C1E53"/>
<circle cx="112" cy="361" r="6" fill="#1C1E53"/>
<circle cx="123" cy="377" r="6" fill="#1C1E53"/>
<circle cx="356" cy="313" r="6" fill="#1C1E53"/>
<circle cx="125" cy="361" r="6" fill="#1C1E53"/>
<circle cx="356" cy="352" r="6" fill="#1C1E53"/>
<circle cx="125" cy="400" r="6" fill="#1C1E53"/>
<circle cx="137" cy="377" r="6" fill="#1C1E53"/>
<circle cx="368" cy="315" r="6" fill="#1C1E53"/>
<circle cx="139" cy="361" r="6" fill="#1C1E53"/>
<circle cx="368" cy="301" r="6" fill="#1C1E53"/>
<circle cx="343" cy="329" r="6" fill="#1C1E53"/>
<circle cx="357" cy="329" r="6" fill="#1C1E53"/>
<circle cx="371" cy="329" r="6" fill="#1C1E53"/>
<circle cx="385" cy="329" r="6" fill="#1C1E53"/>
<circle cx="151" cy="376" r="6" fill="#1C1E53"/>
<circle cx="380" cy="341" r="6" fill="#1C1E53"/>
<circle cx="382" cy="354" r="6" fill="#1C1E53"/>
<circle cx="382" cy="368" r="6" fill="#1C1E53"/>
<circle cx="151" cy="389" r="6" fill="#1C1E53"/>
<circle cx="151" cy="403" r="6" fill="#1C1E53"/>
<circle cx="151" cy="417" r="6" fill="#1C1E53"/>
<circle cx="368" cy="393" r="6" fill="#1C1E53"/>
<circle cx="368" cy="407" r="6" fill="#1C1E53"/>
<circle cx="382" cy="404" r="6" fill="#1C1E53"/>
<circle cx="382" cy="418" r="6" fill="#1C1E53"/>
<circle cx="382" cy="431" r="6" fill="#1C1E53"/>
<circle cx="368" cy="431" r="6" fill="#1C1E53"/>
<circle cx="396" cy="404" r="6" fill="#1C1E53"/>
<circle cx="317" cy="380" r="6" fill="#1C1E53"/>
<circle cx="331" cy="380" r="6" fill="#1C1E53"/>
<circle cx="345" cy="380" r="6" fill="#1C1E53"/>
<circle cx="359" cy="380" r="6" fill="#1C1E53"/>
<circle cx="373" cy="380" r="6" fill="#1C1E53"/>
<circle cx="387" cy="380" r="6" fill="#1C1E53"/>
<circle cx="278" cy="329" r="6" fill="#1C1E53"/>
<circle cx="278" cy="315" r="6" fill="#1C1E53"/>
<circle cx="278" cy="301" r="6" fill="#1C1E53"/>
<circle cx="253" cy="251" r="6" fill="#1C1E53"/>
<circle cx="264" cy="313" r="6" fill="#1C1E53"/>
<circle cx="241" cy="250" r="6" fill="#1C1E53"/>
<circle cx="292" cy="329" r="6" fill="#1C1E53"/>
<circle cx="213" cy="302" r="6" fill="#1C1E53"/>
<circle cx="173" cy="355" r="6" fill="#1C1E53"/>
<circle cx="173" cy="377" r="6" fill="#1C1E53"/>
<circle cx="173" cy="391" r="6" fill="#1C1E53"/>
<circle cx="99" cy="332" r="6" fill="#1C1E53"/>
<circle cx="113" cy="332" r="6" fill="#1C1E53"/>
<circle cx="127" cy="332" r="6" fill="#1C1E53"/>
<circle cx="84" cy="301" r="6" fill="#1C1E53"/>
<circle cx="84" cy="315" r="6" fill="#1C1E53"/>
<circle cx="84" cy="329" r="6" fill="#1C1E53"/>
<circle cx="69" cy="287" r="6" fill="#1C1E53"/>
<circle cx="69" cy="301" r="6" fill="#1C1E53"/>
<circle cx="69" cy="315" r="6" fill="#1C1E53"/>
<circle cx="69" cy="329" r="6" fill="#1C1E53"/>
<circle cx="96" cy="211" r="6" fill="#1C1E53"/>
<circle cx="72" cy="211" r="6" fill="#1C1E53"/>
<circle cx="161" cy="211" r="6" fill="#1C1E53"/>
<circle cx="149" cy="172" r="6" fill="#1C1E53"/>
<circle cx="113" cy="172" r="6" fill="#1C1E53"/>
<circle cx="127" cy="172" r="6" fill="#1C1E53"/>
<circle cx="127" cy="186" r="6" fill="#1C1E53"/>
<circle cx="127" cy="200" r="6" fill="#1C1E53"/>
<circle cx="127" cy="214" r="6" fill="#1C1E53"/>
<circle cx="127" cy="228" r="6" fill="#1C1E53"/>
<circle cx="224" cy="81" r="6" fill="#1C1E53"/>
<circle cx="224" cy="95" r="6" fill="#1C1E53"/>
<circle cx="224" cy="109" r="6" fill="#1C1E53"/>
<circle cx="224" cy="123" r="6" fill="#1C1E53"/>
<circle cx="72" cy="98" r="6" fill="#1C1E53"/>
<circle cx="72" cy="112" r="6" fill="#1C1E53"/>
<circle cx="72" cy="126" r="6" fill="#1C1E53"/>
<circle cx="72" cy="140" r="6" fill="#1C1E53"/>
<circle cx="239" cy="134" r="6" fill="#1C1E53"/>
<circle cx="227" cy="146" r="6" fill="#1C1E53"/>
<circle cx="253" cy="134" r="6" fill="#1C1E53"/>
<circle cx="251" cy="146" r="6" fill="#1C1E53"/>
<circle cx="213" cy="170" r="6" fill="#1C1E53"/>
<circle cx="227" cy="170" r="6" fill="#1C1E53"/>
<circle cx="241" cy="170" r="6" fill="#1C1E53"/>
<circle cx="213" cy="184" r="6" fill="#1C1E53"/>
<circle cx="227" cy="184" r="6" fill="#1C1E53"/>
<circle cx="241" cy="184" r="6" fill="#1C1E53"/>
<circle cx="213" cy="198" r="6" fill="#1C1E53"/>
<circle cx="227" cy="198" r="6" fill="#1C1E53"/>
<circle cx="241" cy="198" r="6" fill="#1C1E53"/>
<circle cx="213" cy="212" r="6" fill="#1C1E53"/>
<circle cx="267" cy="134" r="6" fill="#1C1E53"/>
<circle cx="285" cy="134" r="6" fill="#1C1E53"/>
<circle cx="278" cy="146" r="6" fill="#1C1E53"/>
<circle cx="278" cy="159" r="6" fill="#1C1E53"/>
<circle cx="278" cy="172" r="6" fill="#1C1E53"/>
<circle cx="299" cy="134" r="6" fill="#1C1E53"/>
<circle cx="314" cy="134" r="6" fill="#1C1E53"/>
<circle cx="305" cy="146" r="6" fill="#1C1E53"/>
<circle cx="332" cy="146" r="6" fill="#1C1E53"/>
<circle cx="332" cy="172" r="6" fill="#1C1E53"/>
<circle cx="305" cy="172" r="6" fill="#1C1E53"/>
<circle cx="307" cy="196" r="6" fill="#1C1E53"/>
<circle cx="293" cy="196" r="6" fill="#1C1E53"/>
<circle cx="293" cy="182" r="6" fill="#1C1E53"/>
<circle cx="278" cy="196" r="6" fill="#1C1E53"/>
<circle cx="249" cy="228" r="6" fill="#1C1E53"/>
<circle cx="332" cy="186" r="6" fill="#1C1E53"/>
<circle cx="341" cy="199" r="6" fill="#1C1E53"/>
<circle cx="355" cy="199" r="6" fill="#1C1E53"/>
<circle cx="355" cy="237" r="6" fill="#1C1E53"/>
<circle cx="303" cy="223" r="6" fill="#1C1E53"/>
<circle cx="317" cy="223" r="6" fill="#1C1E53"/>
<circle cx="331" cy="223" r="6" fill="#1C1E53"/>
<circle cx="345" cy="223" r="6" fill="#1C1E53"/>
<circle cx="303" cy="237" r="6" fill="#1C1E53"/>
<circle cx="317" cy="237" r="6" fill="#1C1E53"/>
<circle cx="225" cy="273" r="6" fill="#1C1E53"/>
<circle cx="239" cy="273" r="6" fill="#1C1E53"/>
<circle cx="253" cy="273" r="6" fill="#1C1E53"/>
<circle cx="267" cy="273" r="6" fill="#1C1E53"/>
<circle cx="281" cy="273" r="6" fill="#1C1E53"/>
<circle cx="295" cy="273" r="6" fill="#1C1E53"/>
<circle cx="303" cy="250" r="6" fill="#1C1E53"/>
<circle cx="317" cy="251" r="6" fill="#1C1E53"/>
<circle cx="331" cy="249" r="6" fill="#1C1E53"/>
<circle cx="331" cy="263" r="6" fill="#1C1E53"/>
<circle cx="331" cy="277" r="6" fill="#1C1E53"/>
<circle cx="345" cy="261" r="6" fill="#1C1E53"/>
<circle cx="317" cy="275" r="6" fill="#1C1E53"/>
<circle cx="303" cy="263" r="6" fill="#1C1E53"/>
<circle cx="331" cy="291" r="6" fill="#1C1E53"/>
<circle cx="331" cy="304" r="6" fill="#1C1E53"/>
<circle cx="367" cy="184" r="6" fill="#1C1E53"/>
<circle cx="382" cy="185" r="6" fill="#1C1E53"/>
<circle cx="384" cy="211" r="6" fill="#1C1E53"/>
<circle cx="370" cy="211" r="6" fill="#1C1E53"/>
<circle cx="382" cy="237" r="6" fill="#1C1E53"/>
<circle cx="382" cy="251" r="6" fill="#1C1E53"/>
<circle cx="367" cy="249" r="6" fill="#1C1E53"/>
<circle cx="397" cy="171" r="6" fill="#1C1E53"/>
<circle cx="397" cy="185" r="6" fill="#1C1E53"/>
<circle cx="397" cy="199" r="6" fill="#1C1E53"/>
<circle cx="397" cy="213" r="6" fill="#1C1E53"/>
<circle cx="397" cy="227" r="6" fill="#1C1E53"/>
<circle cx="411" cy="172" r="6" fill="#1C1E53"/>
<circle cx="421" cy="184" r="6" fill="#1C1E53"/>
<circle cx="433" cy="211" r="6" fill="#1C1E53"/>
<circle cx="421" cy="223" r="6" fill="#1C1E53"/>
<circle cx="409" cy="237" r="6" fill="#1C1E53"/>
<circle cx="395" cy="249" r="6" fill="#1C1E53"/>
<circle cx="370" cy="275" r="6" fill="#1C1E53"/>
<circle cx="381" cy="287" r="6" fill="#1C1E53"/>
<circle cx="383" cy="263" r="6" fill="#1C1E53"/>
<circle cx="397" cy="263" r="6" fill="#1C1E53"/>
<circle cx="411" cy="263" r="6" fill="#1C1E53"/>
<circle cx="425" cy="263" r="6" fill="#1C1E53"/>
<circle cx="419" cy="277" r="6" fill="#1C1E53"/>
<circle cx="434" cy="301" r="6" fill="#1C1E53"/>
<circle cx="407" cy="312" r="6" fill="#1C1E53"/>
<circle cx="407" cy="326" r="6" fill="#1C1E53"/>
<circle cx="397" cy="340" r="6" fill="#1C1E53"/>
<circle cx="411" cy="340" r="6" fill="#1C1E53"/>
<circle cx="425" cy="340" r="6" fill="#1C1E53"/>
<circle cx="434" cy="326" r="6" fill="#1C1E53"/>
<circle cx="421" cy="367" r="6" fill="#1C1E53"/>
<circle cx="395" cy="366" r="6" fill="#1C1E53"/>
<circle cx="164" cy="414" r="6" fill="#1C1E53"/>
<circle cx="407" cy="392" r="6" fill="#1C1E53"/>
<circle cx="420" cy="390" r="6" fill="#1C1E53"/>
<circle cx="420" cy="404" r="6" fill="#1C1E53"/>
<circle cx="433" cy="404" r="6" fill="#1C1E53"/>
<circle cx="433" cy="418" r="6" fill="#1C1E53"/>
<circle cx="408" cy="418" r="6" fill="#1C1E53"/>
<circle cx="407" cy="354" r="6" fill="#1C1E53"/>
<circle cx="395" cy="278" r="6" fill="#1C1E53"/>
<circle cx="395" cy="292" r="6" fill="#1C1E53"/>
<circle cx="395" cy="306" r="6" fill="#1C1E53"/>
<circle cx="434" cy="237" r="6" fill="#1C1E53"/>
<circle cx="434" cy="251" r="6" fill="#1C1E53"/>
<circle cx="239" cy="117" r="6" fill="#1C1E53"/>
<circle cx="253" cy="117" r="6" fill="#1C1E53"/>
<circle cx="267" cy="117" r="6" fill="#1C1E53"/>
<circle cx="281" cy="117" r="6" fill="#1C1E53"/>
<circle cx="295" cy="117" r="6" fill="#1C1E53"/>
<circle cx="309" cy="117" r="6" fill="#1C1E53"/>
<circle cx="323" cy="117" r="6" fill="#1C1E53"/>
<circle cx="337" cy="117" r="6" fill="#1C1E53"/>
<circle cx="74" cy="155" r="6" fill="#1C1E53"/>
<circle cx="88" cy="155" r="6" fill="#1C1E53"/>
<circle cx="102" cy="155" r="6" fill="#1C1E53"/>
<circle cx="116" cy="155" r="6" fill="#1C1E53"/>
<circle cx="130" cy="155" r="6" fill="#1C1E53"/>
<circle cx="144" cy="155" r="6" fill="#1C1E53"/>
<circle cx="158" cy="155" r="6" fill="#1C1E53"/>
<circle cx="172" cy="155" r="6" fill="#1C1E53"/>
<circle cx="346" cy="104" r="6" fill="#1C1E53"/>
<circle cx="332" cy="81" r="6" fill="#1C1E53"/>
<circle cx="332" cy="95" r="6" fill="#1C1E53"/>
<circle cx="287" cy="106" r="6" fill="#1C1E53"/>
<circle cx="251" cy="93" r="6" fill="#1C1E53"/>
<circle cx="275" cy="81" r="6" fill="#1C1E53"/>
<circle cx="275" cy="93" r="6" fill="#1C1E53"/>
<circle cx="305" cy="93" r="6" fill="#1C1E53"/>
<circle cx="251" cy="69" r="6" fill="#1C1E53"/>
<circle cx="265" cy="69" r="6" fill="#1C1E53"/>
<circle cx="279" cy="69" r="6" fill="#1C1E53"/>
<circle cx="293" cy="69" r="6" fill="#1C1E53"/>
<circle cx="307" cy="69" r="6" fill="#1C1E53"/>
<circle cx="321" cy="69" r="6" fill="#1C1E53"/>
</svg>
