<svg width="500" height="500" viewBox="0 0 500 500" fill="none" xmlns="http://www.w3.org/2000/svg">
<rect width="500" height="500" fill="white"/>
<rect x="177" y="65" width="57" height="14" fill="#1C1E53"/>
<rect x="205" y="195" width="57" height="14" fill="#1C1E53"/>
<rect x="235" y="340" width="64" height="14" fill="#1C1E53"/>
<rect x="65" y="261" width="41" height="14" fill="#1C1E53"/>
<rect x="90" y="285" width="41" height="14" fill="#1C1E53"/>
<rect x="65" y="299" width="66" height="14" fill="#1C1E53"/>
<rect x="65" y="326" width="66" height="14" fill="#1C1E53"/>
<rect x="118" y="261" width="25" height="14" fill="#1C1E53"/>
<rect x="63" y="119" width="25" height="14" fill="#1C1E53"/>
<rect x="131" y="275" width="25" height="14" fill="#1C1E53"/>
<rect x="130" y="248" width="25" height="14" fill="#1C1E53"/>
<rect x="117" y="234" width="25" height="14" fill="#1C1E53"/>
<rect x="289" y="260" width="25" height="14" fill="#1C1E53"/>
<rect x="276" y="246" width="25" height="14" fill="#1C1E53"/>
<rect x="256" y="324" width="25" height="14" fill="#1C1E53"/>
<rect x="208" y="299" width="27" height="14" fill="#1C1E53"/>
<rect x="169" y="313" width="29" height="14" fill="#1C1E53"/>
<rect x="106" y="312" width="25" height="14" fill="#1C1E53"/>
<rect x="65" y="312" width="25" height="14" fill="#1C1E53"/>
<rect x="260" y="351" width="26" height="14" fill="#1C1E53"/>
<rect x="158" y="261" width="14" height="14" fill="#1C1E53"/>
<rect x="103" y="119" width="14" height="14" fill="#1C1E53"/>
<rect x="182" y="260" width="14" height="26" fill="#1C1E53"/>
<rect x="127" y="118" width="14" height="26" fill="#1C1E53"/>
<rect x="157" y="286" width="14" height="14" fill="#1C1E53"/>
<rect x="144" y="300" width="14" height="14" fill="#1C1E53"/>
<rect x="144" y="326" width="14" height="14" fill="#1C1E53"/>
<rect x="169" y="339" width="14" height="26" fill="#1C1E53"/>
<rect x="169" y="378" width="14" height="27" fill="#1C1E53"/>
<rect x="104" y="354" width="14" height="27" fill="#1C1E53"/>
<rect x="170" y="140" width="14" height="14" fill="#1C1E53"/>
<rect x="169" y="183" width="14" height="26" fill="#1C1E53"/>
<rect x="220" y="142" width="14" height="14" fill="#1C1E53"/>
<rect x="248" y="145" width="14" height="26" fill="#1C1E53"/>
<rect x="324" y="170" width="14" height="26" fill="#1C1E53"/>
<rect x="195" y="128" width="14" height="26" fill="#1C1E53"/>
<rect x="273" y="77" width="14" height="28" fill="#1C1E53"/>
<rect x="325" y="78" width="14" height="28" fill="#1C1E53"/>
<rect x="299" y="91" width="14" height="14" fill="#1C1E53"/>
<rect x="247" y="91" width="14" height="14" fill="#1C1E53"/>
<rect x="311" y="105" width="14" height="14" fill="#1C1E53"/>
<rect x="326" y="142" width="14" height="14" fill="#1C1E53"/>
<rect x="273" y="144" width="14" height="38" fill="#1C1E53"/>
<rect x="390" y="183" width="14" height="52" fill="#1C1E53"/>
<rect x="416" y="182" width="14" height="14" fill="#1C1E53"/>
<rect x="381" y="76" width="14" height="14" fill="#1C1E53"/>
<rect x="394" y="101" width="14" height="14" fill="#1C1E53"/>
<rect x="395" y="129" width="14" height="25" fill="#1C1E53"/>
<rect x="417" y="261" width="14" height="25" fill="#1C1E53"/>
<rect x="325" y="262" width="14" height="50" fill="#1C1E53"/>
<rect x="416" y="223" width="14" height="14" fill="#1C1E53"/>
<rect x="381" y="117" width="14" height="14" fill="#1C1E53"/>
<rect x="402" y="235" width="14" height="14" fill="#1C1E53"/>
<rect x="367" y="129" width="14" height="14" fill="#1C1E53"/>
<rect x="252" y="221" width="14" height="14" fill="#1C1E53"/>
<rect x="388" y="247" width="14" height="14" fill="#1C1E53"/>
<rect x="238" y="233" width="14" height="14" fill="#1C1E53"/>
<rect x="390" y="274" width="14" height="38" fill="#1C1E53"/>
<rect x="376" y="233" width="14" height="14" fill="#1C1E53"/>
<rect x="226" y="219" width="14" height="14" fill="#1C1E53"/>
<rect x="364" y="249" width="14" height="14" fill="#1C1E53"/>
<rect x="372" y="261" width="46" height="14" fill="#1C1E53"/>
<rect x="350" y="235" width="14" height="14" fill="#1C1E53"/>
<rect x="302" y="237" width="14" height="14" fill="#1C1E53"/>
<rect x="300" y="260" width="14" height="14" fill="#1C1E53"/>
<rect x="338" y="261" width="14" height="14" fill="#1C1E53"/>
<rect x="364" y="273" width="14" height="14" fill="#1C1E53"/>
<rect x="365" y="300" width="14" height="14" fill="#1C1E53"/>
<rect x="377" y="287" width="14" height="14" fill="#1C1E53"/>
<rect x="416" y="366" width="14" height="14" fill="#1C1E53"/>
<rect x="390" y="366" width="14" height="14" fill="#1C1E53"/>
<rect x="402" y="419" width="14" height="14" fill="#1C1E53"/>
<rect x="325" y="340" width="14" height="14" fill="#1C1E53"/>
<rect x="351" y="351" width="14" height="14" fill="#1C1E53"/>
<rect x="403" y="312" width="14" height="27" fill="#1C1E53"/>
<rect x="376" y="351" width="14" height="28" fill="#1C1E53"/>
<rect x="365" y="313" width="14" height="14" fill="#1C1E53"/>
<rect x="310" y="379" width="14" height="14" fill="#1C1E53"/>
<rect x="286" y="389" width="14" height="14" fill="#1C1E53"/>
<rect x="365" y="391" width="14" height="14" fill="#1C1E53"/>
<rect x="246" y="363" width="14" height="14" fill="#1C1E53"/>
<rect x="232" y="390" width="14" height="14" fill="#1C1E53"/>
<rect x="273" y="376" width="14" height="14" fill="#1C1E53"/>
<rect x="116" y="406" width="14" height="14" fill="#1C1E53"/>
<rect x="181" y="405" width="14" height="14" fill="#1C1E53"/>
<rect x="116" y="381" width="14" height="14" fill="#1C1E53"/>
<rect x="195" y="391" width="14" height="14" fill="#1C1E53"/>
<rect x="130" y="367" width="14" height="14" fill="#1C1E53"/>
<rect x="209" y="377" width="14" height="14" fill="#1C1E53"/>
<rect x="144" y="353" width="14" height="14" fill="#1C1E53"/>
<rect x="221" y="352" width="14" height="14" fill="#1C1E53"/>
<rect x="195" y="352" width="14" height="14" fill="#1C1E53"/>
<rect x="224" y="258" width="14" height="14" fill="#1C1E53"/>
<rect x="195" y="324" width="14" height="14" fill="#1C1E53"/>
<rect x="198" y="313" width="14" height="14" fill="#1C1E53"/>
<rect x="183" y="300" width="14" height="14" fill="#1C1E53"/>
<rect x="287" y="232" width="14" height="14" fill="#1C1E53"/>
<rect x="235" y="313" width="14" height="27" fill="#1C1E53"/>
<rect x="402" y="352" width="14" height="14" fill="#1C1E53"/>
<rect x="416" y="339" width="14" height="14" fill="#1C1E53"/>
<rect x="313" y="272" width="14" height="14" fill="#1C1E53"/>
<rect x="285" y="105" width="14" height="14" fill="#1C1E53"/>
<rect x="297" y="145" width="14" height="14" fill="#1C1E53"/>
<rect x="299" y="168" width="14" height="14" fill="#1C1E53"/>
<rect x="286" y="182" width="14" height="14" fill="#1C1E53"/>
<rect x="78" y="235" width="14" height="14" fill="#1C1E53"/>
<rect x="65" y="286" width="14" height="14" fill="#1C1E53"/>
<rect x="65" y="247" width="14" height="14" fill="#1C1E53"/>
<rect x="64" y="209" width="14" height="14" fill="#1C1E53"/>
<rect x="92" y="209" width="14" height="14" fill="#1C1E53"/>
<rect x="104" y="247" width="14" height="14" fill="#1C1E53"/>
<rect x="129" y="209" width="14" height="14" fill="#1C1E53"/>
<rect x="144" y="221" width="14" height="14" fill="#1C1E53"/>
<rect x="143" y="195" width="14" height="14" fill="#1C1E53"/>
<rect x="168" y="91" width="14" height="14" fill="#1C1E53"/>
<rect x="223" y="65" width="14" height="53" fill="#1C1E53"/>
<rect x="157" y="209" width="14" height="14" fill="#1C1E53"/>
<rect x="181" y="207" width="14" height="14" fill="#1C1E53"/>
<rect x="169" y="221" width="14" height="40" fill="#1C1E53"/>
<rect x="195" y="222" width="14" height="77" fill="#1C1E53"/>
<rect x="140" y="80" width="14" height="77" fill="#1C1E53"/>
<rect x="302" y="223" width="62" height="14" fill="#1C1E53"/>
<rect x="275" y="195" width="36" height="14" fill="#1C1E53"/>
<rect x="168" y="105" width="29" height="14" fill="#1C1E53"/>
<rect x="336" y="195" width="28" height="14" fill="#1C1E53"/>
<rect x="391" y="169" width="26" height="14" fill="#1C1E53"/>
<rect x="356" y="63" width="26" height="14" fill="#1C1E53"/>
<rect x="316" y="249" width="22" height="14" fill="#1C1E53"/>
<rect x="364" y="182" width="28" height="14" fill="#1C1E53"/>
<rect x="273" y="416" width="28" height="14" fill="#1C1E53"/>
<rect x="195" y="416" width="28" height="14" fill="#1C1E53"/>
<rect x="130" y="392" width="28" height="14" fill="#1C1E53"/>
<rect x="337" y="313" width="28" height="14" fill="#1C1E53"/>
<rect x="365" y="403" width="39" height="14" fill="#1C1E53"/>
<rect x="364" y="209" width="28" height="14" fill="#1C1E53"/>
<rect x="404" y="391" width="28" height="14" fill="#1C1E53"/>
<rect x="376" y="339" width="40" height="14" fill="#1C1E53"/>
<rect x="311" y="351" width="28" height="14" fill="#1C1E53"/>
<rect x="278" y="298" width="28" height="26" fill="#1C1E53"/>
<rect x="246" y="377" width="28" height="26" fill="#1C1E53"/>
<rect x="223" y="181" width="24" height="14" fill="#1C1E53"/>
<rect x="209" y="167" width="38" height="14" fill="#1C1E53"/>
<rect x="185" y="154" width="24" height="14" fill="#1C1E53"/>
<rect x="144" y="168" width="24" height="14" fill="#1C1E53"/>
<rect x="106" y="168" width="24" height="41" fill="#1C1E53"/>
<rect x="247" y="65" width="77" height="14" fill="#1C1E53"/>
<rect x="325" y="327" width="67" height="14" fill="#1C1E53"/>
<rect x="324" y="379" width="66" height="14" fill="#1C1E53"/>
<rect x="273" y="365" width="66" height="14" fill="#1C1E53"/>
<rect x="234" y="132" width="77" height="14" fill="#1C1E53"/>
<rect x="222" y="403" width="89" height="14" fill="#1C1E53"/>
<rect x="223" y="118" width="105" height="14" fill="#1C1E53"/>
</svg>
