<svg width="500" height="500" viewBox="0 0 500 500" fill="none" xmlns="http://www.w3.org/2000/svg">
<rect width="500" height="500" fill="white"/>
<rect x="172" y="63" width="14" height="14" fill="#1C1E53"/>
<rect x="167" y="88" width="14" height="14" fill="#1C1E53"/>
<rect x="167" y="104" width="14" height="14" fill="#1C1E53"/>
<rect x="183" y="104" width="14" height="14" fill="#1C1E53"/>
<rect x="167" y="141" width="14" height="14" fill="#1C1E53"/>
<rect x="68" y="102" width="14" height="14" fill="#1C1E53"/>
<rect x="115" y="168" width="14" height="14" fill="#1C1E53"/>
<rect x="138" y="168" width="14" height="14" fill="#1C1E53"/>
<rect x="154" y="168" width="14" height="14" fill="#1C1E53"/>
<rect x="168" y="180" width="14" height="14" fill="#1C1E53"/>
<rect x="168" y="196" width="14" height="14" fill="#1C1E53"/>
<rect x="141" y="193" width="14" height="14" fill="#1C1E53"/>
<rect x="129" y="210" width="14" height="14" fill="#1C1E53"/>
<rect x="154" y="210" width="14" height="14" fill="#1C1E53"/>
<rect x="168" y="224" width="14" height="14" fill="#1C1E53"/>
<rect x="195" y="224" width="14" height="14" fill="#1C1E53"/>
<rect x="195" y="240" width="14" height="14" fill="#1C1E53"/>
<rect x="195" y="256" width="14" height="14" fill="#1C1E53"/>
<rect x="179" y="256" width="14" height="14" fill="#1C1E53"/>
<rect x="179" y="272" width="14" height="14" fill="#1C1E53"/>
<rect x="195" y="272" width="14" height="14" fill="#1C1E53"/>
<rect x="195" y="288" width="14" height="14" fill="#1C1E53"/>
<rect x="168" y="240" width="14" height="14" fill="#1C1E53"/>
<rect x="181" y="210" width="14" height="14" fill="#1C1E53"/>
<rect x="99" y="168" width="14" height="14" fill="#1C1E53"/>
<rect x="99" y="184" width="14" height="14" fill="#1C1E53"/>
<rect x="115" y="184" width="14" height="14" fill="#1C1E53"/>
<rect x="99" y="200" width="14" height="14" fill="#1C1E53"/>
<rect x="67" y="205" width="14" height="14" fill="#1C1E53"/>
<rect x="77" y="231" width="14" height="14" fill="#1C1E53"/>
<rect x="63" y="247" width="14" height="14" fill="#1C1E53"/>
<rect x="63" y="263" width="14" height="14" fill="#1C1E53"/>
<rect x="63" y="286" width="14" height="14" fill="#1C1E53"/>
<rect x="63" y="302" width="14" height="14" fill="#1C1E53"/>
<rect x="79" y="302" width="14" height="14" fill="#1C1E53"/>
<rect x="95" y="302" width="14" height="14" fill="#1C1E53"/>
<rect x="79" y="318" width="14" height="14" fill="#1C1E53"/>
<rect x="95" y="318" width="14" height="14" fill="#1C1E53"/>
<rect x="63" y="318" width="14" height="14" fill="#1C1E53"/>
<rect x="63" y="334" width="14" height="14" fill="#1C1E53"/>
<rect x="79" y="334" width="14" height="14" fill="#1C1E53"/>
<rect x="95" y="334" width="14" height="14" fill="#1C1E53"/>
<rect x="111" y="334" width="14" height="14" fill="#1C1E53"/>
<rect x="111" y="318" width="14" height="14" fill="#1C1E53"/>
<rect x="111" y="302" width="14" height="14" fill="#1C1E53"/>
<rect x="141" y="323" width="14" height="14" fill="#1C1E53"/>
<rect x="141" y="298" width="14" height="14" fill="#1C1E53"/>
<rect x="165" y="311" width="14" height="14" fill="#1C1E53"/>
<rect x="70" y="383" width="14" height="14" fill="#1C1E53"/>
<rect x="181" y="311" width="14" height="14" fill="#1C1E53"/>
<rect x="86" y="383" width="14" height="14" fill="#1C1E53"/>
<rect x="197" y="311" width="14" height="14" fill="#1C1E53"/>
<rect x="102" y="383" width="14" height="14" fill="#1C1E53"/>
<rect x="212" y="298" width="14" height="14" fill="#1C1E53"/>
<rect x="117" y="370" width="14" height="14" fill="#1C1E53"/>
<rect x="228" y="298" width="14" height="14" fill="#1C1E53"/>
<rect x="133" y="370" width="14" height="14" fill="#1C1E53"/>
<rect x="228" y="314" width="14" height="14" fill="#1C1E53"/>
<rect x="133" y="386" width="14" height="14" fill="#1C1E53"/>
<rect x="228" y="330" width="14" height="14" fill="#1C1E53"/>
<rect x="133" y="402" width="14" height="14" fill="#1C1E53"/>
<rect x="244" y="330" width="14" height="14" fill="#1C1E53"/>
<rect x="260" y="330" width="14" height="14" fill="#1C1E53"/>
<rect x="260" y="346" width="14" height="14" fill="#1C1E53"/>
<rect x="276" y="346" width="14" height="14" fill="#1C1E53"/>
<rect x="276" y="362" width="14" height="14" fill="#1C1E53"/>
<rect x="278" y="379" width="14" height="14" fill="#1C1E53"/>
<rect x="262" y="379" width="14" height="14" fill="#1C1E53"/>
<rect x="262" y="395" width="14" height="14" fill="#1C1E53"/>
<rect x="273" y="411" width="14" height="14" fill="#1C1E53"/>
<rect x="289" y="411" width="14" height="14" fill="#1C1E53"/>
<rect x="324" y="411" width="14" height="14" fill="#1C1E53"/>
<rect x="324" y="396" width="14" height="14" fill="#1C1E53"/>
<rect x="340" y="396" width="14" height="14" fill="#1C1E53"/>
<rect x="364" y="385" width="14" height="14" fill="#1C1E53"/>
<rect x="364" y="401" width="14" height="14" fill="#1C1E53"/>
<rect x="380" y="401" width="14" height="14" fill="#1C1E53"/>
<rect x="380" y="417" width="14" height="14" fill="#1C1E53"/>
<rect x="403" y="416" width="14" height="14" fill="#1C1E53"/>
<rect x="364" y="417" width="14" height="14" fill="#1C1E53"/>
<rect x="340" y="411" width="14" height="14" fill="#1C1E53"/>
<rect x="300" y="396" width="14" height="14" fill="#1C1E53"/>
<rect x="284" y="395" width="14" height="14" fill="#1C1E53"/>
<rect x="292" y="362" width="14" height="14" fill="#1C1E53"/>
<rect x="308" y="362" width="14" height="14" fill="#1C1E53"/>
<rect x="309" y="378" width="14" height="14" fill="#1C1E53"/>
<rect x="246" y="363" width="14" height="14" fill="#1C1E53"/>
<rect x="246" y="379" width="14" height="14" fill="#1C1E53"/>
<rect x="246" y="395" width="14" height="14" fill="#1C1E53"/>
<rect x="230" y="389" width="14" height="14" fill="#1C1E53"/>
<rect x="214" y="401" width="14" height="14" fill="#1C1E53"/>
<rect x="230" y="405" width="14" height="14" fill="#1C1E53"/>
<rect x="230" y="421" width="14" height="14" fill="#1C1E53"/>
<rect x="213" y="423" width="14" height="14" fill="#1C1E53"/>
<rect x="246" y="411" width="14" height="14" fill="#1C1E53"/>
<rect x="276" y="330" width="14" height="14" fill="#1C1E53"/>
<rect x="292" y="330" width="14" height="14" fill="#1C1E53"/>
<rect x="291" y="314" width="14" height="14" fill="#1C1E53"/>
<rect x="255" y="251" width="14" height="14" fill="#1C1E53"/>
<rect x="275" y="314" width="14" height="14" fill="#1C1E53"/>
<rect x="239" y="251" width="14" height="14" fill="#1C1E53"/>
<rect x="259" y="311" width="14" height="14" fill="#1C1E53"/>
<rect x="223" y="248" width="14" height="14" fill="#1C1E53"/>
<rect x="275" y="298" width="14" height="14" fill="#1C1E53"/>
<rect x="239" y="235" width="14" height="14" fill="#1C1E53"/>
<rect x="197" y="327" width="14" height="14" fill="#1C1E53"/>
<rect x="102" y="399" width="14" height="14" fill="#1C1E53"/>
<rect x="168" y="337" width="14" height="14" fill="#1C1E53"/>
<rect x="73" y="409" width="14" height="14" fill="#1C1E53"/>
<rect x="168" y="353" width="14" height="14" fill="#1C1E53"/>
<rect x="193" y="351" width="14" height="14" fill="#1C1E53"/>
<rect x="220" y="351" width="14" height="14" fill="#1C1E53"/>
<rect x="212" y="375" width="14" height="14" fill="#1C1E53"/>
<rect x="196" y="389" width="14" height="14" fill="#1C1E53"/>
<rect x="198" y="415" width="14" height="14" fill="#1C1E53"/>
<rect x="181" y="401" width="14" height="14" fill="#1C1E53"/>
<rect x="168" y="370" width="14" height="14" fill="#1C1E53"/>
<rect x="168" y="386" width="14" height="14" fill="#1C1E53"/>
<rect x="213" y="327" width="14" height="14" fill="#1C1E53"/>
<rect x="118" y="399" width="14" height="14" fill="#1C1E53"/>
<rect x="181" y="295" width="14" height="14" fill="#1C1E53"/>
<rect x="86" y="367" width="14" height="14" fill="#1C1E53"/>
<rect x="95" y="286" width="14" height="14" fill="#1C1E53"/>
<rect x="79" y="263" width="14" height="14" fill="#1C1E53"/>
<rect x="95" y="263" width="14" height="14" fill="#1C1E53"/>
<rect x="102" y="247" width="14" height="14" fill="#1C1E53"/>
<rect x="116" y="233" width="14" height="14" fill="#1C1E53"/>
<rect x="132" y="233" width="14" height="14" fill="#1C1E53"/>
<rect x="132" y="249" width="14" height="14" fill="#1C1E53"/>
<rect x="148" y="247" width="14" height="14" fill="#1C1E53"/>
<rect x="155" y="262" width="14" height="14" fill="#1C1E53"/>
<rect x="131" y="265" width="14" height="14" fill="#1C1E53"/>
<rect x="154" y="284" width="14" height="14" fill="#1C1E53"/>
<rect x="116" y="259" width="14" height="14" fill="#1C1E53"/>
<rect x="115" y="200" width="14" height="14" fill="#1C1E53"/>
<rect x="220" y="141" width="14" height="14" fill="#1C1E53"/>
<rect x="181" y="155" width="14" height="14" fill="#1C1E53"/>
<rect x="82" y="116" width="14" height="14" fill="#1C1E53"/>
<rect x="197" y="155" width="14" height="14" fill="#1C1E53"/>
<rect x="98" y="116" width="14" height="14" fill="#1C1E53"/>
<rect x="213" y="166" width="14" height="14" fill="#1C1E53"/>
<rect x="114" y="127" width="14" height="14" fill="#1C1E53"/>
<rect x="229" y="166" width="14" height="14" fill="#1C1E53"/>
<rect x="230" y="182" width="14" height="14" fill="#1C1E53"/>
<rect x="246" y="194" width="14" height="14" fill="#1C1E53"/>
<rect x="266" y="194" width="14" height="14" fill="#1C1E53"/>
<rect x="282" y="194" width="14" height="14" fill="#1C1E53"/>
<rect x="298" y="193" width="14" height="14" fill="#1C1E53"/>
<rect x="214" y="182" width="14" height="14" fill="#1C1E53"/>
<rect x="198" y="194" width="14" height="14" fill="#1C1E53"/>
<rect x="197" y="139" width="14" height="14" fill="#1C1E53"/>
<rect x="98" y="100" width="14" height="14" fill="#1C1E53"/>
<rect x="197" y="123" width="14" height="14" fill="#1C1E53"/>
<rect x="98" y="84" width="14" height="14" fill="#1C1E53"/>
<rect x="188" y="63" width="14" height="14" fill="#1C1E53"/>
<rect x="204" y="63" width="14" height="14" fill="#1C1E53"/>
<rect x="220" y="63" width="14" height="14" fill="#1C1E53"/>
<rect x="220" y="79" width="14" height="14" fill="#1C1E53"/>
<rect x="220" y="95" width="14" height="14" fill="#1C1E53"/>
<rect x="220" y="111" width="14" height="14" fill="#1C1E53"/>
<rect x="236" y="111" width="14" height="14" fill="#1C1E53"/>
<rect x="236" y="127" width="14" height="14" fill="#1C1E53"/>
<rect x="252" y="127" width="14" height="14" fill="#1C1E53"/>
<rect x="252" y="143" width="14" height="14" fill="#1C1E53"/>
<rect x="252" y="159" width="14" height="14" fill="#1C1E53"/>
<rect x="268" y="127" width="14" height="14" fill="#1C1E53"/>
<rect x="284" y="127" width="14" height="14" fill="#1C1E53"/>
<rect x="284" y="143" width="14" height="14" fill="#1C1E53"/>
<rect x="284" y="159" width="14" height="14" fill="#1C1E53"/>
<rect x="284" y="175" width="14" height="14" fill="#1C1E53"/>
<rect x="300" y="127" width="14" height="14" fill="#1C1E53"/>
<rect x="316" y="127" width="14" height="14" fill="#1C1E53"/>
<rect x="316" y="143" width="14" height="14" fill="#1C1E53"/>
<rect x="323" y="166" width="14" height="14" fill="#1C1E53"/>
<rect x="323" y="182" width="14" height="14" fill="#1C1E53"/>
<rect x="337" y="194" width="14" height="14" fill="#1C1E53"/>
<rect x="353" y="194" width="14" height="14" fill="#1C1E53"/>
<rect x="359" y="114" width="14" height="14" fill="#1C1E53"/>
<rect x="367" y="180" width="14" height="14" fill="#1C1E53"/>
<rect x="373" y="100" width="14" height="14" fill="#1C1E53"/>
<rect x="383" y="180" width="14" height="14" fill="#1C1E53"/>
<rect x="389" y="100" width="14" height="14" fill="#1C1E53"/>
<rect x="398" y="166" width="14" height="14" fill="#1C1E53"/>
<rect x="414" y="166" width="14" height="14" fill="#1C1E53"/>
<rect x="415" y="182" width="14" height="14" fill="#1C1E53"/>
<rect x="415" y="218" width="14" height="14" fill="#1C1E53"/>
<rect x="403" y="233" width="14" height="14" fill="#1C1E53"/>
<rect x="389" y="249" width="14" height="14" fill="#1C1E53"/>
<rect x="389" y="265" width="14" height="14" fill="#1C1E53"/>
<rect x="373" y="265" width="14" height="14" fill="#1C1E53"/>
<rect x="362" y="281" width="14" height="14" fill="#1C1E53"/>
<rect x="362" y="246" width="14" height="14" fill="#1C1E53"/>
<rect x="405" y="265" width="14" height="14" fill="#1C1E53"/>
<rect x="421" y="265" width="14" height="14" fill="#1C1E53"/>
<rect x="421" y="281" width="14" height="14" fill="#1C1E53"/>
<rect x="403" y="312" width="14" height="14" fill="#1C1E53"/>
<rect x="403" y="328" width="14" height="14" fill="#1C1E53"/>
<rect x="375" y="321" width="14" height="14" fill="#1C1E53"/>
<rect x="359" y="321" width="14" height="14" fill="#1C1E53"/>
<rect x="343" y="321" width="14" height="14" fill="#1C1E53"/>
<rect x="327" y="321" width="14" height="14" fill="#1C1E53"/>
<rect x="327" y="337" width="14" height="14" fill="#1C1E53"/>
<rect x="327" y="353" width="14" height="14" fill="#1C1E53"/>
<rect x="327" y="369" width="14" height="14" fill="#1C1E53"/>
<rect x="343" y="369" width="14" height="14" fill="#1C1E53"/>
<rect x="359" y="369" width="14" height="14" fill="#1C1E53"/>
<rect x="375" y="369" width="14" height="14" fill="#1C1E53"/>
<rect x="375" y="353" width="14" height="14" fill="#1C1E53"/>
<rect x="375" y="337" width="14" height="14" fill="#1C1E53"/>
<rect x="350" y="346" width="14" height="14" fill="#1C1E53"/>
<rect x="415" y="361" width="14" height="14" fill="#1C1E53"/>
<rect x="403" y="388" width="14" height="14" fill="#1C1E53"/>
<rect x="419" y="387" width="14" height="14" fill="#1C1E53"/>
<rect x="419" y="403" width="14" height="14" fill="#1C1E53"/>
<rect x="391" y="361" width="14" height="14" fill="#1C1E53"/>
<rect x="359" y="305" width="14" height="14" fill="#1C1E53"/>
<rect x="403" y="344" width="14" height="14" fill="#1C1E53"/>
<rect x="419" y="337" width="14" height="14" fill="#1C1E53"/>
<rect x="389" y="281" width="14" height="14" fill="#1C1E53"/>
<rect x="389" y="297" width="14" height="14" fill="#1C1E53"/>
<rect x="383" y="196" width="14" height="14" fill="#1C1E53"/>
<rect x="389" y="116" width="14" height="14" fill="#1C1E53"/>
<rect x="383" y="212" width="14" height="14" fill="#1C1E53"/>
<rect x="389" y="132" width="14" height="14" fill="#1C1E53"/>
<rect x="367" y="210" width="14" height="14" fill="#1C1E53"/>
<rect x="373" y="130" width="14" height="14" fill="#1C1E53"/>
<rect x="351" y="210" width="14" height="14" fill="#1C1E53"/>
<rect x="357" y="130" width="14" height="14" fill="#1C1E53"/>
<rect x="351" y="226" width="14" height="14" fill="#1C1E53"/>
<rect x="335" y="226" width="14" height="14" fill="#1C1E53"/>
<rect x="319" y="226" width="14" height="14" fill="#1C1E53"/>
<rect x="303" y="226" width="14" height="14" fill="#1C1E53"/>
<rect x="287" y="226" width="14" height="14" fill="#1C1E53"/>
<rect x="287" y="241" width="14" height="14" fill="#1C1E53"/>
<rect x="311" y="245" width="14" height="14" fill="#1C1E53"/>
<rect x="327" y="246" width="14" height="14" fill="#1C1E53"/>
<rect x="327" y="262" width="14" height="14" fill="#1C1E53"/>
<rect x="327" y="278" width="14" height="14" fill="#1C1E53"/>
<rect x="311" y="278" width="14" height="14" fill="#1C1E53"/>
<rect x="343" y="278" width="14" height="14" fill="#1C1E53"/>
<rect x="327" y="294" width="14" height="14" fill="#1C1E53"/>
<rect x="287" y="256" width="14" height="14" fill="#1C1E53"/>
<rect x="383" y="228" width="14" height="14" fill="#1C1E53"/>
<rect x="300" y="168" width="14" height="14" fill="#1C1E53"/>
<rect x="252" y="111" width="14" height="14" fill="#1C1E53"/>
<rect x="247" y="95" width="14" height="14" fill="#1C1E53"/>
<rect x="268" y="111" width="14" height="14" fill="#1C1E53"/>
<rect x="284" y="111" width="14" height="14" fill="#1C1E53"/>
<rect x="284" y="95" width="14" height="14" fill="#1C1E53"/>
<rect x="266" y="95" width="14" height="14" fill="#1C1E53"/>
<rect x="266" y="79" width="14" height="14" fill="#1C1E53"/>
<rect x="247" y="63" width="14" height="14" fill="#1C1E53"/>
<rect x="263" y="63" width="14" height="14" fill="#1C1E53"/>
<rect x="279" y="63" width="14" height="14" fill="#1C1E53"/>
<rect x="295" y="63" width="14" height="14" fill="#1C1E53"/>
<rect x="311" y="63" width="14" height="14" fill="#1C1E53"/>
<rect x="332" y="77" width="14" height="14" fill="#1C1E53"/>
<rect x="332" y="93" width="14" height="14" fill="#1C1E53"/>
<rect x="300" y="111" width="14" height="14" fill="#1C1E53"/>
<rect x="300" y="91" width="14" height="14" fill="#1C1E53"/>
<rect x="316" y="111" width="14" height="14" fill="#1C1E53"/>
<rect x="316" y="95" width="14" height="14" fill="#1C1E53"/>
</svg>
