<svg width="500" height="500" viewBox="0 0 500 500" fill="none" xmlns="http://www.w3.org/2000/svg">
<rect width="500" height="500" fill="white"/>
<rect x="169" y="106" width="14" height="14" fill="#1C1E53"/>
<rect x="105" y="63" width="14" height="14" fill="#1C1E53"/>
<rect x="181" y="80" width="54" height="14" fill="#1C1E53"/>
<rect x="169" y="122" width="14" height="14" fill="#1C1E53"/>
<rect x="105" y="79" width="14" height="14" fill="#1C1E53"/>
<rect x="185" y="122" width="14" height="14" fill="#1C1E53"/>
<rect x="121" y="79" width="14" height="14" fill="#1C1E53"/>
<rect x="168" y="159" width="14" height="14" fill="#1C1E53"/>
<rect x="104" y="116" width="14" height="14" fill="#1C1E53"/>
<rect x="195" y="145" width="14" height="14" fill="#1C1E53"/>
<rect x="131" y="102" width="14" height="14" fill="#1C1E53"/>
<rect x="221" y="160" width="14" height="14" fill="#1C1E53"/>
<rect x="250" y="159" width="14" height="14" fill="#1C1E53"/>
<rect x="275" y="161" width="14" height="14" fill="#1C1E53"/>
<rect x="275" y="177" width="14" height="14" fill="#1C1E53"/>
<rect x="275" y="193" width="14" height="14" fill="#1C1E53"/>
<rect x="291" y="200" width="14" height="14" fill="#1C1E53"/>
<rect x="275" y="216" width="41" height="14" fill="#1C1E53"/>
<rect x="307" y="191" width="14" height="14" fill="#1C1E53"/>
<rect x="301" y="160" width="14" height="14" fill="#1C1E53"/>
<rect x="328" y="160" width="14" height="14" fill="#1C1E53"/>
<rect x="395" y="186" width="26" height="14" fill="#1C1E53"/>
<rect x="379" y="121" width="26" height="14" fill="#1C1E53"/>
<rect x="328" y="186" width="14" height="14" fill="#1C1E53"/>
<rect x="372" y="202" width="36" height="14" fill="#1C1E53"/>
<rect x="356" y="137" width="36" height="14" fill="#1C1E53"/>
<rect x="372" y="228" width="36" height="14" fill="#1C1E53"/>
<rect x="356" y="163" width="36" height="14" fill="#1C1E53"/>
<rect x="229" y="249" width="36" height="14" fill="#1C1E53"/>
<rect x="421" y="202" width="14" height="14" fill="#1C1E53"/>
<rect x="405" y="137" width="14" height="14" fill="#1C1E53"/>
<rect x="419" y="159" width="14" height="14" fill="#1C1E53"/>
<rect x="421" y="241" width="14" height="14" fill="#1C1E53"/>
<rect x="408" y="257" width="14" height="14" fill="#1C1E53"/>
<rect x="265" y="278" width="14" height="14" fill="#1C1E53"/>
<rect x="394" y="243" width="14" height="14" fill="#1C1E53"/>
<rect x="251" y="264" width="14" height="14" fill="#1C1E53"/>
<rect x="394" y="273" width="14" height="14" fill="#1C1E53"/>
<rect x="384" y="289" width="51" height="14" fill="#1C1E53"/>
<rect x="378" y="255" width="14" height="14" fill="#1C1E53"/>
<rect x="354" y="255" width="14" height="14" fill="#1C1E53"/>
<rect x="319" y="266" width="26" height="14" fill="#1C1E53"/>
<rect x="331" y="282" width="26" height="14" fill="#1C1E53"/>
<rect x="303" y="239" width="65" height="14" fill="#1C1E53"/>
<rect x="301" y="255" width="14" height="14" fill="#1C1E53"/>
<rect x="316" y="298" width="26" height="14" fill="#1C1E53"/>
<rect x="302" y="280" width="14" height="14" fill="#1C1E53"/>
<rect x="368" y="271" width="14" height="14" fill="#1C1E53"/>
<rect x="368" y="294" width="14" height="14" fill="#1C1E53"/>
<rect x="395" y="323" width="14" height="14" fill="#1C1E53"/>
<rect x="409" y="337" width="14" height="14" fill="#1C1E53"/>
<rect x="409" y="353" width="14" height="14" fill="#1C1E53"/>
<rect x="422" y="387" width="14" height="14" fill="#1C1E53"/>
<rect x="368" y="323" width="14" height="14" fill="#1C1E53"/>
<rect x="381" y="307" width="27" height="14" fill="#1C1E53"/>
<rect x="328" y="314" width="14" height="14" fill="#1C1E53"/>
<rect x="275" y="317" width="14" height="14" fill="#1C1E53"/>
<rect x="235" y="332" width="14" height="14" fill="#1C1E53"/>
<rect x="235" y="348" width="14" height="14" fill="#1C1E53"/>
<rect x="251" y="383" width="14" height="14" fill="#1C1E53"/>
<rect x="290" y="410" width="14" height="14" fill="#1C1E53"/>
<rect x="237" y="410" width="41" height="14" fill="#1C1E53"/>
<rect x="225" y="380" width="14" height="14" fill="#1C1E53"/>
<rect x="78" y="400" width="14" height="14" fill="#1C1E53"/>
<rect x="211" y="395" width="14" height="14" fill="#1C1E53"/>
<rect x="64" y="415" width="14" height="14" fill="#1C1E53"/>
<rect x="197" y="411" width="14" height="14" fill="#1C1E53"/>
<rect x="171" y="411" width="14" height="14" fill="#1C1E53"/>
<rect x="171" y="395" width="14" height="14" fill="#1C1E53"/>
<rect x="171" y="371" width="14" height="14" fill="#1C1E53"/>
<rect x="171" y="355" width="14" height="14" fill="#1C1E53"/>
<rect x="143" y="348" width="14" height="14" fill="#1C1E53"/>
<rect x="142" y="321" width="14" height="14" fill="#1C1E53"/>
<rect x="63" y="304" width="14" height="14" fill="#1C1E53"/>
<rect x="63" y="336" width="27" height="14" fill="#1C1E53"/>
<rect x="63" y="352" width="68" height="14" fill="#1C1E53"/>
<rect x="104" y="336" width="27" height="14" fill="#1C1E53"/>
<rect x="63" y="320" width="54" height="14" fill="#1C1E53"/>
<rect x="90" y="304" width="36" height="14" fill="#1C1E53"/>
<rect x="157" y="305" width="14" height="14" fill="#1C1E53"/>
<rect x="157" y="281" width="14" height="14" fill="#1C1E53"/>
<rect x="130" y="292" width="26" height="14" fill="#1C1E53"/>
<rect x="170" y="265" width="14" height="14" fill="#1C1E53"/>
<rect x="170" y="249" width="14" height="14" fill="#1C1E53"/>
<rect x="157" y="227" width="14" height="14" fill="#1C1E53"/>
<rect x="147" y="242" width="14" height="14" fill="#1C1E53"/>
<rect x="117" y="253" width="27" height="14" fill="#1C1E53"/>
<rect x="131" y="227" width="14" height="14" fill="#1C1E53"/>
<rect x="91" y="227" width="14" height="14" fill="#1C1E53"/>
<rect x="104" y="179" width="26" height="14" fill="#1C1E53"/>
<rect x="144" y="186" width="26" height="14" fill="#1C1E53"/>
<rect x="80" y="143" width="26" height="14" fill="#1C1E53"/>
<rect x="104" y="195" width="26" height="14" fill="#1C1E53"/>
<rect x="104" y="211" width="26" height="14" fill="#1C1E53"/>
<rect x="63" y="227" width="14" height="14" fill="#1C1E53"/>
<rect x="130" y="269" width="26" height="14" fill="#1C1E53"/>
<rect x="103" y="267" width="14" height="14" fill="#1C1E53"/>
<rect x="77" y="250" width="14" height="14" fill="#1C1E53"/>
<rect x="63" y="266" width="14" height="14" fill="#1C1E53"/>
<rect x="63" y="282" width="37" height="14" fill="#1C1E53"/>
<rect x="144" y="209" width="14" height="14" fill="#1C1E53"/>
<rect x="169" y="207" width="14" height="14" fill="#1C1E53"/>
<rect x="185" y="207" width="14" height="14" fill="#1C1E53"/>
<rect x="183" y="317" width="14" height="14" fill="#1C1E53"/>
<rect x="195" y="301" width="14" height="14" fill="#1C1E53"/>
<rect x="195" y="270" width="14" height="14" fill="#1C1E53"/>
<rect x="195" y="255" width="14" height="14" fill="#1C1E53"/>
<rect x="195" y="239" width="14" height="14" fill="#1C1E53"/>
<rect x="183" y="223" width="14" height="14" fill="#1C1E53"/>
<rect x="181" y="285" width="28" height="14" fill="#1C1E53"/>
<rect x="209" y="317" width="30" height="14" fill="#1C1E53"/>
<rect x="165" y="333" width="44" height="14" fill="#1C1E53"/>
<rect x="195" y="348" width="28" height="14" fill="#1C1E53"/>
<rect x="197" y="373" width="14" height="14" fill="#1C1E53"/>
<rect x="235" y="364" width="61" height="14" fill="#1C1E53"/>
<rect x="88" y="384" width="61" height="14" fill="#1C1E53"/>
<rect x="275" y="348" width="28" height="14" fill="#1C1E53"/>
<rect x="262" y="333" width="27" height="13" fill="#1C1E53"/>
<rect x="329" y="362" width="14" height="14" fill="#1C1E53"/>
<rect x="354" y="371" width="14" height="14" fill="#1C1E53"/>
<rect x="328" y="394" width="14" height="14" fill="#1C1E53"/>
<rect x="344" y="394" width="14" height="14" fill="#1C1E53"/>
<rect x="360" y="394" width="14" height="14" fill="#1C1E53"/>
<rect x="376" y="394" width="40" height="14" fill="#1C1E53"/>
<rect x="376" y="362" width="14" height="14" fill="#1C1E53"/>
<rect x="376" y="378" width="28" height="14" fill="#1C1E53"/>
<rect x="296" y="378" width="46" height="14" fill="#1C1E53"/>
<rect x="267" y="394" width="46" height="14" fill="#1C1E53"/>
<rect x="331" y="330" width="34" height="14" fill="#1C1E53"/>
<rect x="329" y="346" width="66" height="14" fill="#1C1E53"/>
<rect x="328" y="202" width="14" height="14" fill="#1C1E53"/>
<rect x="345" y="214" width="23" height="14" fill="#1C1E53"/>
<rect x="251" y="175" width="14" height="14" fill="#1C1E53"/>
<rect x="195" y="161" width="14" height="14" fill="#1C1E53"/>
<rect x="131" y="118" width="14" height="14" fill="#1C1E53"/>
<rect x="182" y="177" width="27" height="14" fill="#1C1E53"/>
<rect x="118" y="134" width="27" height="14" fill="#1C1E53"/>
<rect x="211" y="186" width="38" height="14" fill="#1C1E53"/>
<rect x="147" y="143" width="38" height="14" fill="#1C1E53"/>
<rect x="222" y="202" width="27" height="10" fill="#1C1E53"/>
<rect x="209" y="214" width="53" height="10" fill="#1C1E53"/>
<rect x="222" y="96" width="14" height="14" fill="#1C1E53"/>
<rect x="222" y="112" width="14" height="14" fill="#1C1E53"/>
<rect x="222" y="128" width="108" height="14" fill="#1C1E53"/>
<rect x="235" y="144" width="81" height="14" fill="#1C1E53"/>
<rect x="248" y="107" width="14" height="14" fill="#1C1E53"/>
<rect x="302" y="98" width="14" height="14" fill="#1C1E53"/>
<rect x="288" y="113" width="14" height="14" fill="#1C1E53"/>
<rect x="273" y="113" width="14" height="14" fill="#1C1E53"/>
<rect x="273" y="97" width="14" height="14" fill="#1C1E53"/>
<rect x="273" y="81" width="14" height="14" fill="#1C1E53"/>
<rect x="289" y="81" width="14" height="14" fill="#1C1E53"/>
<rect x="305" y="81" width="14" height="14" fill="#1C1E53"/>
<rect x="321" y="81" width="14" height="14" fill="#1C1E53"/>
<rect x="337" y="95" width="14" height="14" fill="#1C1E53"/>
<rect x="337" y="111" width="14" height="14" fill="#1C1E53"/>
<rect x="257" y="81" width="14" height="14" fill="#1C1E53"/>
<rect x="241" y="81" width="14" height="14" fill="#1C1E53"/>
<rect x="314" y="113" width="14" height="14" fill="#1C1E53"/>
</svg>
