<svg width="500" height="500" viewBox="0 0 500 500" fill="none" xmlns="http://www.w3.org/2000/svg">
<rect width="500" height="500" fill="white"/>
<rect x="173" y="63" width="14" height="14" fill="#1C1E53"/>
<rect x="189" y="63" width="14" height="14" fill="#1C1E53"/>
<rect x="183" y="102" width="14" height="14" fill="#1C1E53"/>
<rect x="167" y="140" width="14" height="14" fill="#1C1E53"/>
<rect x="157" y="168" width="14" height="14" fill="#1C1E53"/>
<rect x="141" y="168" width="14" height="14" fill="#1C1E53"/>
<rect x="128" y="88" width="14" height="14" fill="#1C1E53"/>
<rect x="118" y="116" width="14" height="14" fill="#1C1E53"/>
<rect x="102" y="116" width="14" height="14" fill="#1C1E53"/>
<rect x="141" y="192" width="14" height="14" fill="#1C1E53"/>
<rect x="87" y="210" width="14" height="14" fill="#1C1E53"/>
<rect x="64" y="210" width="14" height="14" fill="#1C1E53"/>
<rect x="76" y="232" width="14" height="14" fill="#1C1E53"/>
<rect x="79" y="260" width="14" height="14" fill="#1C1E53"/>
<rect x="79" y="298" width="14" height="42" fill="#1C1E53"/>
<rect x="95" y="287" width="14" height="24" fill="#1C1E53"/>
<rect x="95" y="313" width="14" height="27" fill="#1C1E53"/>
<rect x="96" y="260" width="14" height="14" fill="#1C1E53"/>
<rect x="111" y="287" width="14" height="14" fill="#1C1E53"/>
<rect x="111" y="305" width="14" height="35" fill="#1C1E53"/>
<rect x="101" y="243" width="14" height="14" fill="#1C1E53"/>
<rect x="125" y="231" width="14" height="55" fill="#1C1E53"/>
<rect x="63" y="248" width="14" height="26" fill="#1C1E53"/>
<rect x="63" y="286" width="14" height="54" fill="#1C1E53"/>
<rect x="141" y="224" width="14" height="14" fill="#1C1E53"/>
<rect x="141" y="248" width="14" height="14" fill="#1C1E53"/>
<rect x="142" y="273" width="14" height="14" fill="#1C1E53"/>
<rect x="141" y="301" width="14" height="14" fill="#1C1E53"/>
<rect x="142" y="327" width="14" height="14" fill="#1C1E53"/>
<rect x="168" y="339" width="14" height="28" fill="#1C1E53"/>
<rect x="168" y="378" width="14" height="28" fill="#1C1E53"/>
<rect x="165" y="314" width="14" height="14" fill="#1C1E53"/>
<rect x="208" y="300" width="14" height="14" fill="#1C1E53"/>
<rect x="197" y="316" width="14" height="25" fill="#1C1E53"/>
<rect x="224" y="300" width="14" height="14" fill="#1C1E53"/>
<rect x="109" y="352" width="14" height="14" fill="#1C1E53"/>
<rect x="251" y="339" width="14" height="14" fill="#1C1E53"/>
<rect x="303" y="406" width="14" height="14" fill="#1C1E53"/>
<rect x="342" y="402" width="14" height="31" fill="#1C1E53"/>
<rect x="271" y="405" width="14" height="28" fill="#1C1E53"/>
<rect x="287" y="396" width="14" height="38" fill="#1C1E53"/>
<rect x="273" y="301" width="14" height="94" fill="#1C1E53"/>
<rect x="213" y="327" width="14" height="14" fill="#1C1E53"/>
<rect x="98" y="379" width="14" height="14" fill="#1C1E53"/>
<rect x="220" y="353" width="14" height="14" fill="#1C1E53"/>
<rect x="194" y="354" width="14" height="14" fill="#1C1E53"/>
<rect x="183" y="406" width="14" height="14" fill="#1C1E53"/>
<rect x="199" y="419" width="14" height="14" fill="#1C1E53"/>
<rect x="215" y="419" width="14" height="14" fill="#1C1E53"/>
<rect x="198" y="392" width="14" height="14" fill="#1C1E53"/>
<rect x="213" y="377" width="14" height="14" fill="#1C1E53"/>
<rect x="232" y="391" width="14" height="42" fill="#1C1E53"/>
<rect x="247" y="368" width="14" height="51" fill="#1C1E53"/>
<rect x="235" y="316" width="14" height="37" fill="#1C1E53"/>
<rect x="120" y="368" width="14" height="37" fill="#1C1E53"/>
<rect x="181" y="300" width="14" height="28" fill="#1C1E53"/>
<rect x="157" y="288" width="14" height="14" fill="#1C1E53"/>
<rect x="158" y="260" width="14" height="14" fill="#1C1E53"/>
<rect x="181" y="260" width="14" height="28" fill="#1C1E53"/>
<rect x="155" y="208" width="14" height="14" fill="#1C1E53"/>
<rect x="169" y="224" width="14" height="35" fill="#1C1E53"/>
<rect x="183" y="209" width="14" height="14" fill="#1C1E53"/>
<rect x="199" y="219" width="14" height="79" fill="#1C1E53"/>
<rect x="169" y="184" width="14" height="22" fill="#1C1E53"/>
<rect x="102" y="168" width="14" height="40" fill="#1C1E53"/>
<rect x="118" y="168" width="14" height="40" fill="#1C1E53"/>
<rect x="180" y="156" width="14" height="14" fill="#1C1E53"/>
<rect x="205" y="194" width="14" height="14" fill="#1C1E53"/>
<rect x="205" y="171" width="14" height="14" fill="#1C1E53"/>
<rect x="196" y="129" width="14" height="41" fill="#1C1E53"/>
<rect x="167" y="90" width="14" height="26" fill="#1C1E53"/>
<rect x="205" y="63" width="14" height="14" fill="#1C1E53"/>
<rect x="243" y="63" width="14" height="14" fill="#1C1E53"/>
<rect x="248" y="87" width="14" height="14" fill="#1C1E53"/>
<rect x="221" y="142" width="14" height="14" fill="#1C1E53"/>
<rect x="253" y="195" width="14" height="14" fill="#1C1E53"/>
<rect x="237" y="168" width="14" height="40" fill="#1C1E53"/>
<rect x="221" y="168" width="14" height="40" fill="#1C1E53"/>
<rect x="237" y="116" width="14" height="26" fill="#1C1E53"/>
<rect x="253" y="116" width="14" height="52" fill="#1C1E53"/>
<rect x="269" y="116" width="14" height="68" fill="#1C1E53"/>
<rect x="300" y="87" width="14" height="14" fill="#1C1E53"/>
<rect x="326" y="142" width="14" height="14" fill="#1C1E53"/>
<rect x="385" y="108" width="14" height="14" fill="#1C1E53"/>
<rect x="302" y="167" width="14" height="14" fill="#1C1E53"/>
<rect x="361" y="133" width="14" height="14" fill="#1C1E53"/>
<rect x="303" y="195" width="14" height="14" fill="#1C1E53"/>
<rect x="339" y="195" width="14" height="14" fill="#1C1E53"/>
<rect x="355" y="195" width="14" height="14" fill="#1C1E53"/>
<rect x="376" y="182" width="14" height="14" fill="#1C1E53"/>
<rect x="408" y="168" width="14" height="14" fill="#1C1E53"/>
<rect x="376" y="211" width="14" height="14" fill="#1C1E53"/>
<rect x="360" y="211" width="14" height="14" fill="#1C1E53"/>
<rect x="327" y="222" width="14" height="14" fill="#1C1E53"/>
<rect x="311" y="222" width="14" height="14" fill="#1C1E53"/>
<rect x="313" y="248" width="14" height="14" fill="#1C1E53"/>
<rect x="256" y="254" width="14" height="14" fill="#1C1E53"/>
<rect x="297" y="262" width="14" height="14" fill="#1C1E53"/>
<rect x="240" y="268" width="14" height="14" fill="#1C1E53"/>
<rect x="312" y="278" width="14" height="14" fill="#1C1E53"/>
<rect x="289" y="367" width="14" height="14" fill="#1C1E53"/>
<rect x="306" y="353" width="14" height="42" fill="#1C1E53"/>
<rect x="322" y="325" width="14" height="70" fill="#1C1E53"/>
<rect x="289" y="326" width="14" height="29" fill="#1C1E53"/>
<rect x="345" y="261" width="14" height="14" fill="#1C1E53"/>
<rect x="363" y="247" width="14" height="14" fill="#1C1E53"/>
<rect x="377" y="233" width="14" height="14" fill="#1C1E53"/>
<rect x="377" y="262" width="14" height="14" fill="#1C1E53"/>
<rect x="377" y="284" width="14" height="14" fill="#1C1E53"/>
<rect x="353" y="353" width="14" height="14" fill="#1C1E53"/>
<rect x="403" y="419" width="14" height="14" fill="#1C1E53"/>
<rect x="403" y="396" width="14" height="14" fill="#1C1E53"/>
<rect x="419" y="389" width="14" height="32" fill="#1C1E53"/>
<rect x="387" y="402" width="14" height="35" fill="#1C1E53"/>
<rect x="326" y="398" width="14" height="36" fill="#1C1E53"/>
<rect x="418" y="367" width="14" height="14" fill="#1C1E53"/>
<rect x="418" y="339" width="14" height="14" fill="#1C1E53"/>
<rect x="338" y="381" width="14" height="14" fill="#1C1E53"/>
<rect x="354" y="381" width="14" height="14" fill="#1C1E53"/>
<rect x="370" y="381" width="14" height="40" fill="#1C1E53"/>
<rect x="386" y="326" width="14" height="68" fill="#1C1E53"/>
<rect x="402" y="316" width="14" height="71" fill="#1C1E53"/>
<rect x="338" y="314" width="14" height="27" fill="#1C1E53"/>
<rect x="354" y="314" width="14" height="27" fill="#1C1E53"/>
<rect x="370" y="302" width="14" height="39" fill="#1C1E53"/>
<rect x="408" y="233" width="14" height="14" fill="#1C1E53"/>
<rect x="393" y="247" width="14" height="66" fill="#1C1E53"/>
<rect x="422" y="218" width="14" height="14" fill="#1C1E53"/>
<rect x="408" y="261" width="14" height="26" fill="#1C1E53"/>
<rect x="329" y="248" width="14" height="61" fill="#1C1E53"/>
<rect x="295" y="222" width="14" height="26" fill="#1C1E53"/>
<rect x="238" y="228" width="14" height="26" fill="#1C1E53"/>
<rect x="343" y="222" width="14" height="26" fill="#1C1E53"/>
<rect x="392" y="170" width="14" height="64" fill="#1C1E53"/>
<rect x="271" y="195" width="14" height="14" fill="#1C1E53"/>
<rect x="287" y="182" width="14" height="27" fill="#1C1E53"/>
<rect x="326" y="167" width="14" height="27" fill="#1C1E53"/>
<rect x="385" y="133" width="14" height="27" fill="#1C1E53"/>
<rect x="316" y="104" width="14" height="25" fill="#1C1E53"/>
<rect x="375" y="70" width="14" height="25" fill="#1C1E53"/>
<rect x="300" y="114" width="14" height="40" fill="#1C1E53"/>
<rect x="359" y="80" width="14" height="40" fill="#1C1E53"/>
<rect x="285" y="104" width="14" height="38" fill="#1C1E53"/>
<rect x="259" y="63" width="14" height="14" fill="#1C1E53"/>
<rect x="291" y="63" width="14" height="14" fill="#1C1E53"/>
<rect x="307" y="63" width="14" height="14" fill="#1C1E53"/>
<rect x="326" y="75" width="14" height="27" fill="#1C1E53"/>
<rect x="275" y="63" width="14" height="39" fill="#1C1E53"/>
<rect x="221" y="63" width="14" height="66" fill="#1C1E53"/>
</svg>
