<svg width="500" height="500" viewBox="0 0 500 500" fill="none" xmlns="http://www.w3.org/2000/svg">
<rect width="500" height="500" fill="white"/>
<rect x="181" y="63" width="54" height="12" rx="6" fill="#1C1E53"/>
<rect x="168" y="104" width="29" height="12" rx="6" fill="#1C1E53"/>
<rect x="184" y="156" width="25" height="12" rx="6" fill="#1C1E53"/>
<rect x="223" y="184" width="25" height="12" rx="6" fill="#1C1E53"/>
<rect x="342" y="196" width="25" height="12" rx="6" fill="#1C1E53"/>
<rect x="314" y="248" width="28" height="12" rx="6" fill="#1C1E53"/>
<rect x="328" y="262" width="28" height="12" rx="6" fill="#1C1E53"/>
<rect x="340" y="314" width="43" height="12" rx="6" fill="#1C1E53"/>
<rect x="328" y="328" width="68" height="12" rx="6" fill="#1C1E53"/>
<rect x="379" y="288" width="28" height="12" rx="6" fill="#1C1E53"/>
<rect x="411" y="84" width="28" height="12" rx="6" fill="#1C1E53"/>
<rect x="275" y="250" width="28" height="12" rx="6" fill="#1C1E53"/>
<rect x="132" y="121" width="28" height="12" rx="6" fill="#1C1E53"/>
<rect x="380" y="368" width="28" height="12" rx="6" fill="#1C1E53"/>
<rect x="407" y="394" width="28" height="12" rx="6" fill="#1C1E53"/>
<rect x="328" y="422" width="28" height="12" rx="6" fill="#1C1E53"/>
<rect x="328" y="408" width="28" height="12" rx="6" fill="#1C1E53"/>
<rect x="275" y="422" width="28" height="12" rx="6" fill="#1C1E53"/>
<rect x="194" y="422" width="28" height="12" rx="6" fill="#1C1E53"/>
<rect x="234" y="394" width="41" height="12" rx="6" fill="#1C1E53"/>
<rect x="248" y="380" width="41" height="12" rx="6" fill="#1C1E53"/>
<rect x="314" y="381" width="82" height="12" rx="6" fill="#1C1E53"/>
<rect x="222" y="408" width="92" height="12" rx="6" fill="#1C1E53"/>
<rect x="367" y="408" width="40" height="12" rx="6" fill="#1C1E53"/>
<rect x="382" y="342" width="53" height="12" rx="6" fill="#1C1E53"/>
<rect x="314" y="276" width="28" height="12" rx="6" fill="#1C1E53"/>
<rect x="263" y="314" width="28" height="12" rx="6" fill="#1C1E53"/>
<rect x="196" y="328" width="28" height="12" rx="6" fill="#1C1E53"/>
<rect x="126" y="390" width="28" height="12" rx="6" fill="#1C1E53"/>
<rect x="102" y="316" width="28" height="12" rx="6" fill="#1C1E53"/>
<rect x="128" y="276" width="28" height="12" rx="6" fill="#1C1E53"/>
<rect x="116" y="262" width="28" height="12" rx="6" fill="#1C1E53"/>
<rect x="181" y="262" width="28" height="12" rx="6" fill="#1C1E53"/>
<rect x="181" y="276" width="28" height="12" rx="6" fill="#1C1E53"/>
<rect x="63" y="262" width="40" height="12" rx="6" fill="#1C1E53"/>
<rect x="130" y="248" width="28" height="12" rx="6" fill="#1C1E53"/>
<rect x="116" y="234" width="28" height="12" rx="6" fill="#1C1E53"/>
<rect x="63" y="330" width="66" height="12" rx="6" fill="#1C1E53"/>
<rect x="63" y="302" width="53" height="12" rx="6" fill="#1C1E53"/>
<rect x="90" y="288" width="39" height="12" rx="6" fill="#1C1E53"/>
<rect x="63" y="316" width="28" height="12" rx="6" fill="#1C1E53"/>
<rect x="208" y="302" width="28" height="12" rx="6" fill="#1C1E53"/>
<rect x="169" y="314" width="41" height="12" rx="6" fill="#1C1E53"/>
<rect x="99" y="376" width="41" height="12" rx="6" fill="#1C1E53"/>
<rect x="275" y="328" width="28" height="12" rx="6" fill="#1C1E53"/>
<rect x="262" y="356" width="28" height="12" rx="6" fill="#1C1E53"/>
<rect x="314" y="355" width="28" height="12" rx="6" fill="#1C1E53"/>
<rect x="234" y="342" width="69" height="12" rx="6" fill="#1C1E53"/>
<rect x="396" y="168" width="25" height="12" rx="6" fill="#1C1E53"/>
<rect x="367" y="183" width="41" height="12" rx="6" fill="#1C1E53"/>
<rect x="367" y="210" width="41" height="12" rx="6" fill="#1C1E53"/>
<rect x="380" y="262" width="55" height="12" rx="6" fill="#1C1E53"/>
<rect x="274" y="196" width="42" height="12" rx="6" fill="#1C1E53"/>
<rect x="303" y="222" width="64" height="12" rx="6" fill="#1C1E53"/>
<rect x="209" y="198" width="54" height="12" rx="6" fill="#1C1E53"/>
<rect x="210" y="170" width="39" height="12" rx="6" fill="#1C1E53"/>
<rect x="144" y="169" width="25" height="12" rx="6" fill="#1C1E53"/>
<rect x="104" y="169" width="25" height="12" rx="6" fill="#1C1E53"/>
<rect x="104" y="183" width="25" height="12" rx="6" fill="#1C1E53"/>
<rect x="104" y="197" width="25" height="12" rx="6" fill="#1C1E53"/>
<rect x="235" y="130" width="81" height="12" rx="6" fill="#1C1E53"/>
<rect x="221" y="116" width="107" height="12" rx="6" fill="#1C1E53"/>
<rect x="249" y="63" width="79" height="12" rx="6" fill="#1C1E53"/>
<circle cx="176" cy="96" r="6" fill="#1C1E53"/>
<circle cx="204" cy="134" r="6" fill="#1C1E53"/>
<circle cx="176" cy="148" r="6" fill="#1C1E53"/>
<circle cx="176" cy="189" r="6" fill="#1C1E53"/>
<circle cx="149" cy="203" r="6" fill="#1C1E53"/>
<circle cx="163" cy="216" r="6" fill="#1C1E53"/>
<circle cx="149" cy="228" r="6" fill="#1C1E53"/>
<circle cx="189" cy="215" r="6" fill="#1C1E53"/>
<circle cx="176" cy="228" r="6" fill="#1C1E53"/>
<circle cx="203" cy="228" r="6" fill="#1C1E53"/>
<circle cx="176" cy="242" r="6" fill="#1C1E53"/>
<circle cx="203" cy="242" r="6" fill="#1C1E53"/>
<circle cx="176" cy="256" r="6" fill="#1C1E53"/>
<circle cx="203" cy="255" r="6" fill="#1C1E53"/>
<circle cx="136" cy="215" r="6" fill="#1C1E53"/>
<circle cx="97" cy="215" r="6" fill="#1C1E53"/>
<circle cx="69" cy="215" r="6" fill="#1C1E53"/>
<circle cx="84" cy="242" r="6" fill="#1C1E53"/>
<circle cx="69" cy="255" r="6" fill="#1C1E53"/>
<circle cx="69" cy="294" r="6" fill="#1C1E53"/>
<circle cx="110" cy="255" r="6" fill="#1C1E53"/>
<circle cx="162" cy="268" r="6" fill="#1C1E53"/>
<circle cx="164" cy="294" r="6" fill="#1C1E53"/>
<circle cx="150" cy="308" r="6" fill="#1C1E53"/>
<circle cx="80" cy="370" r="6" fill="#1C1E53"/>
<circle cx="150" cy="334" r="6" fill="#1C1E53"/>
<circle cx="80" cy="396" r="6" fill="#1C1E53"/>
<circle cx="176" cy="346" r="6" fill="#1C1E53"/>
<circle cx="106" cy="408" r="6" fill="#1C1E53"/>
<circle cx="176" cy="361" r="6" fill="#1C1E53"/>
<circle cx="204" cy="362" r="6" fill="#1C1E53"/>
<circle cx="216" cy="388" r="6" fill="#1C1E53"/>
<circle cx="203" cy="400" r="6" fill="#1C1E53"/>
<circle cx="175" cy="386" r="6" fill="#1C1E53"/>
<circle cx="176" cy="400" r="6" fill="#1C1E53"/>
<circle cx="189" cy="414" r="6" fill="#1C1E53"/>
<circle cx="242" cy="428" r="6" fill="#1C1E53"/>
<circle cx="228" cy="361" r="6" fill="#1C1E53"/>
<circle cx="242" cy="334" r="6" fill="#1C1E53"/>
<circle cx="241" cy="320" r="6" fill="#1C1E53"/>
<circle cx="283" cy="306" r="6" fill="#1C1E53"/>
<circle cx="308" cy="268" r="6" fill="#1C1E53"/>
<circle cx="309" cy="242" r="6" fill="#1C1E53"/>
<circle cx="362" cy="242" r="6" fill="#1C1E53"/>
<circle cx="373" cy="255" r="6" fill="#1C1E53"/>
<circle cx="386" cy="241" r="6" fill="#1C1E53"/>
<circle cx="401" cy="230" r="6" fill="#1C1E53"/>
<circle cx="402" cy="202" r="6" fill="#1C1E53"/>
<circle cx="427" cy="188" r="6" fill="#1C1E53"/>
<circle cx="428" cy="229" r="6" fill="#1C1E53"/>
<circle cx="415" cy="244" r="6" fill="#1C1E53"/>
<circle cx="427" cy="282" r="6" fill="#1C1E53"/>
<circle cx="402" cy="282" r="6" fill="#1C1E53"/>
<circle cx="374" cy="280" r="6" fill="#1C1E53"/>
<circle cx="336" cy="296" r="6" fill="#1C1E53"/>
<circle cx="368" cy="92" r="6" fill="#1C1E53"/>
<circle cx="232" cy="258" r="6" fill="#1C1E53"/>
<circle cx="89" cy="129" r="6" fill="#1C1E53"/>
<circle cx="336" cy="310" r="6" fill="#1C1E53"/>
<circle cx="368" cy="106" r="6" fill="#1C1E53"/>
<circle cx="232" cy="272" r="6" fill="#1C1E53"/>
<circle cx="89" cy="143" r="6" fill="#1C1E53"/>
<circle cx="336" cy="348" r="6" fill="#1C1E53"/>
<circle cx="361" cy="362" r="6" fill="#1C1E53"/>
<circle cx="388" cy="361" r="6" fill="#1C1E53"/>
<circle cx="373" cy="400" r="6" fill="#1C1E53"/>
<circle cx="388" cy="428" r="6" fill="#1C1E53"/>
<circle cx="415" cy="428" r="6" fill="#1C1E53"/>
<circle cx="414" cy="361" r="6" fill="#1C1E53"/>
<circle cx="427" cy="374" r="6" fill="#1C1E53"/>
<circle cx="374" cy="306" r="6" fill="#1C1E53"/>
<circle cx="406" cy="102" r="6" fill="#1C1E53"/>
<circle cx="270" cy="268" r="6" fill="#1C1E53"/>
<circle cx="127" cy="139" r="6" fill="#1C1E53"/>
<circle cx="402" cy="308" r="6" fill="#1C1E53"/>
<circle cx="414" cy="320" r="6" fill="#1C1E53"/>
<circle cx="415" cy="334" r="6" fill="#1C1E53"/>
<circle cx="433" cy="318" r="6" fill="#1C1E53"/>
<circle cx="399" cy="253" r="6" fill="#1C1E53"/>
<circle cx="256" cy="373" r="6" fill="#1C1E53"/>
<circle cx="295" cy="400" r="6" fill="#1C1E53"/>
<circle cx="190" cy="306" r="6" fill="#1C1E53"/>
<circle cx="120" cy="368" r="6" fill="#1C1E53"/>
<circle cx="203" cy="296" r="6" fill="#1C1E53"/>
<circle cx="176" cy="203" r="6" fill="#1C1E53"/>
<circle cx="203" cy="148" r="6" fill="#1C1E53"/>
<circle cx="229" cy="149" r="6" fill="#1C1E53"/>
<circle cx="255" cy="164" r="6" fill="#1C1E53"/>
<circle cx="256" cy="150" r="6" fill="#1C1E53"/>
<circle cx="280" cy="150" r="6" fill="#1C1E53"/>
<circle cx="309" cy="150" r="6" fill="#1C1E53"/>
<circle cx="336" cy="149" r="6" fill="#1C1E53"/>
<circle cx="335" cy="175" r="6" fill="#1C1E53"/>
<circle cx="335" cy="189" r="6" fill="#1C1E53"/>
<circle cx="295" cy="188" r="6" fill="#1C1E53"/>
<circle cx="309" cy="174" r="6" fill="#1C1E53"/>
<circle cx="280" cy="164" r="6" fill="#1C1E53"/>
<circle cx="280" cy="178" r="6" fill="#1C1E53"/>
<circle cx="229" cy="82" r="6" fill="#1C1E53"/>
<circle cx="229" cy="96" r="6" fill="#1C1E53"/>
<circle cx="255" cy="96" r="6" fill="#1C1E53"/>
<circle cx="282" cy="96" r="6" fill="#1C1E53"/>
<circle cx="282" cy="82" r="6" fill="#1C1E53"/>
<circle cx="335" cy="82" r="6" fill="#1C1E53"/>
<circle cx="336" cy="96" r="6" fill="#1C1E53"/>
<circle cx="309" cy="96" r="6" fill="#1C1E53"/>
<circle cx="295" cy="110" r="6" fill="#1C1E53"/>
<circle cx="322" cy="110" r="6" fill="#1C1E53"/>
<circle cx="229" cy="110" r="6" fill="#1C1E53"/>
</svg>
