<svg width="500" height="500" viewBox="0 0 500 500" fill="none" xmlns="http://www.w3.org/2000/svg">
<rect width="500" height="500" fill="white"/>
<rect x="204" y="123" width="60" height="12" rx="6" transform="rotate(-90 204 123)" fill="#1C1E53"/>
<rect x="254" y="100" width="37" height="12" rx="6" transform="rotate(-90 254 100)" fill="#1C1E53"/>
<rect x="218" y="135" width="24" height="12" rx="6" transform="rotate(-90 218 135)" fill="#1C1E53"/>
<rect x="246" y="135" width="24" height="12" rx="6" transform="rotate(-90 246 135)" fill="#1C1E53"/>
<rect x="288" y="123" width="24" height="12" rx="6" transform="rotate(-90 288 123)" fill="#1C1E53"/>
<rect x="302" y="181" width="24" height="12" rx="6" transform="rotate(-90 302 181)" fill="#1C1E53"/>
<rect x="266" y="198" width="24" height="12" rx="6" transform="rotate(-90 266 198)" fill="#1C1E53"/>
<rect x="274" y="230" width="24" height="12" rx="6" transform="rotate(-90 274 230)" fill="#1C1E53"/>
<rect x="225" y="244" width="24" height="12" rx="6" transform="rotate(-90 225 244)" fill="#1C1E53"/>
<rect x="331" y="230" width="24" height="12" rx="6" transform="rotate(-90 331 230)" fill="#1C1E53"/>
<rect x="365" y="218" width="58" height="12" rx="6" transform="rotate(-90 365 218)" fill="#1C1E53"/>
<rect x="363" y="290" width="60" height="12" rx="6" transform="rotate(-90 363 290)" fill="#1C1E53"/>
<rect x="304" y="292" width="63" height="12" rx="6" transform="rotate(-90 304 292)" fill="#1C1E53"/>
<rect x="269" y="326" width="24" height="12" rx="6" transform="rotate(-90 269 326)" fill="#1C1E53"/>
<rect x="302" y="98" width="24" height="12" rx="6" transform="rotate(-90 302 98)" fill="#1C1E53"/>
<rect x="160" y="111" width="24" height="12" rx="6" transform="rotate(-90 160 111)" fill="#1C1E53"/>
<rect x="160" y="196" width="24" height="12" rx="6" transform="rotate(-90 160 196)" fill="#1C1E53"/>
<rect x="63" y="254" width="24" height="12" rx="6" transform="rotate(-90 63 254)" fill="#1C1E53"/>
<rect x="63" y="314" width="48" height="12" rx="6" transform="rotate(-90 63 314)" fill="#1C1E53"/>
<rect x="77" y="315" width="37" height="12" rx="6" transform="rotate(-90 77 315)" fill="#1C1E53"/>
<rect x="91" y="288" width="24" height="12" rx="6" transform="rotate(-90 91 288)" fill="#1C1E53"/>
<rect x="105" y="314" width="40" height="12" rx="6" transform="rotate(-90 105 314)" fill="#1C1E53"/>
<rect x="170" y="302" width="24" height="12" rx="6" transform="rotate(-90 170 302)" fill="#1C1E53"/>
<rect x="184" y="314" width="24" height="12" rx="6" transform="rotate(-90 184 314)" fill="#1C1E53"/>
<rect x="158" y="338" width="24" height="12" rx="6" transform="rotate(-90 158 338)" fill="#1C1E53"/>
<rect x="220" y="325" width="35" height="12" rx="6" transform="rotate(-90 220 325)" fill="#1C1E53"/>
<rect x="121" y="378" width="35" height="12" rx="6" transform="rotate(-90 121 378)" fill="#1C1E53"/>
<rect x="355" y="138" width="35" height="12" rx="6" transform="rotate(-90 355 138)" fill="#1C1E53"/>
<rect x="230" y="386" width="48" height="12" rx="6" transform="rotate(-90 230 386)" fill="#1C1E53"/>
<rect x="242" y="338" width="24" height="12" rx="6" transform="rotate(-90 242 338)" fill="#1C1E53"/>
<rect x="244" y="379" width="31" height="12" rx="6" transform="rotate(-90 244 379)" fill="#1C1E53"/>
<rect x="253" y="401" width="24" height="12" rx="6" transform="rotate(-90 253 401)" fill="#1C1E53"/>
<rect x="267" y="410" width="48" height="12" rx="6" transform="rotate(-90 267 410)" fill="#1C1E53"/>
<rect x="286" y="361" width="35" height="12" rx="6" transform="rotate(-90 286 361)" fill="#1C1E53"/>
<rect x="300" y="361" width="59" height="12" rx="6" transform="rotate(-90 300 361)" fill="#1C1E53"/>
<rect x="300" y="410" width="36" height="12" rx="6" transform="rotate(-90 300 410)" fill="#1C1E53"/>
<rect x="314" y="398" width="24" height="12" rx="6" transform="rotate(-90 314 398)" fill="#1C1E53"/>
<rect x="351" y="408" width="34" height="12" rx="6" transform="rotate(-90 351 408)" fill="#1C1E53"/>
<rect x="337" y="382" width="32" height="12" rx="6" transform="rotate(-90 337 382)" fill="#1C1E53"/>
<rect x="351" y="364" width="62" height="12" rx="6" transform="rotate(-90 351 364)" fill="#1C1E53"/>
<rect x="339" y="300" width="24" height="12" rx="6" transform="rotate(-90 339 300)" fill="#1C1E53"/>
<rect x="397" y="152" width="48" height="12" rx="6" transform="rotate(-90 397 152)" fill="#1C1E53"/>
<rect x="386" y="386" width="24" height="12" rx="6" transform="rotate(-90 386 386)" fill="#1C1E53"/>
<rect x="407" y="333" width="24" height="12" rx="6" transform="rotate(-90 407 333)" fill="#1C1E53"/>
<rect x="326" y="314" width="24" height="12" rx="6" transform="rotate(-90 326 314)" fill="#1C1E53"/>
<rect x="313" y="314" width="24" height="12" rx="6" transform="rotate(-90 313 314)" fill="#1C1E53"/>
<rect x="216" y="410" width="50" height="12" rx="6" transform="rotate(-90 216 410)" fill="#1C1E53"/>
<rect x="256" y="354" width="78" height="12" rx="6" transform="rotate(-90 256 354)" fill="#1C1E53"/>
<rect x="158" y="374" width="24" height="12" rx="6" transform="rotate(-90 158 374)" fill="#1C1E53"/>
<rect x="124" y="270" width="52" height="12" rx="6" transform="rotate(-90 124 270)" fill="#1C1E53"/>
<rect x="160" y="242" width="36" height="12" rx="6" transform="rotate(-90 160 242)" fill="#1C1E53"/>
<rect x="170" y="266" width="24" height="12" rx="6" transform="rotate(-90 170 266)" fill="#1C1E53"/>
<rect x="184" y="278" width="72" height="12" rx="6" transform="rotate(-90 184 278)" fill="#1C1E53"/>
<rect x="114" y="194" width="39" height="12" rx="6" transform="rotate(-90 114 194)" fill="#1C1E53"/>
<rect x="96" y="112" width="39" height="12" rx="6" transform="rotate(-90 96 112)" fill="#1C1E53"/>
<rect x="100" y="194" width="39" height="12" rx="6" transform="rotate(-90 100 194)" fill="#1C1E53"/>
<rect x="184" y="160" width="39" height="12" rx="6" transform="rotate(-90 184 160)" fill="#1C1E53"/>
<rect x="206" y="196" width="39" height="12" rx="6" transform="rotate(-90 206 196)" fill="#1C1E53"/>
<rect x="220" y="196" width="39" height="12" rx="6" transform="rotate(-90 220 196)" fill="#1C1E53"/>
<rect x="260" y="155" width="52" height="12" rx="6" transform="rotate(-90 260 155)" fill="#1C1E53"/>
<rect x="274" y="143" width="34" height="12" rx="6" transform="rotate(-90 274 143)" fill="#1C1E53"/>
<rect x="232" y="160" width="49" height="12" rx="6" transform="rotate(-90 232 160)" fill="#1C1E53"/>
<circle cx="169" cy="69" r="6" fill="#1C1E53"/>
<circle cx="232" cy="69" r="6" fill="#1C1E53"/>
<circle cx="246" cy="69" r="6" fill="#1C1E53"/>
<circle cx="238" cy="93" r="6" fill="#1C1E53"/>
<circle cx="308" cy="140" r="6" fill="#1C1E53"/>
<circle cx="385" cy="166" r="6" fill="#1C1E53"/>
<circle cx="394" cy="213" r="6" fill="#1C1E53"/>
<circle cx="380" cy="225" r="6" fill="#1C1E53"/>
<circle cx="284" cy="165" r="6" fill="#1C1E53"/>
<circle cx="286" cy="188" r="6" fill="#1C1E53"/>
<circle cx="295" cy="213" r="6" fill="#1C1E53"/>
<circle cx="246" cy="227" r="6" fill="#1C1E53"/>
<circle cx="296" cy="237" r="6" fill="#1C1E53"/>
<circle cx="285" cy="248" r="6" fill="#1C1E53"/>
<circle cx="296" cy="260" r="6" fill="#1C1E53"/>
<circle cx="320" cy="189" r="6" fill="#1C1E53"/>
<circle cx="309" cy="213" r="6" fill="#1C1E53"/>
<circle cx="323" cy="214" r="6" fill="#1C1E53"/>
<circle cx="334" cy="189" r="6" fill="#1C1E53"/>
<circle cx="341" cy="175" r="6" fill="#1C1E53"/>
<circle cx="343" cy="199" r="6" fill="#1C1E53"/>
<circle cx="357" cy="198" r="6" fill="#1C1E53"/>
<circle cx="357" cy="224" r="6" fill="#1C1E53"/>
<circle cx="344" cy="237" r="6" fill="#1C1E53"/>
<circle cx="323" cy="249" r="6" fill="#1C1E53"/>
<circle cx="343" cy="261" r="6" fill="#1C1E53"/>
<circle cx="355" cy="248" r="6" fill="#1C1E53"/>
<circle cx="355" cy="273" r="6" fill="#1C1E53"/>
<circle cx="402" cy="280" r="6" fill="#1C1E53"/>
<circle cx="418" cy="133" r="6" fill="#1C1E53"/>
<circle cx="391" cy="344" r="6" fill="#1C1E53"/>
<circle cx="378" cy="368" r="6" fill="#1C1E53"/>
<circle cx="399" cy="315" r="6" fill="#1C1E53"/>
<circle cx="374" cy="386" r="6" fill="#1C1E53"/>
<circle cx="395" cy="333" r="6" fill="#1C1E53"/>
<circle cx="342" cy="403" r="6" fill="#1C1E53"/>
<circle cx="287" cy="404" r="6" fill="#1C1E53"/>
<circle cx="287" cy="379" r="6" fill="#1C1E53"/>
<circle cx="321" cy="354" r="6" fill="#1C1E53"/>
<circle cx="334" cy="331" r="6" fill="#1C1E53"/>
<circle cx="355" cy="175" r="6" fill="#1C1E53"/>
<circle cx="274" cy="69" r="6" fill="#1C1E53"/>
<circle cx="288" cy="69" r="6" fill="#1C1E53"/>
<circle cx="286" cy="93" r="6" fill="#1C1E53"/>
<circle cx="302" cy="69" r="6" fill="#1C1E53"/>
<circle cx="183" cy="69" r="6" fill="#1C1E53"/>
<circle cx="181" cy="105" r="6" fill="#1C1E53"/>
<circle cx="166" cy="140" r="6" fill="#1C1E53"/>
<circle cx="155" cy="165" r="6" fill="#1C1E53"/>
<circle cx="178" cy="201" r="6" fill="#1C1E53"/>
<circle cx="141" cy="165" r="6" fill="#1C1E53"/>
<circle cx="123" cy="83" r="6" fill="#1C1E53"/>
<circle cx="94" cy="200" r="6" fill="#1C1E53"/>
<circle cx="97" cy="248" r="6" fill="#1C1E53"/>
<circle cx="106" cy="234" r="6" fill="#1C1E53"/>
<circle cx="117" cy="223" r="6" fill="#1C1E53"/>
<circle cx="117" cy="248" r="6" fill="#1C1E53"/>
<circle cx="117" cy="268" r="6" fill="#1C1E53"/>
<circle cx="143" cy="236" r="6" fill="#1C1E53"/>
<circle cx="155" cy="248" r="6" fill="#1C1E53"/>
<circle cx="154" cy="272" r="6" fill="#1C1E53"/>
<circle cx="199" cy="285" r="6" fill="#1C1E53"/>
<circle cx="213" cy="286" r="6" fill="#1C1E53"/>
<circle cx="114" cy="339" r="6" fill="#1C1E53"/>
<circle cx="348" cy="99" r="6" fill="#1C1E53"/>
<circle cx="248" cy="296" r="6" fill="#1C1E53"/>
<circle cx="204" cy="308" r="6" fill="#1C1E53"/>
<circle cx="105" cy="361" r="6" fill="#1C1E53"/>
<circle cx="339" cy="121" r="6" fill="#1C1E53"/>
<circle cx="190" cy="332" r="6" fill="#1C1E53"/>
<circle cx="214" cy="332" r="6" fill="#1C1E53"/>
<circle cx="115" cy="385" r="6" fill="#1C1E53"/>
<circle cx="349" cy="145" r="6" fill="#1C1E53"/>
<circle cx="201" cy="356" r="6" fill="#1C1E53"/>
<circle cx="189" cy="367" r="6" fill="#1C1E53"/>
<circle cx="177" cy="380" r="6" fill="#1C1E53"/>
<circle cx="187" cy="392" r="6" fill="#1C1E53"/>
<circle cx="177" cy="403" r="6" fill="#1C1E53"/>
<circle cx="201" cy="392" r="6" fill="#1C1E53"/>
<circle cx="142" cy="284" r="6" fill="#1C1E53"/>
<circle cx="141" cy="309" r="6" fill="#1C1E53"/>
<circle cx="162" cy="296" r="6" fill="#1C1E53"/>
<circle cx="144" cy="260" r="6" fill="#1C1E53"/>
<circle cx="83" cy="248" r="6" fill="#1C1E53"/>
<circle cx="82" cy="223" r="6" fill="#1C1E53"/>
<circle cx="141" cy="190" r="6" fill="#1C1E53"/>
<circle cx="123" cy="108" r="6" fill="#1C1E53"/>
<circle cx="129" cy="201" r="6" fill="#1C1E53"/>
<circle cx="111" cy="119" r="6" fill="#1C1E53"/>
<circle cx="142" cy="213" r="6" fill="#1C1E53"/>
<circle cx="154" cy="201" r="6" fill="#1C1E53"/>
<circle cx="176" cy="153" r="6" fill="#1C1E53"/>
<circle cx="198" cy="168" r="6" fill="#1C1E53"/>
<circle cx="198" cy="188" r="6" fill="#1C1E53"/>
<circle cx="240" cy="189" r="6" fill="#1C1E53"/>
<circle cx="213" cy="140" r="6" fill="#1C1E53"/>
<circle cx="197" cy="69" r="6" fill="#1C1E53"/>
</svg>
