<svg width="500" height="500" viewBox="0 0 500 500" fill="none" xmlns="http://www.w3.org/2000/svg">
<rect width="500" height="500" fill="white"/>
<rect x="170" y="70.0711" width="10" height="10" transform="rotate(-45 170 70.0711)" fill="#1C1E53"/>
<rect x="162" y="93.0711" width="10" height="10" transform="rotate(-45 162 93.0711)" fill="#1C1E53"/>
<rect x="162" y="107.071" width="10" height="10" transform="rotate(-45 162 107.071)" fill="#1C1E53"/>
<rect x="176" y="107.071" width="10" height="10" transform="rotate(-45 176 107.071)" fill="#1C1E53"/>
<rect x="186" y="129.071" width="10" height="10" transform="rotate(-45 186 129.071)" fill="#1C1E53"/>
<rect x="81" y="149.071" width="10" height="10" transform="rotate(-45 81 149.071)" fill="#1C1E53"/>
<rect x="161" y="143.071" width="10" height="10" transform="rotate(-45 161 143.071)" fill="#1C1E53"/>
<rect x="151" y="168.071" width="10" height="10" transform="rotate(-45 151 168.071)" fill="#1C1E53"/>
<rect x="162" y="177.071" width="10" height="10" transform="rotate(-45 162 177.071)" fill="#1C1E53"/>
<rect x="162" y="191.071" width="10" height="10" transform="rotate(-45 162 191.071)" fill="#1C1E53"/>
<rect x="136" y="168.071" width="10" height="10" transform="rotate(-45 136 168.071)" fill="#1C1E53"/>
<rect x="150" y="205.071" width="10" height="10" transform="rotate(-45 150 205.071)" fill="#1C1E53"/>
<rect x="136" y="217.071" width="10" height="10" transform="rotate(-45 136 217.071)" fill="#1C1E53"/>
<rect x="174" y="203.071" width="10" height="10" transform="rotate(-45 174 203.071)" fill="#1C1E53"/>
<rect x="186" y="212.071" width="10" height="10" transform="rotate(-45 186 212.071)" fill="#1C1E53"/>
<rect x="186" y="226.071" width="10" height="10" transform="rotate(-45 186 226.071)" fill="#1C1E53"/>
<rect x="186" y="240.071" width="10" height="10" transform="rotate(-45 186 240.071)" fill="#1C1E53"/>
<rect x="186" y="254.071" width="10" height="10" transform="rotate(-45 186 254.071)" fill="#1C1E53"/>
<rect x="172" y="254.071" width="10" height="10" transform="rotate(-45 172 254.071)" fill="#1C1E53"/>
<rect x="172" y="268.071" width="10" height="10" transform="rotate(-45 172 268.071)" fill="#1C1E53"/>
<rect x="186" y="268.071" width="10" height="10" transform="rotate(-45 186 268.071)" fill="#1C1E53"/>
<rect x="186" y="282.071" width="10" height="10" transform="rotate(-45 186 282.071)" fill="#1C1E53"/>
<rect x="99" y="343.071" width="10" height="10" transform="rotate(-45 99 343.071)" fill="#1C1E53"/>
<rect x="198" y="290.071" width="10" height="10" transform="rotate(-45 198 290.071)" fill="#1C1E53"/>
<rect x="212" y="290.071" width="10" height="10" transform="rotate(-45 212 290.071)" fill="#1C1E53"/>
<rect x="222" y="300.071" width="10" height="10" transform="rotate(-45 222 300.071)" fill="#1C1E53"/>
<rect x="222" y="314.071" width="10" height="10" transform="rotate(-45 222 314.071)" fill="#1C1E53"/>
<rect x="222" y="328.071" width="10" height="10" transform="rotate(-45 222 328.071)" fill="#1C1E53"/>
<rect x="210" y="338.071" width="10" height="10" transform="rotate(-45 210 338.071)" fill="#1C1E53"/>
<rect x="161" y="215.071" width="10" height="10" transform="rotate(-45 161 215.071)" fill="#1C1E53"/>
<rect x="161" y="229.071" width="10" height="10" transform="rotate(-45 161 229.071)" fill="#1C1E53"/>
<rect x="161" y="242.071" width="10" height="10" transform="rotate(-45 161 242.071)" fill="#1C1E53"/>
<rect x="137" y="193.071" width="10" height="10" transform="rotate(-45 137 193.071)" fill="#1C1E53"/>
<rect x="124" y="204.071" width="10" height="10" transform="rotate(-45 124 204.071)" fill="#1C1E53"/>
<rect x="113" y="165.071" width="10" height="10" transform="rotate(-45 113 165.071)" fill="#1C1E53"/>
<rect x="99" y="165.071" width="10" height="10" transform="rotate(-45 99 165.071)" fill="#1C1E53"/>
<rect x="99" y="179.071" width="10" height="10" transform="rotate(-45 99 179.071)" fill="#1C1E53"/>
<rect x="99" y="193.071" width="10" height="10" transform="rotate(-45 99 193.071)" fill="#1C1E53"/>
<rect x="88" y="206.071" width="10" height="10" transform="rotate(-45 88 206.071)" fill="#1C1E53"/>
<rect x="68" y="206.071" width="10" height="10" transform="rotate(-45 68 206.071)" fill="#1C1E53"/>
<rect x="75" y="230.071" width="10" height="10" transform="rotate(-45 75 230.071)" fill="#1C1E53"/>
<rect x="64" y="239.071" width="10" height="10" transform="rotate(-45 64 239.071)" fill="#1C1E53"/>
<rect x="64" y="254.071" width="10" height="10" transform="rotate(-45 64 254.071)" fill="#1C1E53"/>
<rect x="63" y="275.071" width="10" height="10" transform="rotate(-45 63 275.071)" fill="#1C1E53"/>
<rect x="63" y="289.071" width="10" height="10" transform="rotate(-45 63 289.071)" fill="#1C1E53"/>
<rect x="63" y="303.071" width="10" height="10" transform="rotate(-45 63 303.071)" fill="#1C1E53"/>
<rect x="63" y="317.071" width="10" height="10" transform="rotate(-45 63 317.071)" fill="#1C1E53"/>
<rect x="77" y="317.071" width="10" height="10" transform="rotate(-45 77 317.071)" fill="#1C1E53"/>
<rect x="91" y="317.071" width="10" height="10" transform="rotate(-45 91 317.071)" fill="#1C1E53"/>
<rect x="105" y="317.071" width="10" height="10" transform="rotate(-45 105 317.071)" fill="#1C1E53"/>
<rect x="119" y="317.071" width="10" height="10" transform="rotate(-45 119 317.071)" fill="#1C1E53"/>
<rect x="119" y="303.071" width="10" height="10" transform="rotate(-45 119 303.071)" fill="#1C1E53"/>
<rect x="105" y="303.071" width="10" height="10" transform="rotate(-45 105 303.071)" fill="#1C1E53"/>
<rect x="105" y="289.071" width="10" height="10" transform="rotate(-45 105 289.071)" fill="#1C1E53"/>
<rect x="105" y="275.071" width="10" height="10" transform="rotate(-45 105 275.071)" fill="#1C1E53"/>
<rect x="91" y="275.071" width="10" height="10" transform="rotate(-45 91 275.071)" fill="#1C1E53"/>
<rect x="91" y="289.071" width="10" height="10" transform="rotate(-45 91 289.071)" fill="#1C1E53"/>
<rect x="77" y="289.071" width="10" height="10" transform="rotate(-45 77 289.071)" fill="#1C1E53"/>
<rect x="77" y="303.071" width="10" height="10" transform="rotate(-45 77 303.071)" fill="#1C1E53"/>
<rect x="119" y="289.071" width="10" height="10" transform="rotate(-45 119 289.071)" fill="#1C1E53"/>
<rect x="78" y="254.071" width="10" height="10" transform="rotate(-45 78 254.071)" fill="#1C1E53"/>
<rect x="92" y="254.071" width="10" height="10" transform="rotate(-45 92 254.071)" fill="#1C1E53"/>
<rect x="100" y="240.071" width="10" height="10" transform="rotate(-45 100 240.071)" fill="#1C1E53"/>
<rect x="110" y="228.071" width="10" height="10" transform="rotate(-45 110 228.071)" fill="#1C1E53"/>
<rect x="124" y="228.071" width="10" height="10" transform="rotate(-45 124 228.071)" fill="#1C1E53"/>
<rect x="124" y="242.071" width="10" height="10" transform="rotate(-45 124 242.071)" fill="#1C1E53"/>
<rect x="138" y="242.071" width="10" height="10" transform="rotate(-45 138 242.071)" fill="#1C1E53"/>
<rect x="149" y="253.071" width="10" height="10" transform="rotate(-45 149 253.071)" fill="#1C1E53"/>
<rect x="138" y="270.071" width="10" height="10" transform="rotate(-45 138 270.071)" fill="#1C1E53"/>
<rect x="137" y="290.071" width="10" height="10" transform="rotate(-45 137 290.071)" fill="#1C1E53"/>
<rect x="137" y="314.071" width="10" height="10" transform="rotate(-45 137 314.071)" fill="#1C1E53"/>
<rect x="158" y="302.071" width="10" height="10" transform="rotate(-45 158 302.071)" fill="#1C1E53"/>
<rect x="71" y="363.071" width="10" height="10" transform="rotate(-45 71 363.071)" fill="#1C1E53"/>
<rect x="161" y="324.071" width="10" height="10" transform="rotate(-45 161 324.071)" fill="#1C1E53"/>
<rect x="161" y="338.071" width="10" height="10" transform="rotate(-45 161 338.071)" fill="#1C1E53"/>
<rect x="161" y="361.071" width="10" height="10" transform="rotate(-45 161 361.071)" fill="#1C1E53"/>
<rect x="198" y="361.071" width="10" height="10" transform="rotate(-45 198 361.071)" fill="#1C1E53"/>
<rect x="185" y="375.071" width="10" height="10" transform="rotate(-45 185 375.071)" fill="#1C1E53"/>
<rect x="173" y="387.071" width="10" height="10" transform="rotate(-45 173 387.071)" fill="#1C1E53"/>
<rect x="183" y="400.071" width="10" height="10" transform="rotate(-45 183 400.071)" fill="#1C1E53"/>
<rect x="197" y="400.071" width="10" height="10" transform="rotate(-45 197 400.071)" fill="#1C1E53"/>
<rect x="208" y="411.071" width="10" height="10" transform="rotate(-45 208 411.071)" fill="#1C1E53"/>
<rect x="222" y="411.071" width="10" height="10" transform="rotate(-45 222 411.071)" fill="#1C1E53"/>
<rect x="222" y="397.071" width="10" height="10" transform="rotate(-45 222 397.071)" fill="#1C1E53"/>
<rect x="222" y="383.071" width="10" height="10" transform="rotate(-45 222 383.071)" fill="#1C1E53"/>
<rect x="222" y="369.071" width="10" height="10" transform="rotate(-45 222 369.071)" fill="#1C1E53"/>
<rect x="236" y="383.071" width="10" height="10" transform="rotate(-45 236 383.071)" fill="#1C1E53"/>
<rect x="236" y="369.071" width="10" height="10" transform="rotate(-45 236 369.071)" fill="#1C1E53"/>
<rect x="236" y="355.071" width="10" height="10" transform="rotate(-45 236 355.071)" fill="#1C1E53"/>
<rect x="250" y="383.071" width="10" height="10" transform="rotate(-45 250 383.071)" fill="#1C1E53"/>
<rect x="264" y="383.071" width="10" height="10" transform="rotate(-45 264 383.071)" fill="#1C1E53"/>
<rect x="264" y="397.071" width="10" height="10" transform="rotate(-45 264 397.071)" fill="#1C1E53"/>
<rect x="264" y="411.071" width="10" height="10" transform="rotate(-45 264 411.071)" fill="#1C1E53"/>
<rect x="278" y="411.071" width="10" height="10" transform="rotate(-45 278 411.071)" fill="#1C1E53"/>
<rect x="308" y="411.071" width="10" height="10" transform="rotate(-45 308 411.071)" fill="#1C1E53"/>
<rect x="308" y="397.071" width="10" height="10" transform="rotate(-45 308 397.071)" fill="#1C1E53"/>
<rect x="308" y="383.071" width="10" height="10" transform="rotate(-45 308 383.071)" fill="#1C1E53"/>
<rect x="322" y="383.071" width="10" height="10" transform="rotate(-45 322 383.071)" fill="#1C1E53"/>
<rect x="322" y="397.071" width="10" height="10" transform="rotate(-45 322 397.071)" fill="#1C1E53"/>
<rect x="344" y="412.071" width="10" height="10" transform="rotate(-45 344 412.071)" fill="#1C1E53"/>
<rect x="358" y="412.071" width="10" height="10" transform="rotate(-45 358 412.071)" fill="#1C1E53"/>
<rect x="358" y="398.071" width="10" height="10" transform="rotate(-45 358 398.071)" fill="#1C1E53"/>
<rect x="358" y="384.071" width="10" height="10" transform="rotate(-45 358 384.071)" fill="#1C1E53"/>
<rect x="372" y="384.071" width="10" height="10" transform="rotate(-45 372 384.071)" fill="#1C1E53"/>
<rect x="381" y="373.071" width="10" height="10" transform="rotate(-45 381 373.071)" fill="#1C1E53"/>
<rect x="377" y="141.071" width="10" height="10" transform="rotate(-45 377 141.071)" fill="#1C1E53"/>
<rect x="356" y="363.071" width="10" height="10" transform="rotate(-45 356 363.071)" fill="#1C1E53"/>
<rect x="352" y="131.071" width="10" height="10" transform="rotate(-45 352 131.071)" fill="#1C1E53"/>
<rect x="356" y="349.071" width="10" height="10" transform="rotate(-45 356 349.071)" fill="#1C1E53"/>
<rect x="352" y="117.071" width="10" height="10" transform="rotate(-45 352 117.071)" fill="#1C1E53"/>
<rect x="370" y="349.071" width="10" height="10" transform="rotate(-45 370 349.071)" fill="#1C1E53"/>
<rect x="366" y="117.071" width="10" height="10" transform="rotate(-45 366 117.071)" fill="#1C1E53"/>
<rect x="381" y="340.071" width="10" height="10" transform="rotate(-45 381 340.071)" fill="#1C1E53"/>
<rect x="381" y="326.071" width="10" height="10" transform="rotate(-45 381 326.071)" fill="#1C1E53"/>
<rect x="395" y="326.071" width="10" height="10" transform="rotate(-45 395 326.071)" fill="#1C1E53"/>
<rect x="405" y="313.071" width="10" height="10" transform="rotate(-45 405 313.071)" fill="#1C1E53"/>
<rect x="406" y="290.071" width="10" height="10" transform="rotate(-45 406 290.071)" fill="#1C1E53"/>
<rect x="367" y="326.071" width="10" height="10" transform="rotate(-45 367 326.071)" fill="#1C1E53"/>
<rect x="381" y="312.071" width="10" height="10" transform="rotate(-45 381 312.071)" fill="#1C1E53"/>
<rect x="381" y="298.071" width="10" height="10" transform="rotate(-45 381 298.071)" fill="#1C1E53"/>
<rect x="393" y="351.071" width="10" height="10" transform="rotate(-45 393 351.071)" fill="#1C1E53"/>
<rect x="389" y="119.071" width="10" height="10" transform="rotate(-45 389 119.071)" fill="#1C1E53"/>
<rect x="356" y="335.071" width="10" height="10" transform="rotate(-45 356 335.071)" fill="#1C1E53"/>
<rect x="356" y="321.071" width="10" height="10" transform="rotate(-45 356 321.071)" fill="#1C1E53"/>
<rect x="395" y="373.071" width="10" height="10" transform="rotate(-45 395 373.071)" fill="#1C1E53"/>
<rect x="391" y="141.071" width="10" height="10" transform="rotate(-45 391 141.071)" fill="#1C1E53"/>
<rect x="395" y="387.071" width="10" height="10" transform="rotate(-45 395 387.071)" fill="#1C1E53"/>
<rect x="381" y="399.071" width="10" height="10" transform="rotate(-45 381 399.071)" fill="#1C1E53"/>
<rect x="344" y="384.071" width="10" height="10" transform="rotate(-45 344 384.071)" fill="#1C1E53"/>
<rect x="344" y="370.071" width="10" height="10" transform="rotate(-45 344 370.071)" fill="#1C1E53"/>
<rect x="340" y="138.071" width="10" height="10" transform="rotate(-45 340 138.071)" fill="#1C1E53"/>
<rect x="344" y="356.071" width="10" height="10" transform="rotate(-45 344 356.071)" fill="#1C1E53"/>
<rect x="340" y="124.071" width="10" height="10" transform="rotate(-45 340 124.071)" fill="#1C1E53"/>
<rect x="264" y="369.071" width="10" height="10" transform="rotate(-45 264 369.071)" fill="#1C1E53"/>
<rect x="258" y="351.071" width="10" height="10" transform="rotate(-45 258 351.071)" fill="#1C1E53"/>
<rect x="258" y="337.071" width="10" height="10" transform="rotate(-45 258 337.071)" fill="#1C1E53"/>
<rect x="244" y="337.071" width="10" height="10" transform="rotate(-45 244 337.071)" fill="#1C1E53"/>
<rect x="244" y="323.071" width="10" height="10" transform="rotate(-45 244 323.071)" fill="#1C1E53"/>
<rect x="258" y="323.071" width="10" height="10" transform="rotate(-45 258 323.071)" fill="#1C1E53"/>
<rect x="272" y="323.071" width="10" height="10" transform="rotate(-45 272 323.071)" fill="#1C1E53"/>
<rect x="272" y="309.071" width="10" height="10" transform="rotate(-45 272 309.071)" fill="#1C1E53"/>
<rect x="258" y="309.071" width="10" height="10" transform="rotate(-45 258 309.071)" fill="#1C1E53"/>
<rect x="258" y="295.071" width="10" height="10" transform="rotate(-45 258 295.071)" fill="#1C1E53"/>
<rect x="272" y="351.071" width="10" height="10" transform="rotate(-45 272 351.071)" fill="#1C1E53"/>
<rect x="286" y="351.071" width="10" height="10" transform="rotate(-45 286 351.071)" fill="#1C1E53"/>
<rect x="294" y="363.071" width="10" height="10" transform="rotate(-45 294 363.071)" fill="#1C1E53"/>
<rect x="308" y="363.071" width="10" height="10" transform="rotate(-45 308 363.071)" fill="#1C1E53"/>
<rect x="308" y="349.071" width="10" height="10" transform="rotate(-45 308 349.071)" fill="#1C1E53"/>
<rect x="308" y="335.071" width="10" height="10" transform="rotate(-45 308 335.071)" fill="#1C1E53"/>
<rect x="308" y="321.071" width="10" height="10" transform="rotate(-45 308 321.071)" fill="#1C1E53"/>
<rect x="308" y="292.071" width="10" height="10" transform="rotate(-45 308 292.071)" fill="#1C1E53"/>
<rect x="308" y="278.071" width="10" height="10" transform="rotate(-45 308 278.071)" fill="#1C1E53"/>
<rect x="308" y="264.071" width="10" height="10" transform="rotate(-45 308 264.071)" fill="#1C1E53"/>
<rect x="294" y="264.071" width="10" height="10" transform="rotate(-45 294 264.071)" fill="#1C1E53"/>
<rect x="283" y="253.071" width="10" height="10" transform="rotate(-45 283 253.071)" fill="#1C1E53"/>
<rect x="308" y="250.071" width="10" height="10" transform="rotate(-45 308 250.071)" fill="#1C1E53"/>
<rect x="322" y="250.071" width="10" height="10" transform="rotate(-45 322 250.071)" fill="#1C1E53"/>
<rect x="308" y="236.071" width="10" height="10" transform="rotate(-45 308 236.071)" fill="#1C1E53"/>
<rect x="294" y="241.071" width="10" height="10" transform="rotate(-45 294 241.071)" fill="#1C1E53"/>
<rect x="283" y="231.071" width="10" height="10" transform="rotate(-45 283 231.071)" fill="#1C1E53"/>
<rect x="283" y="217.071" width="10" height="10" transform="rotate(-45 283 217.071)" fill="#1C1E53"/>
<rect x="297" y="217.071" width="10" height="10" transform="rotate(-45 297 217.071)" fill="#1C1E53"/>
<rect x="311" y="217.071" width="10" height="10" transform="rotate(-45 311 217.071)" fill="#1C1E53"/>
<rect x="325" y="217.071" width="10" height="10" transform="rotate(-45 325 217.071)" fill="#1C1E53"/>
<rect x="339" y="217.071" width="10" height="10" transform="rotate(-45 339 217.071)" fill="#1C1E53"/>
<rect x="339" y="231.071" width="10" height="10" transform="rotate(-45 339 231.071)" fill="#1C1E53"/>
<rect x="322" y="321.071" width="10" height="10" transform="rotate(-45 322 321.071)" fill="#1C1E53"/>
<rect x="322" y="307.071" width="10" height="10" transform="rotate(-45 322 307.071)" fill="#1C1E53"/>
<rect x="332" y="339.071" width="10" height="10" transform="rotate(-45 332 339.071)" fill="#1C1E53"/>
<rect x="336" y="321.071" width="10" height="10" transform="rotate(-45 336 321.071)" fill="#1C1E53"/>
<rect x="346" y="322.071" width="10" height="10" transform="rotate(-45 346 322.071)" fill="#1C1E53"/>
<rect x="346" y="308.071" width="10" height="10" transform="rotate(-45 346 308.071)" fill="#1C1E53"/>
<rect x="346" y="295.071" width="10" height="10" transform="rotate(-45 346 295.071)" fill="#1C1E53"/>
<rect x="346" y="281.071" width="10" height="10" transform="rotate(-45 346 281.071)" fill="#1C1E53"/>
<rect x="322" y="363.071" width="10" height="10" transform="rotate(-45 322 363.071)" fill="#1C1E53"/>
<rect x="318" y="131.071" width="10" height="10" transform="rotate(-45 318 131.071)" fill="#1C1E53"/>
<rect x="336" y="363.071" width="10" height="10" transform="rotate(-45 336 363.071)" fill="#1C1E53"/>
<rect x="332" y="131.071" width="10" height="10" transform="rotate(-45 332 131.071)" fill="#1C1E53"/>
<rect x="278" y="383.071" width="10" height="10" transform="rotate(-45 278 383.071)" fill="#1C1E53"/>
<rect x="208" y="383.071" width="10" height="10" transform="rotate(-45 208 383.071)" fill="#1C1E53"/>
<rect x="174" y="411.071" width="10" height="10" transform="rotate(-45 174 411.071)" fill="#1C1E53"/>
<rect x="161" y="375.071" width="10" height="10" transform="rotate(-45 161 375.071)" fill="#1C1E53"/>
<rect x="186" y="338.071" width="10" height="10" transform="rotate(-45 186 338.071)" fill="#1C1E53"/>
<rect x="172" y="288.071" width="10" height="10" transform="rotate(-45 172 288.071)" fill="#1C1E53"/>
<rect x="85" y="349.071" width="10" height="10" transform="rotate(-45 85 349.071)" fill="#1C1E53"/>
<rect x="172" y="302.071" width="10" height="10" transform="rotate(-45 172 302.071)" fill="#1C1E53"/>
<rect x="85" y="363.071" width="10" height="10" transform="rotate(-45 85 363.071)" fill="#1C1E53"/>
<rect x="186" y="302.071" width="10" height="10" transform="rotate(-45 186 302.071)" fill="#1C1E53"/>
<rect x="99" y="363.071" width="10" height="10" transform="rotate(-45 99 363.071)" fill="#1C1E53"/>
<rect x="186" y="316.071" width="10" height="10" transform="rotate(-45 186 316.071)" fill="#1C1E53"/>
<rect x="99" y="377.071" width="10" height="10" transform="rotate(-45 99 377.071)" fill="#1C1E53"/>
<rect x="200" y="316.071" width="10" height="10" transform="rotate(-45 200 316.071)" fill="#1C1E53"/>
<rect x="150" y="277.071" width="10" height="10" transform="rotate(-45 150 277.071)" fill="#1C1E53"/>
<rect x="124" y="256.071" width="10" height="10" transform="rotate(-45 124 256.071)" fill="#1C1E53"/>
<rect x="110" y="256.071" width="10" height="10" transform="rotate(-45 110 256.071)" fill="#1C1E53"/>
<rect x="124" y="270.071" width="10" height="10" transform="rotate(-45 124 270.071)" fill="#1C1E53"/>
<rect x="113" y="179.071" width="10" height="10" transform="rotate(-45 113 179.071)" fill="#1C1E53"/>
<rect x="113" y="193.071" width="10" height="10" transform="rotate(-45 113 193.071)" fill="#1C1E53"/>
<rect x="172" y="157.071" width="10" height="10" transform="rotate(-45 172 157.071)" fill="#1C1E53"/>
<rect x="186" y="143.071" width="10" height="10" transform="rotate(-45 186 143.071)" fill="#1C1E53"/>
<rect x="210" y="143.071" width="10" height="10" transform="rotate(-45 210 143.071)" fill="#1C1E53"/>
<rect x="195" y="168.071" width="10" height="10" transform="rotate(-45 195 168.071)" fill="#1C1E53"/>
<rect x="209" y="168.071" width="10" height="10" transform="rotate(-45 209 168.071)" fill="#1C1E53"/>
<rect x="223" y="168.071" width="10" height="10" transform="rotate(-45 223 168.071)" fill="#1C1E53"/>
<rect x="223" y="182.071" width="10" height="10" transform="rotate(-45 223 182.071)" fill="#1C1E53"/>
<rect x="209" y="182.071" width="10" height="10" transform="rotate(-45 209 182.071)" fill="#1C1E53"/>
<rect x="209" y="196.071" width="10" height="10" transform="rotate(-45 209 196.071)" fill="#1C1E53"/>
<rect x="195" y="196.071" width="10" height="10" transform="rotate(-45 195 196.071)" fill="#1C1E53"/>
<rect x="223" y="196.071" width="10" height="10" transform="rotate(-45 223 196.071)" fill="#1C1E53"/>
<rect x="237" y="196.071" width="10" height="10" transform="rotate(-45 237 196.071)" fill="#1C1E53"/>
<rect x="227" y="126.071" width="10" height="10" transform="rotate(-45 227 126.071)" fill="#1C1E53"/>
<rect x="122" y="146.071" width="10" height="10" transform="rotate(-45 122 146.071)" fill="#1C1E53"/>
<rect x="241" y="126.071" width="10" height="10" transform="rotate(-45 241 126.071)" fill="#1C1E53"/>
<rect x="241" y="140.071" width="10" height="10" transform="rotate(-45 241 140.071)" fill="#1C1E53"/>
<rect x="241" y="154.071" width="10" height="10" transform="rotate(-45 241 154.071)" fill="#1C1E53"/>
<rect x="186" y="157.071" width="10" height="10" transform="rotate(-45 186 157.071)" fill="#1C1E53"/>
<rect x="185" y="70.0711" width="10" height="10" transform="rotate(-45 185 70.0711)" fill="#1C1E53"/>
<rect x="199" y="70.0711" width="10" height="10" transform="rotate(-45 199 70.0711)" fill="#1C1E53"/>
<rect x="213" y="70.0711" width="10" height="10" transform="rotate(-45 213 70.0711)" fill="#1C1E53"/>
<rect x="233" y="70.0711" width="10" height="10" transform="rotate(-45 233 70.0711)" fill="#1C1E53"/>
<rect x="235" y="95.0711" width="10" height="10" transform="rotate(-45 235 95.0711)" fill="#1C1E53"/>
<rect x="227" y="112.071" width="10" height="10" transform="rotate(-45 227 112.071)" fill="#1C1E53"/>
<rect x="241" y="112.071" width="10" height="10" transform="rotate(-45 241 112.071)" fill="#1C1E53"/>
<rect x="256" y="113.071" width="10" height="10" transform="rotate(-45 256 113.071)" fill="#1C1E53"/>
<rect x="256" y="127.071" width="10" height="10" transform="rotate(-45 256 127.071)" fill="#1C1E53"/>
<rect x="283" y="94.0711" width="10" height="10" transform="rotate(-45 283 94.0711)" fill="#1C1E53"/>
<rect x="270" y="113.071" width="10" height="10" transform="rotate(-45 270 113.071)" fill="#1C1E53"/>
<rect x="270" y="127.071" width="10" height="10" transform="rotate(-45 270 127.071)" fill="#1C1E53"/>
<rect x="270" y="141.071" width="10" height="10" transform="rotate(-45 270 141.071)" fill="#1C1E53"/>
<rect x="270" y="154.071" width="10" height="10" transform="rotate(-45 270 154.071)" fill="#1C1E53"/>
<rect x="283" y="167.071" width="10" height="10" transform="rotate(-45 283 167.071)" fill="#1C1E53"/>
<rect x="307" y="165.071" width="10" height="10" transform="rotate(-45 307 165.071)" fill="#1C1E53"/>
<rect x="307" y="179.071" width="10" height="10" transform="rotate(-45 307 179.071)" fill="#1C1E53"/>
<rect x="317" y="192.071" width="10" height="10" transform="rotate(-45 317 192.071)" fill="#1C1E53"/>
<rect x="331" y="192.071" width="10" height="10" transform="rotate(-45 331 192.071)" fill="#1C1E53"/>
<rect x="342" y="180.071" width="10" height="10" transform="rotate(-45 342 180.071)" fill="#1C1E53"/>
<rect x="356" y="180.071" width="10" height="10" transform="rotate(-45 356 180.071)" fill="#1C1E53"/>
<rect x="370" y="180.071" width="10" height="10" transform="rotate(-45 370 180.071)" fill="#1C1E53"/>
<rect x="370" y="194.071" width="10" height="10" transform="rotate(-45 370 194.071)" fill="#1C1E53"/>
<rect x="370" y="208.071" width="10" height="10" transform="rotate(-45 370 208.071)" fill="#1C1E53"/>
<rect x="370" y="222.071" width="10" height="10" transform="rotate(-45 370 222.071)" fill="#1C1E53"/>
<rect x="357" y="228.071" width="10" height="10" transform="rotate(-45 357 228.071)" fill="#1C1E53"/>
<rect x="369" y="238.071" width="10" height="10" transform="rotate(-45 369 238.071)" fill="#1C1E53"/>
<rect x="381" y="229.071" width="10" height="10" transform="rotate(-45 381 229.071)" fill="#1C1E53"/>
<rect x="369" y="252.071" width="10" height="10" transform="rotate(-45 369 252.071)" fill="#1C1E53"/>
<rect x="369" y="266.071" width="10" height="10" transform="rotate(-45 369 266.071)" fill="#1C1E53"/>
<rect x="369" y="280.071" width="10" height="10" transform="rotate(-45 369 280.071)" fill="#1C1E53"/>
<rect x="369" y="294.071" width="10" height="10" transform="rotate(-45 369 294.071)" fill="#1C1E53"/>
<rect x="383" y="252.071" width="10" height="10" transform="rotate(-45 383 252.071)" fill="#1C1E53"/>
<rect x="397" y="252.071" width="10" height="10" transform="rotate(-45 397 252.071)" fill="#1C1E53"/>
<rect x="397" y="266.071" width="10" height="10" transform="rotate(-45 397 266.071)" fill="#1C1E53"/>
<rect x="355" y="252.071" width="10" height="10" transform="rotate(-45 355 252.071)" fill="#1C1E53"/>
<rect x="345" y="241.071" width="10" height="10" transform="rotate(-45 345 241.071)" fill="#1C1E53"/>
<rect x="356" y="208.071" width="10" height="10" transform="rotate(-45 356 208.071)" fill="#1C1E53"/>
<rect x="370" y="166.071" width="10" height="10" transform="rotate(-45 370 166.071)" fill="#1C1E53"/>
<rect x="384" y="166.071" width="10" height="10" transform="rotate(-45 384 166.071)" fill="#1C1E53"/>
<rect x="393" y="180.071" width="10" height="10" transform="rotate(-45 393 180.071)" fill="#1C1E53"/>
<rect x="393" y="217.071" width="10" height="10" transform="rotate(-45 393 217.071)" fill="#1C1E53"/>
<rect x="271" y="178.071" width="10" height="10" transform="rotate(-45 271 178.071)" fill="#1C1E53"/>
<rect x="220" y="224.071" width="10" height="10" transform="rotate(-45 220 224.071)" fill="#1C1E53"/>
<rect x="271" y="192.071" width="10" height="10" transform="rotate(-45 271 192.071)" fill="#1C1E53"/>
<rect x="220" y="238.071" width="10" height="10" transform="rotate(-45 220 238.071)" fill="#1C1E53"/>
<rect x="285" y="192.071" width="10" height="10" transform="rotate(-45 285 192.071)" fill="#1C1E53"/>
<rect x="257" y="192.071" width="10" height="10" transform="rotate(-45 257 192.071)" fill="#1C1E53"/>
<rect x="206" y="238.071" width="10" height="10" transform="rotate(-45 206 238.071)" fill="#1C1E53"/>
<rect x="284" y="113.071" width="10" height="10" transform="rotate(-45 284 113.071)" fill="#1C1E53"/>
<rect x="298" y="113.071" width="10" height="10" transform="rotate(-45 298 113.071)" fill="#1C1E53"/>
<rect x="298" y="127.071" width="10" height="10" transform="rotate(-45 298 127.071)" fill="#1C1E53"/>
<rect x="298" y="141.071" width="10" height="10" transform="rotate(-45 298 141.071)" fill="#1C1E53"/>
<rect x="261" y="84.0711" width="10" height="10" transform="rotate(-45 261 84.0711)" fill="#1C1E53"/>
<rect x="261" y="98.0711" width="10" height="10" transform="rotate(-45 261 98.0711)" fill="#1C1E53"/>
<rect x="247" y="70.0711" width="10" height="10" transform="rotate(-45 247 70.0711)" fill="#1C1E53"/>
<rect x="261" y="70.0711" width="10" height="10" transform="rotate(-45 261 70.0711)" fill="#1C1E53"/>
<rect x="275" y="70.0711" width="10" height="10" transform="rotate(-45 275 70.0711)" fill="#1C1E53"/>
<rect x="289" y="70.0711" width="10" height="10" transform="rotate(-45 289 70.0711)" fill="#1C1E53"/>
<rect x="303" y="70.0711" width="10" height="10" transform="rotate(-45 303 70.0711)" fill="#1C1E53"/>
<rect x="303" y="86.0711" width="10" height="10" transform="rotate(-45 303 86.0711)" fill="#1C1E53"/>
<rect x="303" y="100.071" width="10" height="10" transform="rotate(-45 303 100.071)" fill="#1C1E53"/>
<rect x="213" y="84.0711" width="10" height="10" transform="rotate(-45 213 84.0711)" fill="#1C1E53"/>
<rect x="213" y="98.0711" width="10" height="10" transform="rotate(-45 213 98.0711)" fill="#1C1E53"/>
<rect x="213" y="112.071" width="10" height="10" transform="rotate(-45 213 112.071)" fill="#1C1E53"/>
<rect x="108" y="132.071" width="10" height="10" transform="rotate(-45 108 132.071)" fill="#1C1E53"/>
</svg>
