<svg width="500" height="500" viewBox="0 0 500 500" fill="none" xmlns="http://www.w3.org/2000/svg">
<rect width="500" height="500" fill="white"/>
<circle cx="133" cy="107" r="25" fill="#1C1E53"/>
<circle cx="183" cy="107" r="25" fill="#1C1E53"/>
<circle cx="233" cy="107" r="25" fill="#1C1E53"/>
<circle cx="283" cy="107" r="25" fill="#1C1E53"/>
<circle cx="333" cy="107" r="25" fill="#1C1E53"/>
<circle cx="383" cy="107" r="25" fill="#1C1E53"/>
<circle cx="383" cy="157" r="25" fill="#1C1E53"/>
<circle cx="383" cy="207" r="25" fill="#1C1E53"/>
<circle cx="383" cy="257" r="25" fill="#1C1E53"/>
<circle cx="383" cy="307" r="25" fill="#1C1E53"/>
<circle cx="383" cy="357" r="25" fill="#1C1E53"/>
<circle cx="333" cy="357" r="25" fill="#1C1E53"/>
<circle cx="283" cy="357" r="25" fill="#1C1E53"/>
<circle cx="233" cy="357" r="25" fill="#1C1E53"/>
<circle cx="183" cy="357" r="25" fill="#1C1E53"/>
<circle cx="133" cy="357" r="25" fill="#1C1E53"/>
<circle cx="133" cy="307" r="25" fill="#1C1E53"/>
<circle cx="133" cy="257" r="25" fill="#1C1E53"/>
<circle cx="133" cy="207" r="25" fill="#1C1E53"/>
<circle cx="133" cy="157" r="25" fill="#1C1E53"/>
</svg>
