<svg xmlns="http://www.w3.org/2000/svg" viewBox="0 0 122.1 194.7"><defs><style>.cls-1{fill:#42c985;}.cls-2{fill:#66bf83;}</style></defs><g id="Layer_2" data-name="Layer 2"><g id="Layer_1-2" data-name="Layer 1"><path class="cls-1" d="M94.36,75.59c18.39,19.75,18.76,49.28.82,66l-5.24,4.87-7.49,7-3.15,3.12L40.47,192.87a6.77,6.77,0,0,1-9.57-.31L0,159.55l18.6-17.41a22.78,22.78,0,0,1,1.59-1.68l.15-.14,8.17-7.62,9.09-8.47.92-.87,11.27-10.51a19,19,0,0,0,12.45,3.63,19.16,19.16,0,1,0-17.44-9L31.14,120.25A1.81,1.81,0,0,1,28.6,120l-.86-.92C9.35,99.37,9,69.84,26.92,53.16L39.65,41.31l38-35.76L72,10.88l9.64-9.06a6.73,6.73,0,0,1,9.52.31l30.92,33L103.5,52.57a20.85,20.85,0,0,1-1.59,1.68l-.15.14L93.6,62,87.07,68.1l6.15,6.32Z"/><path class="cls-2" d="M94.36,75.59l-1.14-1.17a2.26,2.26,0,0,1,.29.25Z"/></g></g></svg>